<svg width="173" height="52" viewBox="0 0 173 52" fill="none" xmlns="http://www.w3.org/2000/svg">
<g clip-path="url(#clip0)">
<path d="M166.85 51.26H6.06C4.45268 51.2547 2.91285 50.6132 1.77724 49.4757C0.641626 48.3382 0.00263494 46.7973 0 45.19L0 6.06C0.00264428 4.4536 0.641956 2.91375 1.77785 1.77785C2.91375 0.641956 4.4536 0.00264432 6.06 3.53107e-08H166.85C168.466 -0.000172972 170.016 0.635403 171.167 1.76936C172.318 2.90331 172.976 4.44457 173 6.06V45.19C172.974 46.8046 172.315 48.3444 171.164 49.4778C170.014 50.6112 168.465 51.2476 166.85 51.25V51.26Z" fill="#A6A6A6"/>
<path d="M171.76 45.2C171.76 46.5022 171.243 47.7511 170.322 48.6719C169.401 49.5927 168.152 50.11 166.85 50.11H6.06001C5.41438 50.1113 4.77483 49.9853 4.17797 49.7391C3.5811 49.493 3.03865 49.1315 2.58165 48.6754C2.12466 48.2194 1.7621 47.6777 1.51472 47.0813C1.26734 46.4849 1.14001 45.8456 1.14001 45.2V45.2V6.06001C1.14001 4.75515 1.65837 3.50373 2.58105 2.58105C3.50373 1.65837 4.75515 1.14001 6.06001 1.14001H166.85C168.152 1.14001 169.401 1.65732 170.322 2.57812C171.243 3.49892 171.76 4.7478 171.76 6.05001V6.05001V45.19V45.2Z" fill="white"/>
<path d="M38.61 25.35C38.627 24.0973 38.9604 22.8693 39.5794 21.7801C40.1983 20.6909 41.0826 19.7758 42.15 19.12C41.4708 18.1505 40.5748 17.3528 39.5332 16.7904C38.4916 16.2279 37.3332 15.9162 36.15 15.88C33.63 15.62 31.15 17.39 29.9 17.39C28.65 17.39 26.61 15.91 24.48 15.95C23.1081 15.9927 21.7702 16.3877 20.5951 17.097C19.4199 17.8063 18.4471 18.806 17.77 20C14.87 25 17.03 32.41 19.77 36.48C21.16 38.48 22.77 40.69 24.92 40.61C27.07 40.53 27.78 39.28 30.29 39.28C32.8 39.28 33.51 40.61 35.68 40.56C37.85 40.51 39.32 38.56 40.68 36.56C41.6863 35.1702 42.4691 33.6317 43 32C41.6933 31.449 40.5791 30.5234 39.7978 29.3399C39.0166 28.1564 38.6033 26.7681 38.61 25.35V25.35Z" fill="#141A27"/>
<path d="M34.51 13.21C35.7201 11.755 36.3187 9.88736 36.18 8C34.3175 8.19471 32.5966 9.08371 31.36 10.49C30.155 11.8677 29.5376 13.6626 29.64 15.49C30.5712 15.4989 31.4924 15.2966 32.3342 14.8982C33.176 14.4999 33.9165 13.9158 34.5 13.19L34.51 13.21Z" fill="#141A27"/>
<path d="M65.84 40.37H68.75L63.23 23.32H59.84L54.35 40.37H57.18L58.7 35.37H64.24L65.84 40.37ZM62.32 28.81L63.76 33.26H59.18L60.6 28.81C60.9733 27.3967 61.2433 26.3267 61.41 25.6H61.46C61.88 27.28 62.1666 28.35 62.32 28.81Z" fill="#141A27"/>
<path d="M81.17 39C82.3641 37.6177 82.9706 35.8233 82.86 34C82.9377 32.3631 82.4189 30.7535 81.4 29.47C80.9111 28.8918 80.294 28.4359 79.5977 28.1385C78.9014 27.8411 78.1452 27.7105 77.3895 27.7571C76.6338 27.8038 75.8994 28.0263 75.245 28.407C74.5905 28.7878 74.0341 29.3161 73.62 29.95V29.95L73.47 28H71C71.0667 29.3333 71.1 30.6667 71.1 32V45.38H73.83V38.9H73.88C74.2466 39.4825 74.7656 39.9535 75.3808 40.262C75.996 40.5705 76.684 40.7046 77.37 40.65C78.0845 40.6625 78.7934 40.5217 79.4489 40.2371C80.1044 39.9525 80.6913 39.5306 81.17 39ZM79.27 31.18C79.8473 32.0706 80.1307 33.1199 80.08 34.18C80.1347 35.2915 79.8334 36.3915 79.22 37.32C78.9513 37.7031 78.5908 38.0128 78.1715 38.2206C77.7523 38.4285 77.2876 38.528 76.82 38.51C76.4167 38.5228 76.0157 38.446 75.6456 38.2852C75.2756 38.1244 74.9458 37.8835 74.68 37.58C74.1281 36.9551 73.8349 36.1434 73.86 35.31V33.26C73.8708 32.9792 73.9144 32.7007 73.99 32.43C74.139 31.7375 74.5201 31.1165 75.07 30.67C75.5793 30.24 76.2235 30.0029 76.89 30C77.3561 29.9876 77.8179 30.0918 78.2335 30.3031C78.6491 30.5144 79.0054 30.8261 79.27 31.21V31.18Z" fill="#141A27"/>
<path d="M95.31 39C96.5077 37.6192 97.1179 35.8247 97.01 34C97.0877 32.3647 96.5729 30.7562 95.56 29.47C95.0711 28.8918 94.4539 28.4359 93.7576 28.1385C93.0613 27.8411 92.3052 27.7105 91.5495 27.7571C90.7938 27.8038 90.0594 28.0263 89.405 28.407C88.7505 28.7878 88.1941 29.3161 87.78 29.95L87.63 28H85.23C85.2966 29.3333 85.33 30.6667 85.33 32V45.38H88V38.9H88.05C88.4157 39.4833 88.9346 39.9549 89.55 40.2635C90.1655 40.5721 90.8538 40.7058 91.54 40.65C92.2495 40.6582 92.9526 40.5153 93.6026 40.2308C94.2526 39.9464 94.8346 39.5268 95.31 39V39ZM93.41 31.18C93.988 32.0703 94.2713 33.1198 94.22 34.18C94.2747 35.2915 93.9734 36.3915 93.36 37.32C93.0939 37.6955 92.7393 37.9996 92.3277 38.2054C91.916 38.4112 91.46 38.5124 91 38.5C90.5967 38.5128 90.1956 38.436 89.8256 38.2752C89.4556 38.1143 89.1258 37.8735 88.86 37.57C88.2968 36.9532 87.9894 36.1452 88 35.31V33.26C88.0113 32.9793 88.0549 32.7008 88.13 32.43C88.2771 31.7391 88.6544 31.1186 89.2 30.67C89.7044 30.2451 90.3405 30.0083 91 30C91.4729 29.9799 91.9431 30.0803 92.3665 30.292C92.7898 30.5037 93.1524 30.8196 93.42 31.21L93.41 31.18Z" fill="#141A27"/>
<path d="M112.82 35.59C112.842 36.2554 112.717 36.9174 112.454 37.5292C112.191 38.141 111.797 38.6875 111.3 39.13C109.995 40.1906 108.339 40.7224 106.66 40.62C105.116 40.6941 103.583 40.3264 102.24 39.56L102.87 37.28C104.074 38.0124 105.461 38.3902 106.87 38.37C107.73 38.422 108.582 38.1747 109.28 37.67C109.559 37.4485 109.781 37.165 109.931 36.842C110.08 36.5191 110.152 36.1656 110.14 35.81C110.148 35.4852 110.089 35.1622 109.967 34.8612C109.845 34.5601 109.662 34.2874 109.43 34.06C108.722 33.4561 107.894 33.0096 107 32.75C104.013 31.6366 102.52 30.0066 102.52 27.86C102.502 27.2034 102.634 26.5514 102.906 25.9536C103.178 25.3558 103.583 24.8278 104.09 24.41C105.27 23.4692 106.753 22.9926 108.26 23.07C109.597 23.0231 110.924 23.301 112.13 23.88L111.45 26.11C110.447 25.5784 109.325 25.31 108.19 25.33C107.403 25.2847 106.627 25.5224 106 26C105.78 26.1929 105.605 26.4317 105.488 26.6995C105.37 26.9673 105.313 27.2576 105.32 27.55C105.314 27.8694 105.381 28.1861 105.516 28.4756C105.651 28.7651 105.851 29.0198 106.1 29.22C106.851 29.7886 107.689 30.2342 108.58 30.54C109.805 30.9705 110.914 31.679 111.82 32.61C112.52 33.4481 112.877 34.5197 112.82 35.61V35.59Z" fill="#141A27"/>
<path d="M121.85 30.12H118.85V36.12C118.85 37.64 119.38 38.4 120.44 38.4C120.847 38.4079 121.254 38.3642 121.65 38.27L121.73 40.34C121.046 40.5622 120.329 40.6637 119.61 40.64C119.141 40.664 118.673 40.5872 118.236 40.4147C117.8 40.2422 117.406 39.978 117.08 39.64C116.381 38.6818 116.057 37.5007 116.17 36.32V30.12H114.38V28.12H116.17V25.82L118.85 25.01V28.07H121.85V30.12Z" fill="#141A27"/>
<path d="M133.83 38.78C134.94 37.4873 135.518 35.8223 135.45 34.12C135.519 32.4747 134.958 30.8651 133.88 29.62C133.329 29.0228 132.654 28.5525 131.903 28.2417C131.152 27.9309 130.342 27.787 129.53 27.82C128.697 27.78 127.866 27.9221 127.094 28.2364C126.322 28.5508 125.628 29.0298 125.06 29.64C123.926 30.9288 123.331 32.6047 123.4 34.32C123.339 35.9783 123.911 37.5977 125 38.85C125.542 39.448 126.21 39.9192 126.954 40.2303C127.699 40.5414 128.504 40.6847 129.31 40.65C130.154 40.6877 130.997 40.5398 131.778 40.2167C132.559 39.8937 133.259 39.4032 133.83 38.78V38.78ZM131.88 31.3C132.369 32.1991 132.626 33.2064 132.626 34.23C132.626 35.2536 132.369 36.2609 131.88 37.16C131.643 37.6078 131.288 37.9825 130.853 38.2438C130.419 38.5051 129.922 38.6432 129.415 38.6432C128.908 38.6432 128.411 38.5051 127.977 38.2438C127.542 37.9825 127.187 37.6078 126.95 37.16C126.441 36.2729 126.189 35.2621 126.22 34.24C126.179 33.1915 126.432 32.1525 126.95 31.24C127.188 30.7841 127.55 30.4044 127.994 30.1445C128.438 29.8845 128.946 29.7547 129.46 29.77C129.965 29.7716 130.46 29.9149 130.888 30.1836C131.315 30.4523 131.659 30.8356 131.88 31.29V31.3Z" fill="#141A27"/>
<path d="M144.32 30.48C144.036 30.4272 143.748 30.4004 143.46 30.4C143.027 30.3795 142.595 30.4687 142.205 30.6592C141.815 30.8497 141.48 31.1355 141.23 31.49C140.753 32.2081 140.515 33.0586 140.55 33.92V40.37H137.82V31.95C137.82 30.6567 137.787 29.3667 137.72 28.08H140.1L140.2 30.43H140.28C140.539 29.6616 141.015 28.9845 141.65 28.48C142.227 28.0475 142.929 27.8157 143.65 27.82C143.876 27.8024 144.104 27.8024 144.33 27.82V30.42L144.32 30.48Z" fill="#141A27"/>
<path d="M156.54 33.64C156.547 34.0556 156.513 34.4709 156.44 34.88H148.24C148.223 35.4022 148.32 35.9219 148.526 36.4022C148.732 36.8826 149.04 37.3119 149.43 37.66C150.192 38.2571 151.143 38.5621 152.11 38.52C153.243 38.5358 154.369 38.3391 155.43 37.94L155.86 39.84C154.553 40.3737 153.151 40.6325 151.74 40.6C150.916 40.6436 150.092 40.517 149.32 40.2279C148.547 39.9389 147.843 39.4936 147.25 38.92C146.692 38.3126 146.26 37.6001 145.98 36.824C145.7 36.048 145.578 35.2239 145.62 34.4C145.556 32.7244 146.095 31.0815 147.14 29.77C147.648 29.1214 148.303 28.6022 149.05 28.2546C149.798 27.9071 150.616 27.741 151.44 27.77C152.222 27.7337 153 27.8985 153.701 28.2486C154.401 28.5987 155 29.1225 155.44 29.77C156.197 30.9155 156.582 32.2674 156.54 33.64Z" fill="#141A27"/>
<path d="M153.93 32.93C153.966 32.1928 153.782 31.4617 153.4 30.83C153.174 30.4602 152.852 30.1588 152.468 29.958C152.084 29.7571 151.653 29.6645 151.22 29.69C150.795 29.6827 150.375 29.7802 149.996 29.9738C149.618 30.1673 149.293 30.4511 149.05 30.8C148.584 31.4153 148.303 32.1507 148.24 32.92H153.93V32.93Z" fill="white"/>
<path d="M55.65 9.32C55.9654 9.13552 56.3009 8.98789 56.65 8.88C57.0711 8.7516 57.5099 8.69084 57.95 8.7C58.6307 8.66075 59.3034 8.86257 59.85 9.27C60.0783 9.45468 60.2604 9.69 60.3819 9.95731C60.5034 10.2246 60.561 10.5166 60.55 10.81C60.5626 11.284 60.3946 11.7451 60.08 12.1C59.7665 12.4523 59.3502 12.6971 58.89 12.8V12.8C59.1485 12.8403 59.4007 12.9143 59.64 13.02C59.8713 13.1197 60.0816 13.2622 60.26 13.44C60.4456 13.6184 60.5927 13.8328 60.6925 14.0701C60.7922 14.3074 60.8424 14.5626 60.84 14.82C60.8524 15.2324 60.7521 15.6403 60.55 16C60.3686 16.309 60.1189 16.5723 59.82 16.77C59.5148 16.9716 59.1762 17.1172 58.82 17.2C58.4528 17.2854 58.077 17.329 57.7 17.33C57.3036 17.3311 56.9081 17.2909 56.52 17.21C56.1406 17.1312 55.7761 16.9928 55.44 16.8L55.78 15.8C56.0472 15.9272 56.3249 16.0309 56.61 16.11C56.9347 16.2064 57.2713 16.2569 57.61 16.26C58.0811 16.2931 58.5487 16.1585 58.93 15.88C59.0786 15.7595 59.1981 15.607 59.2795 15.4338C59.3608 15.2606 59.4021 15.0713 59.4 14.88C59.4107 14.6263 59.3444 14.3754 59.21 14.16C59.088 13.9766 58.9233 13.8256 58.73 13.72C58.5236 13.6108 58.3006 13.5365 58.07 13.5C57.8288 13.4597 57.5846 13.4397 57.34 13.44H56.78V12.44H57.34C57.5803 12.4423 57.8196 12.4086 58.05 12.34C58.2548 12.2804 58.4477 12.1857 58.62 12.06C58.7762 11.9458 58.9059 11.7991 59 11.63C59.0935 11.4583 59.1417 11.2655 59.14 11.07C59.1479 10.9021 59.1157 10.7348 59.0462 10.5818C58.9766 10.4287 58.8717 10.2945 58.74 10.19C58.4306 9.9637 58.0528 9.85071 57.67 9.87C57.3574 9.87176 57.047 9.92237 56.75 10.02C56.4701 10.1089 56.1962 10.2158 55.93 10.34L55.65 9.32Z" fill="#141A27"/>
<path d="M73.92 11.17V12.28H71.41V17.21H70.07V11.21L73.92 11.17Z" fill="#141A27"/>
<path d="M88.81 11.17L87.28 15.36C86.9844 16.1972 86.6302 17.0125 86.22 17.8C85.9624 18.3134 85.6249 18.7826 85.22 19.19C84.8082 19.5778 84.2951 19.8412 83.74 19.95L83.42 18.82C83.7887 18.7201 84.1304 18.539 84.42 18.29C84.7411 18.014 85.0001 17.6732 85.18 17.29C85.23 17.2071 85.2639 17.1155 85.28 17.02C85.2659 16.9203 85.239 16.8228 85.2 16.73L83 11.17H84.5L85.64 14.54C85.7 14.7 85.76 14.88 85.81 15.07C85.86 15.26 85.93 15.49 86 15.73C86 15.6 86.09 15.43 86.14 15.23C86.19 15.03 86.26 14.79 86.34 14.53L87.34 11.18H88.77L88.81 11.17Z" fill="#141A27"/>
<path d="M81.4 15.44C81.5367 15.0135 81.6042 14.5679 81.6 14.12C81.6055 13.6958 81.5413 13.2735 81.41 12.87C81.2984 12.5061 81.1185 12.1667 80.88 11.87C80.664 11.6068 80.3948 11.3921 80.09 11.24C79.7785 11.0894 79.436 11.0141 79.09 11.02C78.6906 11.0052 78.2945 11.0976 77.9429 11.2875C77.5912 11.4774 77.2967 11.758 77.09 12.1V12.1L77.01 11.1H75.78C75.78 11.7667 75.78 12.4334 75.78 13.1V19.61H77.12V16.49C77.3004 16.7773 77.5562 17.0094 77.8595 17.1611C78.1629 17.3127 78.502 17.3781 78.84 17.35C79.2086 17.3542 79.5734 17.2755 79.9075 17.1197C80.2415 16.9639 80.5363 16.735 80.77 16.45C81.0146 16.1543 81.2013 15.815 81.32 15.45L81.4 15.44ZM80.12 13.34C80.1942 13.6104 80.2312 13.8896 80.23 14.17C80.2562 14.7194 80.1055 15.2627 79.8 15.72C79.6671 15.9072 79.4896 16.0583 79.2835 16.1596C79.0775 16.2609 78.8494 16.3091 78.62 16.3C78.4171 16.3023 78.216 16.2614 78.03 16.18C77.8549 16.104 77.6981 15.9915 77.57 15.85C77.4383 15.7046 77.3364 15.5347 77.27 15.35C77.1962 15.1517 77.1589 14.9416 77.16 14.73V13.73C77.1618 13.3052 77.3265 12.8972 77.62 12.59C77.7565 12.4467 77.9195 12.3312 78.1 12.25C78.2761 12.1707 78.467 12.1298 78.66 12.13C78.8857 12.1261 79.1089 12.1776 79.31 12.28C79.5053 12.3819 79.676 12.5252 79.81 12.7C79.9543 12.8947 80.0596 13.1154 80.12 13.35V13.34Z" fill="#141A27"/>
<path d="M91.13 13.68H91.75C92.1202 13.7031 92.4891 13.6161 92.81 13.43C92.9187 13.3685 93.0098 13.2801 93.0746 13.1733C93.1394 13.0665 93.1757 12.9448 93.18 12.82C93.183 12.7008 93.1551 12.583 93.099 12.4778C93.043 12.3727 92.9606 12.2838 92.86 12.22C92.6021 12.0616 92.3023 11.9849 92 12C91.7519 12.0014 91.5055 12.0419 91.27 12.12C91.0347 12.195 90.807 12.2921 90.59 12.41L90.24 11.54C90.5525 11.3618 90.8894 11.2304 91.24 11.15C91.5688 11.0798 91.9038 11.0429 92.24 11.04C92.5186 11.0402 92.7965 11.067 93.07 11.12C93.3302 11.1673 93.5804 11.2586 93.81 11.39C94.0228 11.5137 94.2041 11.6848 94.34 11.89C94.4813 12.1212 94.5509 12.3892 94.54 12.66C94.5443 12.8331 94.5066 13.0047 94.43 13.16C94.3547 13.3043 94.2529 13.4332 94.13 13.54C94.0079 13.6504 93.8697 13.7415 93.72 13.81C93.5729 13.8798 93.4187 13.9334 93.26 13.97V13.97C93.4588 13.9956 93.6537 14.0459 93.84 14.12C94.0198 14.1919 94.1882 14.2896 94.34 14.41C94.487 14.5283 94.6093 14.6744 94.7 14.84C94.7943 15.0186 94.8425 15.218 94.84 15.42C94.8516 15.7369 94.7604 16.0491 94.58 16.31C94.4458 16.5838 94.2467 16.8207 94 17C93.7196 17.1429 93.4197 17.244 93.11 17.3C92.4501 17.4347 91.7698 17.4347 91.11 17.3C90.7596 17.2289 90.4223 17.1041 90.11 16.93L90.4 16C90.635 16.1241 90.8832 16.2214 91.14 16.29C91.4165 16.3688 91.7025 16.4092 91.99 16.41C92.3472 16.4207 92.6993 16.3231 93 16.13C93.1127 16.0581 93.2057 15.9591 93.2703 15.8421C93.3349 15.7251 93.3692 15.5937 93.37 15.46C93.3766 15.3044 93.3347 15.1506 93.25 15.02C93.1597 14.8953 93.0393 14.7955 92.9 14.73C92.7358 14.6525 92.5602 14.6019 92.38 14.58C92.1636 14.564 91.9464 14.564 91.73 14.58H91.1L91.13 13.68Z" fill="#141A27"/>
<path d="M98.31 11.17V13.31C98.31 13.8 98.31 14.24 98.31 14.63C98.31 15.02 98.31 15.43 98.25 15.86L98.72 14.93L99.19 14L100.68 11.14H102.42V17.14H101.15V15.07C101.15 14.62 101.15 14.18 101.15 13.73C101.15 13.28 101.15 12.83 101.22 12.37H101.16C101.04 12.7115 100.9 13.0454 100.74 13.37C100.6 13.64 100.46 13.93 100.32 14.22L99.55 15.71C99.2967 16.21 99.03 16.72 98.75 17.24H97V11.24H98.28L98.31 11.17Z" fill="#141A27"/>
<path d="M109.5 11.17V12.28H107.66V17.21H106.34V12.28H104.51V11.17H109.5Z" fill="#141A27"/>
<path d="M116.33 14.24C116.33 14.14 116.33 14.03 116.33 13.91C116.334 13.5128 116.273 13.1177 116.15 12.74C116.046 12.406 115.876 12.0965 115.65 11.83C115.434 11.5795 115.164 11.3812 114.86 11.25C114.543 11.117 114.203 11.0489 113.86 11.05C113.453 11.0443 113.05 11.1297 112.68 11.3C112.335 11.4605 112.029 11.6923 111.78 11.98C111.527 12.2748 111.33 12.6138 111.2 12.98C111.063 13.3962 110.996 13.832 111 14.27C110.994 14.6951 111.061 15.1181 111.2 15.52C111.322 15.8919 111.524 16.233 111.79 16.52C112.059 16.7897 112.383 16.9978 112.74 17.13C113.146 17.2818 113.577 17.3564 114.01 17.35C114.695 17.363 115.375 17.2372 116.01 16.98L115.8 16.05C115.278 16.2426 114.726 16.3375 114.17 16.33C113.674 16.3475 113.189 16.18 112.81 15.86C112.633 15.6895 112.494 15.4841 112.401 15.2568C112.308 15.0296 112.264 14.7855 112.27 14.54H116.27C116.276 14.4468 116.276 14.3532 116.27 14.26L116.33 14.24ZM114.72 12.41C114.96 12.7439 115.08 13.1493 115.06 13.56H112.27C112.295 13.1382 112.46 12.7368 112.74 12.42C112.863 12.2761 113.017 12.1612 113.19 12.0835C113.363 12.0057 113.55 11.967 113.74 11.97C113.927 11.9606 114.113 11.9955 114.283 12.072C114.453 12.1485 114.603 12.2644 114.72 12.41V12.41Z" fill="#141A27"/>
<path d="M121.75 11.22C121.99 11.22 122.3 11.15 122.67 11.12C123.04 11.09 123.43 11.12 123.81 11.12C124.19 11.12 124.37 11.12 124.65 11.12C124.954 11.1466 125.254 11.2139 125.54 11.32C125.811 11.4169 126.055 11.5782 126.25 11.79C126.451 12.0226 126.554 12.3232 126.54 12.63C126.542 12.7928 126.51 12.9543 126.447 13.1041C126.383 13.2539 126.289 13.3887 126.17 13.5C126.055 13.6104 125.924 13.7016 125.78 13.77C125.637 13.8386 125.486 13.889 125.33 13.92V13.92C125.724 13.9728 126.095 14.1357 126.4 14.39C126.539 14.5154 126.648 14.6703 126.719 14.8434C126.79 15.0165 126.821 15.2033 126.81 15.39C126.826 15.7559 126.7 16.1138 126.46 16.39C126.222 16.6425 125.927 16.8345 125.6 16.95C125.252 17.0767 124.889 17.1574 124.52 17.19C124.15 17.19 123.81 17.24 123.52 17.24H122.52L121.72 17.19V11.19L121.75 11.22ZM123 13.64H123.68C123.876 13.6557 124.074 13.6557 124.27 13.64C124.439 13.6144 124.603 13.5674 124.76 13.5C124.889 13.4459 125.003 13.3599 125.09 13.25C125.171 13.1404 125.214 13.0066 125.21 12.87C125.216 12.748 125.188 12.6266 125.128 12.5203C125.067 12.414 124.978 12.3271 124.87 12.27C124.534 12.1214 124.167 12.0562 123.8 12.08H123.43H123V13.64Z" fill="#141A27"/>
<path d="M66.26 17C66.1792 16.8118 66.1253 16.6132 66.1 16.41C65.8888 16.6385 65.6318 16.8199 65.3458 16.9422C65.0597 17.0646 64.7511 17.1252 64.44 17.12C63.8702 17.1452 63.3123 16.952 62.88 16.58C62.687 16.4128 62.5333 16.2051 62.4296 15.9718C62.3259 15.7385 62.2748 15.4852 62.28 15.23C62.2561 14.9272 62.3096 14.6233 62.4356 14.3468C62.5615 14.0704 62.7558 13.8306 63 13.65C63.6431 13.2508 64.3946 13.0621 65.15 13.11H66.02V12.7C66.0319 12.4134 65.9314 12.1335 65.74 11.92C65.6294 11.813 65.4973 11.731 65.3524 11.6792C65.2075 11.6275 65.0533 11.6073 64.9 11.62C64.6124 11.6079 64.3295 11.6963 64.1 11.87C64.003 11.9392 63.9242 12.0308 63.8702 12.137C63.8163 12.2432 63.7887 12.3609 63.79 12.48H62.41C62.4072 12.1162 62.531 11.7627 62.76 11.48C63.0033 11.1668 63.3237 10.9221 63.69 10.77C64.1053 10.5992 64.5509 10.5141 65 10.52C65.6382 10.4871 66.2668 10.686 66.77 11.08C66.9924 11.2751 67.1687 11.5171 67.2863 11.7886C67.4039 12.0601 67.4598 12.3543 67.45 12.65V15.5C67.431 15.9653 67.5129 16.4293 67.69 16.86V17H66.26ZM64.7 16C64.9761 16.0026 65.2483 15.9337 65.49 15.8C65.7266 15.6757 65.9214 15.4844 66.05 15.25V14H65.28C64.8643 13.9726 64.4499 14.0701 64.09 14.28C63.9616 14.3644 63.8574 14.4806 63.7873 14.6173C63.7172 14.754 63.6837 14.9065 63.69 15.06C63.6853 15.1814 63.707 15.3024 63.7536 15.4146C63.8002 15.5269 63.8706 15.6276 63.96 15.71C64.1652 15.8776 64.4253 15.9631 64.69 15.95L64.7 16Z" fill="#141A27"/>
<path d="M123.49 16.38H123.08V14.58H123.79C124.212 14.5644 124.634 14.6323 125.03 14.78C125.174 14.8352 125.296 14.9349 125.378 15.0644C125.461 15.194 125.5 15.3466 125.49 15.5C125.498 15.6726 125.445 15.8424 125.34 15.98C125.238 16.1023 125.107 16.1983 124.96 16.26C124.794 16.3311 124.619 16.3783 124.44 16.4C124.108 16.4334 123.773 16.4334 123.44 16.4L123.49 16.38Z" fill="white"/>
</g>
<defs>
<clipPath id="clip0">
<rect width="173" height="52" fill="white"/>
</clipPath>
</defs>
</svg>
