<?xml version="1.0" standalone="no"?>
<!DOCTYPE svg PUBLIC "-//W3C//DTD SVG 20010904//EN"
 "http://www.w3.org/TR/2001/REC-SVG-20010904/DTD/svg10.dtd">
<svg xmlns:xlink="http://www.w3.org/1999/xlink" version="1.0" xmlns="http://www.w3.org/2000/svg"
 width="2000.000000pt" height="2000.000000pt" viewBox="0 0 2000.000000 2000.000000"
 preserveAspectRatio="xMidYMid meet">

<g transform="translate(0.000000,2000.000000) scale(0.100000,-0.100000)"
fill="white" opacity='0.4' stroke="none">
<path d="M10850 19299 c-14 -5 -504 -489 -1090 -1074 -586 -586 -1072 -1065
-1081 -1065 -8 0 -23 6 -32 13 -15 11 -18 49 -25 342 -7 303 -9 333 -27 364
-11 19 -33 43 -48 55 l-28 21 -1499 0 -1499 0 -28 -21 c-15 -12 -37 -36 -48
-55 -20 -34 -20 -52 -20 -1542 l0 -1509 -24 -19 c-13 -11 -30 -19 -37 -17 -7
2 -111 98 -231 214 -121 117 -235 221 -254 233 -39 24 -111 28 -146 8 -36 -20
-2104 -2089 -2114 -2115 -13 -35 -11 -100 5 -130 8 -15 445 -457 972 -982 526
-525 1004 -1003 1062 -1062 108 -111 111 -117 76 -163 -14 -19 -30 -20 -322
-25 -343 -6 -363 -9 -409 -79 l-23 -34 0 -1486 c0 -1429 1 -1488 19 -1521 10
-20 36 -44 61 -57 l43 -23 1497 0 1498 0 10 -41 10 -41 -207 -217 c-114 -119
-213 -227 -220 -240 -17 -32 -17 -100 0 -133 20 -38 2087 -2108 2116 -2119 41
-15 104 -10 138 11 18 11 474 464 1015 1008 540 543 1011 1013 1046 1045 65
57 65 57 94 42 17 -9 31 -17 31 -18 1 -1 4 -144 8 -317 6 -293 7 -317 27 -350
11 -19 35 -45 54 -58 l33 -22 1498 2 1499 3 36 36 c25 25 39 50 45 80 4 24 5
676 2 1449 -3 773 -3 1440 1 1483 7 73 9 78 38 93 36 19 12 38 288 -232 107
-105 211 -198 232 -207 43 -20 104 -21 136 -3 13 7 493 482 1068 1057 1128
1128 1078 1072 1055 1156 -9 31 -200 227 -1086 1113 -591 592 -1075 1082
-1075 1091 0 8 6 24 14 35 13 18 36 20 349 29 369 11 359 9 411 79 21 27 21
30 24 1508 l2 1481 -21 44 c-14 30 -33 50 -60 63 -37 20 -66 20 -1548 20 -830
0 -1512 3 -1514 8 -2 4 -7 19 -11 33 -5 24 15 48 208 246 117 121 221 233 230
251 21 41 21 120 -1 152 -9 14 -478 488 -1042 1054 -711 713 -1038 1034 -1066
1047 -44 20 -77 23 -115 8z m-2252 -2277 c-4 -13 1 -18 16 -19 12 -1 15 1 9 4
-7 3 -13 9 -13 14 0 13 82 2 91 -13 7 -11 9 -11 9 0 0 8 6 12 13 9 6 -2 11
-10 9 -16 -2 -9 3 -9 16 -2 25 13 60 3 64 -18 2 -12 15 -16 50 -17 26 0 45 3
42 7 -2 5 -11 6 -19 2 -8 -3 -15 0 -15 6 0 16 91 2 114 -18 11 -9 16 -10 12
-3 -5 8 -1 11 15 9 13 -2 25 -10 27 -17 4 -10 6 -9 14 1 7 10 11 11 14 2 3 -7
12 -9 21 -6 9 4 21 -1 29 -12 13 -17 14 -18 14 -1 0 12 6 16 18 12 9 -2 32 -7
49 -11 18 -4 35 -11 38 -16 4 -5 -2 -6 -12 -3 -15 5 -16 4 -3 -5 11 -8 18 -7
26 4 14 19 59 21 48 3 -5 -8 0 -7 11 2 10 8 16 10 12 3 -4 -6 -3 -14 3 -18 5
-3 10 -1 10 5 0 6 10 8 23 6 12 -3 65 -10 117 -17 52 -7 89 -14 83 -16 -7 -3
-9 -11 -6 -19 4 -12 8 -13 14 -3 6 11 44 13 104 5 95 -12 135 -19 135 -25 0
-9 6 -10 105 -11 42 -1 74 -4 71 -8 -2 -4 10 -7 27 -6 46 1 69 -7 63 -22 -3
-8 1 -14 9 -14 9 0 12 6 8 16 -5 13 -2 15 18 9 13 -5 29 -8 36 -8 7 0 10 -4 8
-8 -3 -3 6 -9 20 -11 13 -3 23 -2 20 2 -4 7 136 -8 144 -16 3 -3 -1 -9 -9 -14
-11 -7 -10 -9 7 -7 12 0 19 5 17 9 -6 10 50 11 60 1 4 -4 21 -9 39 -10 29 -3
64 -8 77 -13 3 -1 23 -2 45 -1 51 1 87 -7 81 -18 -3 -5 2 -15 11 -22 10 -8 14
-9 10 -2 -4 6 -2 13 5 16 7 2 4 3 -6 1 -13 -2 -16 0 -9 7 18 18 48 6 45 -16
-3 -19 -3 -19 10 -3 18 23 97 14 93 -11 -1 -9 0 -10 2 -2 4 10 18 11 61 6 70
-9 88 -15 71 -25 -7 -5 -2 -7 14 -7 14 1 23 5 20 10 -2 4 1 7 6 7 6 0 11 -4
11 -10 0 -5 6 -7 14 -4 7 3 53 -2 102 -10 49 -9 111 -16 137 -16 27 0 46 -4
43 -8 -3 -4 8 -7 22 -6 29 2 137 -13 162 -23 8 -3 26 -5 40 -4 34 2 -126 -55
-178 -64 -118 -20 -2 -25 546 -25 569 0 588 -1 612 -20 21 -17 23 -21 10 -30
-13 -8 -12 -10 3 -10 9 0 17 -4 17 -10 0 -5 6 -9 13 -7 6 1 11 -4 10 -10 -2
-7 1 -13 6 -13 5 0 13 -9 16 -21 4 -12 21 -34 38 -49 26 -23 29 -30 19 -43
-10 -12 -10 -16 3 -21 9 -3 13 -2 10 4 -3 6 -2 10 3 10 5 0 17 -18 28 -39 10
-22 23 -37 27 -34 5 3 11 -4 14 -16 3 -12 9 -21 14 -21 4 0 14 -10 20 -22 9
-19 9 -21 -2 -10 -7 6 -20 12 -29 11 -13 0 -13 -1 0 -6 25 -10 60 -40 53 -47
-3 -3 1 -6 10 -6 19 0 22 -11 7 -26 -7 -7 -6 -11 4 -11 8 0 13 5 10 11 -6 11
23 -22 51 -59 9 -11 13 -25 11 -32 -3 -7 -1 -12 3 -10 13 3 91 -89 91 -108 0
-9 -4 -13 -10 -10 -6 3 -7 -1 -3 -10 4 -11 8 -13 12 -6 5 7 20 -2 40 -23 18
-19 31 -39 27 -44 -3 -5 3 -12 14 -15 11 -3 20 -13 20 -22 0 -9 -4 -13 -10
-10 -6 3 -7 -1 -3 -10 4 -13 8 -14 14 -4 4 8 10 11 12 9 2 -3 19 -26 37 -52
18 -27 37 -48 42 -48 5 0 6 -5 3 -10 -4 -6 -11 -7 -17 -4 -7 4 -8 2 -4 -5 4
-6 12 -9 17 -6 5 4 9 -5 9 -19 0 -14 4 -27 9 -30 5 -4 7 4 4 16 -4 21 -3 22 8
4 6 -10 27 -35 45 -54 19 -20 34 -41 34 -47 0 -6 13 -26 30 -45 16 -18 27 -37
23 -43 -3 -6 -1 -7 5 -4 11 8 72 -77 72 -100 0 -8 5 -11 10 -8 6 3 10 2 10 -4
0 -5 -8 -12 -17 -14 -11 -3 -6 -5 11 -6 21 -1 27 -5 22 -16 -3 -8 -1 -16 4
-16 6 -1 14 -2 19 -3 5 0 13 -5 18 -10 5 -5 3 -6 -4 -2 -21 12 -14 -8 7 -22
12 -7 17 -18 13 -27 -3 -10 -1 -15 8 -13 7 2 14 -7 15 -19 2 -36 5 -39 13 -20
6 16 11 14 34 -20 28 -40 36 -70 15 -57 -7 5 -8 3 -4 -5 5 -7 14 -10 22 -7 8
3 19 -4 25 -16 7 -13 7 -18 1 -14 -6 3 -13 2 -17 -4 -3 -5 0 -10 7 -10 8 0 23
-7 34 -15 18 -14 18 -14 -4 -10 -12 2 -20 0 -17 -6 4 -5 18 -9 32 -9 22 0 25
-4 21 -25 -4 -20 -2 -23 8 -15 9 8 14 6 19 -9 3 -12 12 -21 18 -21 7 0 3 -7
-7 -15 -19 -15 -19 -15 2 -15 11 0 26 -8 31 -17 6 -10 11 -14 11 -10 0 5 5 5
12 1 8 -5 6 -10 -8 -15 -17 -7 -17 -8 4 -8 13 -1 20 -5 17 -11 -4 -6 -11 -7
-17 -4 -7 4 -8 2 -4 -4 4 -6 14 -8 24 -5 15 6 15 5 3 -10 -12 -15 -11 -17 7
-17 12 0 24 -5 28 -12 5 -8 2 -9 -10 -5 -10 4 -15 3 -11 -3 3 -6 10 -10 16
-10 11 0 52 -40 42 -41 -5 0 1 -4 12 -9 19 -8 19 -9 -3 -9 -14 -1 -20 -5 -17
-12 4 -6 13 -8 20 -5 7 2 20 -3 29 -13 18 -20 21 -36 6 -26 -5 3 -10 4 -10 0
0 -3 12 -10 26 -16 15 -5 24 -12 21 -16 -4 -3 3 -15 15 -25 19 -16 20 -21 8
-30 -13 -8 -12 -9 2 -5 24 8 47 -21 27 -34 -11 -8 -10 -9 6 -7 14 2 21 -3 23
-19 2 -13 10 -23 18 -23 8 0 14 -4 14 -10 0 -5 -8 -7 -17 -3 -10 3 -6 -3 9
-15 14 -12 32 -22 38 -22 9 0 9 -5 -1 -17 -12 -15 -12 -16 5 -10 14 6 17 4 12
-8 -3 -8 -1 -15 5 -15 14 0 59 -50 59 -67 0 -8 4 -12 9 -9 5 3 11 -1 14 -9 4
-10 1 -12 -11 -8 -9 3 -2 -4 16 -16 17 -11 32 -25 32 -31 0 -6 11 -22 25 -36
14 -14 25 -27 25 -29 0 -7 -51 14 -85 34 -65 39 -145 80 -145 74 0 -3 194
-201 430 -439 380 -383 454 -464 422 -464 -5 0 -8 -10 -7 -22 3 -39 -5 -51
-24 -36 -14 11 -14 11 -4 -3 7 -9 9 -20 5 -24 -4 -5 -1 -5 6 -1 13 8 18 -25 5
-38 -5 -4 -9 -20 -10 -34 -5 -49 -6 -52 -25 -52 -11 0 -17 -4 -13 -10 3 -5 13
-6 23 -3 13 5 14 3 5 -7 -6 -7 -9 -19 -6 -26 3 -8 2 -26 -1 -40 -5 -19 -11
-24 -24 -20 -16 6 -16 5 0 -7 16 -13 16 -15 1 -37 -9 -13 -11 -20 -5 -16 8 4
12 0 12 -11 0 -30 -12 -63 -20 -58 -5 3 -11 1 -15 -5 -3 -5 2 -10 12 -11 16 0
16 -1 -2 -9 -11 -5 -14 -9 -7 -9 19 -1 14 -21 -5 -22 -17 -1 -17 -2 0 -6 9 -2
17 -8 17 -13 0 -5 -8 -6 -17 -3 -16 6 -17 5 -3 -12 9 -11 10 -16 3 -11 -7 4
-13 2 -13 -3 0 -6 6 -11 13 -12 10 0 10 -2 0 -6 -7 -2 -13 -16 -13 -29 0 -14
4 -22 10 -19 6 3 10 -3 10 -14 0 -12 -6 -21 -14 -21 -8 0 -18 -4 -21 -10 -3
-6 1 -7 9 -4 12 5 16 -1 16 -21 0 -14 -4 -24 -9 -21 -5 4 -7 -4 -3 -16 4 -17
2 -20 -11 -15 -9 3 -19 2 -22 -3 -4 -6 3 -10 14 -10 28 0 27 -20 0 -27 -21 -6
-21 -7 -4 -20 14 -9 15 -13 4 -13 -12 0 -12 -2 1 -10 12 -8 11 -10 -7 -10 -13
0 -23 -4 -23 -10 0 -5 6 -7 14 -4 10 4 14 -2 12 -20 -1 -18 -7 -26 -18 -26
-11 0 -18 -7 -17 -17 0 -11 3 -13 6 -5 7 19 19 14 19 -8 0 -11 -4 -20 -9 -20
-5 0 -5 -14 -2 -32 6 -26 5 -30 -9 -25 -9 4 -16 2 -16 -3 0 -6 5 -10 10 -10
17 0 11 -28 -7 -40 -17 -11 -17 -11 1 -6 14 5 17 2 12 -10 -3 -8 -6 -20 -6
-25 0 -6 -4 -8 -9 -4 -5 3 -13 1 -16 -5 -4 -6 -2 -9 3 -8 10 3 12 -1 12 -28 0
-8 -4 -12 -10 -9 -5 3 -10 1 -10 -4 0 -6 5 -11 10 -11 6 0 10 -5 10 -11 0 -6
-7 -9 -15 -5 -8 3 -15 1 -15 -4 0 -6 4 -10 8 -10 5 0 9 -7 9 -15 0 -8 -5 -15
-11 -15 -6 0 -5 -5 2 -12 8 -8 9 -15 1 -25 -8 -9 -8 -13 0 -13 6 0 11 -10 11
-21 0 -16 -5 -20 -20 -16 -11 3 -20 1 -20 -4 0 -5 6 -9 13 -9 7 0 13 -9 14
-20 1 -11 -2 -20 -7 -20 -5 0 -6 -7 -3 -17 4 -9 2 -14 -3 -10 -6 3 -16 2 -24
-4 -12 -7 -10 -9 9 -9 19 0 22 -4 17 -22 -3 -13 -6 -28 -6 -35 0 -7 -7 -10
-17 -6 -15 5 -16 3 -5 -8 20 -22 15 -49 -10 -50 l-23 -2 22 -4 c24 -5 21 -33
-2 -33 -8 0 -17 -5 -20 -10 -4 -6 -3 -10 2 -9 19 3 33 -2 33 -12 0 -5 -4 -8
-9 -4 -5 3 -12 1 -16 -5 -3 -5 -1 -10 4 -10 6 0 11 -7 11 -15 0 -8 -5 -15 -11
-15 -5 0 -7 6 -3 13 4 6 3 8 -1 4 -17 -15 -14 -36 3 -30 13 5 14 3 5 -7 -6 -7
-9 -19 -5 -28 4 -11 1 -14 -11 -9 -9 3 -17 2 -17 -2 0 -5 6 -11 13 -14 11 -4
12 -16 4 -61 -6 -30 -14 -53 -18 -50 -4 2 -10 0 -14 -6 -3 -5 0 -10 8 -10 20
0 9 -60 -12 -61 -14 -1 -13 -2 2 -6 9 -2 17 -9 17 -14 0 -5 -8 -10 -17 -10
-16 -1 -17 -2 -1 -6 18 -4 14 -31 -6 -45 -7 -6 -6 -11 4 -18 8 -5 10 -10 4
-10 -7 0 -11 -16 -10 -37 1 -23 -4 -38 -11 -38 -6 0 -15 -4 -20 -8 -4 -5 -2
-7 6 -5 7 2 15 -7 17 -19 3 -16 -1 -23 -14 -24 -10 0 -12 -3 -4 -6 19 -7 14
-26 -5 -19 -16 5 -15 4 1 -9 13 -10 16 -18 9 -27 -5 -7 -11 -33 -12 -58 -2
-59 -9 -80 -27 -80 -8 0 -14 -5 -14 -10 0 -6 3 -9 8 -9 17 3 23 -2 15 -13 -4
-7 -8 -20 -8 -28 0 -8 -6 -25 -13 -37 -8 -15 -9 -23 -2 -23 5 0 10 -10 10 -21
0 -19 -2 -20 -17 -8 -16 12 -17 12 -6 -1 15 -20 13 -60 -4 -60 -7 0 -13 -5
-13 -11 0 -5 5 -7 10 -4 6 3 10 1 10 -4 0 -6 -6 -11 -14 -11 -9 0 -12 -8 -8
-25 2 -14 8 -25 13 -25 5 0 9 -7 9 -16 0 -9 -5 -12 -12 -8 -8 5 -9 -2 -5 -24
4 -21 3 -32 -4 -32 -7 0 -7 -6 2 -17 11 -15 9 -14 -9 1 -22 19 -22 19 -20 -7
1 -14 6 -23 10 -21 20 13 18 -28 -2 -44 -21 -17 -21 -19 -5 -35 9 -9 12 -17 6
-17 -5 0 -16 -6 -24 -14 -12 -12 -16 -7 -26 37 -26 113 -43 161 -52 145 -5 -9
-9 -279 -9 -601 -1 -577 -1 -585 -20 -580 -11 3 -20 0 -20 -6 0 -6 7 -11 17
-11 9 0 14 -3 10 -6 -3 -3 -8 -5 -12 -4 -4 1 -19 -10 -35 -25 -18 -17 -30 -23
-34 -16 -4 6 -1 11 7 11 8 0 21 7 28 17 12 14 12 15 -1 10 -8 -4 -23 -10 -32
-13 -10 -4 -18 -10 -18 -14 0 -5 -8 -11 -17 -13 -13 -3 -10 -5 7 -6 l25 -1
-25 -20 c-14 -11 -32 -19 -40 -19 -8 0 -4 5 9 10 13 5 21 12 18 15 -10 11 -48
-17 -45 -34 2 -11 -5 -18 -20 -20 -12 -2 -20 -8 -17 -13 4 -5 2 -9 -4 -9 -5 0
-12 6 -14 13 -3 6 -6 2 -6 -9 -1 -12 -8 -25 -17 -28 -12 -5 -15 -2 -10 10 5
14 4 15 -8 5 -8 -7 -13 -18 -11 -24 7 -17 -5 -30 -38 -45 -23 -10 -27 -10 -22
0 4 7 0 5 -8 -5 -11 -14 -16 -15 -21 -5 -3 7 -5 4 -3 -7 2 -11 -2 -26 -10 -33
-10 -10 -13 -10 -13 3 0 12 -4 14 -19 5 -13 -7 -18 -17 -14 -32 3 -16 2 -19
-5 -10 -7 11 -10 11 -15 -2 -4 -9 -17 -16 -29 -17 -13 0 -17 -3 -10 -6 6 -2
10 -9 7 -13 -3 -5 -12 -7 -20 -4 -8 4 -12 11 -8 17 3 5 1 7 -5 4 -5 -4 -8 -16
-5 -27 4 -14 0 -20 -11 -20 -9 0 -16 -5 -16 -11 0 -5 -8 -9 -18 -7 -11 2 -18
-1 -18 -7 1 -5 6 -9 11 -7 6 1 2 -4 -8 -12 -11 -8 -26 -12 -35 -9 -9 4 -13 2
-9 -4 4 -6 -1 -17 -10 -24 -15 -12 -16 -12 -10 4 7 18 6 18 -25 0 -17 -10 -33
-24 -36 -32 -3 -8 0 -11 7 -7 7 5 9 1 4 -10 -6 -16 -7 -16 -19 0 -7 10 -15 13
-18 7 -3 -5 0 -12 6 -14 10 -4 10 -8 -2 -16 -8 -5 -18 -7 -22 -5 -4 3 -8 -2
-8 -11 0 -13 -6 -16 -25 -11 -14 4 -25 2 -25 -4 0 -5 5 -10 12 -10 8 0 7 -6
-4 -16 -12 -13 -20 -14 -37 -5 -22 12 -28 3 -11 -17 6 -6 7 -10 4 -7 -4 3 -13
-3 -20 -13 -11 -13 -15 -14 -22 -4 -7 9 -13 8 -27 -8 -18 -20 -18 -21 1 -15
19 7 19 6 0 -9 -11 -9 -28 -16 -38 -16 -11 0 -18 -7 -18 -20 0 -11 -3 -19 -7
-18 -5 1 -21 -4 -36 -10 -16 -7 -33 -12 -38 -12 -5 0 -9 -7 -9 -16 0 -8 -4
-13 -9 -10 -5 3 -8 -2 -7 -11 0 -9 -5 -18 -11 -20 -7 -3 -13 4 -14 14 0 12 -5
8 -14 -13 -11 -24 -22 -33 -49 -38 -20 -4 -42 -14 -51 -22 -8 -9 -15 -13 -15
-9 0 3 -5 3 -11 -1 -8 -4 -7 -9 2 -15 11 -7 11 -9 1 -9 -7 0 -11 -4 -7 -9 3
-5 1 -12 -5 -16 -5 -3 -10 1 -10 10 0 9 -4 14 -9 10 -6 -3 -8 -14 -6 -25 2
-13 -2 -20 -11 -20 -9 0 -12 5 -8 11 4 8 0 8 -15 0 -11 -7 -21 -16 -21 -20 0
-5 -7 -8 -16 -7 -9 0 -19 -5 -22 -13 -3 -10 0 -12 12 -8 10 4 15 3 11 -3 -3
-6 -13 -10 -21 -10 -8 0 -14 -7 -14 -15 0 -19 -37 -38 -61 -32 -10 3 -22 1
-25 -4 -3 -5 1 -9 8 -10 7 0 3 -4 -9 -9 -13 -5 -23 -16 -23 -25 0 -8 -2 -15
-4 -15 -2 0 -11 -3 -20 -6 -9 -3 -16 -1 -16 5 0 6 5 10 11 9 6 -2 13 5 14 15
3 18 3 18 -16 1 -10 -9 -19 -25 -19 -34 0 -24 -11 -32 -26 -19 -11 9 -15 7
-21 -7 -10 -29 -64 -76 -80 -70 -11 5 -17 -5 -15 -26 1 -3 -5 -9 -13 -12 -8
-3 -13 0 -11 7 1 7 1 9 -1 4 -3 -4 -9 -5 -14 -2 -5 4 -6 -1 -3 -9 8 -21 -25
-34 -37 -15 -8 12 -13 6 -11 -12 1 -4 -10 -10 -23 -13 -14 -4 -25 -11 -25 -18
0 -6 -8 -17 -17 -24 -17 -13 -17 -14 2 -8 16 4 17 3 5 -4 -8 -6 -24 -12 -35
-14 -11 -1 -24 -9 -30 -16 -5 -7 -21 -14 -34 -17 -31 -6 -37 -13 -23 -27 9 -9
12 -9 12 0 0 7 5 12 11 12 8 0 8 -4 -1 -15 -9 -10 -17 -12 -30 -5 -19 10 -47
-10 -33 -23 3 -4 1 -7 -5 -7 -7 0 -12 -7 -12 -16 0 -8 -4 -12 -10 -9 -5 3 -10
0 -10 -7 0 -9 -3 -9 -10 2 -8 13 -10 12 -10 -4 0 -11 -5 -16 -13 -13 -8 3 -20
1 -28 -5 -11 -8 -9 -8 6 -4 19 6 18 5 -2 -13 -12 -10 -19 -22 -15 -26 4 -4 0
-5 -8 -3 -8 3 -14 11 -12 17 1 7 -2 10 -7 6 -6 -3 -8 -12 -4 -20 5 -14 -14
-21 -41 -16 -5 1 -6 -5 -3 -13 8 -19 -38 -62 -48 -45 -6 8 -4 10 5 4 8 -5 11
-4 6 3 -4 6 -14 8 -22 5 -12 -4 -12 -8 -4 -13 15 -9 4 -30 -16 -30 -8 0 -22
-9 -32 -21 -17 -20 -85 -69 -98 -69 -3 0 -4 5 -2 11 2 6 7 10 11 10 17 -3 67
31 67 44 0 9 -6 12 -15 9 -8 -4 -13 -9 -10 -13 2 -4 -2 -8 -10 -8 -20 0 -20 0
21 73 20 36 34 67 31 70 -3 3 -173 -160 -379 -363 -424 -419 -459 -453 -464
-453 -2 0 -5 8 -5 18 -1 16 -2 16 -6 0 -5 -21 -33 -24 -33 -4 0 8 -6 16 -13
19 -8 3 -14 -1 -14 -9 0 -7 4 -11 9 -8 4 3 8 0 8 -6 0 -7 -8 -9 -22 -4 -13 4
-31 8 -40 8 -10 0 -18 6 -18 13 0 10 5 11 19 3 11 -6 22 -6 25 -1 10 15 -44
19 -59 5 -7 -8 -23 -14 -35 -14 -20 0 -20 1 -4 17 12 12 13 18 4 21 -7 3 -16
-2 -21 -9 -10 -16 -58 -20 -76 -7 -6 5 -20 9 -30 8 -43 -5 -71 1 -77 16 -5 13
-3 14 6 6 14 -11 88 -13 88 -2 0 4 -15 7 -32 7 -18 0 -49 3 -70 7 -24 5 -39 3
-44 -5 -5 -9 -2 -10 12 -5 14 5 16 4 7 -5 -13 -13 -37 -3 -28 12 4 5 -1 9 -10
9 -9 0 -13 -4 -10 -10 3 -5 -1 -10 -9 -10 -9 0 -16 7 -16 16 0 11 -5 14 -17 9
-28 -12 -56 -13 -78 -4 -11 4 -14 8 -7 8 7 1 11 5 7 10 -3 6 -18 6 -38 0 -46
-13 -57 -11 -51 9 5 15 4 15 -5 1 -9 -15 -22 -16 -88 -7 -9 1 -10 5 -2 14 7 8
7 14 -1 19 -5 3 -14 -4 -19 -17 -9 -22 -10 -22 -10 -2 -1 15 -9 23 -26 26 -25
5 -36 -7 -13 -14 7 -3 6 -7 -5 -11 -12 -5 -17 -1 -17 13 0 13 -6 20 -17 19
-11 0 -13 -3 -5 -6 16 -6 5 -23 -15 -23 -11 0 -14 6 -10 21 4 16 3 18 -8 9 -8
-7 -14 -7 -17 -1 -1 5 -15 13 -31 16 -22 6 -26 4 -21 -9 3 -9 10 -14 14 -11 5
3 11 1 14 -4 5 -8 -17 -8 -34 0 -3 1 -14 2 -25 3 -13 1 -19 7 -19 19 1 9 -2
17 -7 17 -5 0 -9 -7 -9 -15 0 -8 -5 -15 -11 -15 -6 0 -8 7 -5 16 4 10 2 14 -6
11 -7 -2 -12 -10 -10 -16 3 -16 -9 -13 -25 7 -8 9 -12 11 -8 5 10 -20 -13 -15
-24 5 -6 10 -11 12 -11 4 0 -18 -69 -12 -80 8 -7 12 -13 13 -27 4 -14 -9 -21
-8 -31 5 -8 9 -11 11 -8 4 5 -8 -2 -11 -21 -9 -39 5 -40 5 -23 16 12 7 10 9
-7 8 -12 -1 -19 -7 -16 -15 8 -21 -17 -15 -39 10 -11 12 -17 17 -14 10 4 -6 2
-15 -4 -18 -14 -9 -42 14 -33 28 3 6 1 7 -6 3 -6 -4 -18 -2 -26 4 -8 7 -15 10
-15 7 0 -3 -13 -2 -29 3 -19 5 -33 4 -40 -3 -8 -8 -11 -8 -11 2 0 7 -5 9 -10
6 -6 -4 -8 -10 -6 -14 3 -3 -4 -7 -14 -7 -10 0 -16 4 -14 8 3 4 -11 5 -31 3
-21 -3 -35 -1 -35 6 0 5 -4 7 -10 4 -5 -3 -10 -2 -10 4 0 5 6 11 13 14 6 3 2
4 -11 4 -14 -1 -21 -6 -18 -14 3 -7 -1 -13 -9 -13 -19 0 -28 17 -13 23 9 4 8
6 -2 6 -9 1 -21 -4 -28 -11 -9 -9 -12 -9 -12 3 0 12 -2 12 -10 -1 -5 -8 -10
-10 -10 -5 0 6 -23 11 -51 11 -28 1 -54 6 -58 11 -3 5 -13 8 -21 8 -8 -1 -21
4 -29 9 -11 8 -13 8 -8 -1 6 -9 -9 -11 -60 -7 -37 3 -74 9 -83 14 -8 4 -23 6
-32 5 -10 -2 -20 0 -23 5 -3 4 -14 6 -25 3 -12 -3 -20 0 -20 6 0 7 -5 9 -10 6
-6 -4 -18 -1 -27 7 -14 11 -16 11 -9 -1 7 -10 3 -12 -15 -6 -13 4 -28 8 -34 9
-5 0 -13 6 -17 11 -5 6 -8 5 -8 -4 0 -10 -4 -11 -12 -3 -7 6 -17 12 -23 14 -5
1 -9 8 -7 13 1 6 -4 2 -11 -7 -13 -16 -15 -16 -32 0 -10 9 -15 11 -11 5 9 -16
-30 -18 -39 -3 -4 6 -12 10 -18 9 -35 -4 -58 2 -51 14 4 6 4 9 -1 5 -4 -4 -15
-2 -24 5 -14 11 -14 10 -2 -5 12 -16 11 -18 -3 -18 -9 0 -16 8 -17 18 0 10 -3
12 -6 5 -7 -19 -40 -16 -53 5 -11 16 -11 16 -6 0 3 -10 1 -18 -4 -18 -6 0 -11
8 -11 18 -1 16 -2 16 -6 0 -3 -13 -10 -15 -26 -9 -12 4 -28 6 -35 4 -7 -3 -10
1 -6 10 3 8 1 18 -5 22 -6 3 -9 0 -5 -8 6 -18 -12 -32 -21 -17 -4 6 -11 8 -16
5 -5 -4 -9 0 -9 7 0 9 -3 9 -10 -2 -7 -12 -10 -12 -10 -1 0 7 -6 11 -15 7 -10
-4 -15 1 -15 15 0 22 32 38 93 46 20 3 37 10 37 14 0 5 -143 9 -318 9 -175 0
-468 3 -650 7 -313 6 -332 7 -332 25 0 10 -5 18 -11 18 -5 0 -7 -5 -3 -12 4
-7 3 -8 -4 -4 -7 4 -12 13 -12 21 0 7 -5 15 -12 17 -6 2 -11 18 -11 36 0 28
-2 29 -13 14 -12 -15 -13 -15 -14 -1 0 9 -7 20 -16 23 -8 3 -12 11 -9 17 4 6
-3 18 -15 26 -13 9 -20 22 -17 33 3 13 0 17 -9 13 -8 -3 -14 1 -14 10 0 8 -7
17 -15 21 -11 4 -14 13 -9 31 4 15 2 25 -5 25 -6 0 -11 -8 -11 -17 0 -32 -29
22 -35 63 -2 20 -7 40 -11 43 -4 3 -4 -4 -1 -17 3 -12 1 -20 -4 -16 -5 3 -9
12 -9 20 0 8 -5 12 -11 9 -6 -4 -5 2 3 14 9 16 10 23 1 32 -9 9 -11 7 -6 -10
3 -12 1 -21 -6 -21 -6 0 -11 6 -11 14 0 8 -4 16 -8 18 -19 8 -52 67 -45 83 4
13 2 16 -8 13 -21 -7 -49 35 -43 63 5 22 4 22 -8 7 -13 -15 -16 -13 -28 20 -8
20 -15 45 -16 55 -1 10 -5 21 -9 25 -5 4 -5 -1 -2 -10 4 -10 2 -18 -3 -18 -6
0 -10 9 -10 20 0 11 -7 20 -15 20 -10 0 -15 10 -15 28 0 19 -3 23 -9 13 -7
-10 -10 -10 -16 -1 -4 7 -1 16 6 21 13 8 5 13 -14 10 -5 -1 -11 8 -14 19 -3
11 -9 20 -14 20 -5 0 -9 9 -9 20 0 11 -5 19 -12 18 -6 -2 -17 7 -23 19 -7 13
-15 20 -18 16 -6 -6 -11 15 -10 44 1 7 -3 10 -8 7 -8 -5 -13 10 -10 29 1 5 -3
6 -8 3 -11 -7 -62 54 -55 66 3 4 12 5 22 2 15 -5 15 -4 -1 6 -9 6 -14 16 -11
22 4 7 2 8 -5 4 -6 -4 -8 -12 -5 -18 4 -6 1 -9 -7 -6 -8 3 -16 13 -17 23 -3
11 0 15 7 11 8 -5 7 1 -1 19 -11 24 -13 25 -19 8 -6 -13 -8 -14 -9 -3 -2 8 -2
18 -1 23 0 4 -5 6 -11 5 -8 -2 -12 6 -12 20 1 16 -3 22 -12 18 -9 -4 -14 2
-14 17 0 16 -3 18 -9 8 -13 -20 -24 4 -24 48 0 20 -2 28 -4 18 -2 -9 -8 -15
-13 -12 -5 3 -6 13 -3 22 4 10 2 14 -4 10 -15 -9 -53 40 -46 59 3 8 -1 14 -11
14 -9 0 -16 7 -16 15 0 8 -4 15 -10 15 -5 0 -10 7 -10 15 0 8 -4 15 -10 15 -5
0 -10 6 -10 14 0 8 -5 16 -12 18 -7 3 -8 10 -4 17 7 11 10 11 18 0 8 -11 9
-11 5 1 -2 8 -12 14 -22 13 -21 -2 -45 19 -45 40 0 8 -7 20 -15 27 -8 7 -15
21 -15 31 0 11 -6 18 -12 17 -8 -2 -12 5 -10 16 2 12 -1 15 -8 11 -16 -10 -31
15 -24 38 7 22 -13 48 -32 40 -8 -3 -14 0 -14 6 0 6 0 13 0 16 0 3 -8 13 -17
23 -62 65 -75 91 -60 112 6 8 8 12 3 8 -14 -12 -46 11 -40 27 5 11 2 13 -12 8
-14 -5 -16 -3 -11 11 4 9 3 15 -2 12 -10 -7 -41 37 -41 58 0 8 -7 19 -15 23
-8 5 -16 21 -17 36 -1 15 -7 26 -13 25 -5 -2 -12 2 -14 7 -2 6 -12 16 -23 23
-15 11 -17 17 -7 28 10 12 9 17 -1 27 -9 9 -11 9 -6 0 3 -6 2 -14 -3 -17 -10
-7 -45 60 -37 72 2 4 0 14 -6 22 -8 12 -9 11 -4 -3 4 -12 2 -17 -6 -14 -7 2
-12 10 -10 16 1 7 -2 10 -7 6 -13 -7 -34 32 -27 51 3 8 0 13 -7 11 -7 -1 -11
6 -9 17 3 14 -1 17 -12 13 -11 -5 -16 0 -16 14 0 14 4 18 13 12 6 -4 14 -8 17
-9 3 0 27 -11 53 -23 27 -13 50 -21 52 -19 2 1 -181 190 -406 418 -224 228
-406 420 -404 427 2 7 -1 15 -7 19 -7 5 -8 2 -3 -7 6 -11 5 -11 -5 -3 -15 15
-4 57 13 48 9 -5 9 -4 1 5 -7 8 -8 27 -4 52 4 23 5 49 3 60 -3 10 -2 27 2 36
5 10 7 24 6 32 -1 7 2 10 8 7 5 -4 12 -2 16 4 3 5 -1 10 -10 10 -10 0 -13 5
-9 12 5 7 7 25 6 40 -1 15 2 28 7 28 5 0 7 9 4 20 -3 11 0 26 6 33 6 8 7 18 3
22 -4 5 1 5 10 2 12 -4 15 -2 11 8 -3 8 -10 12 -16 8 -7 -4 -8 0 -3 13 4 10
10 42 13 69 2 28 7 57 10 65 7 17 9 32 11 78 2 23 7 32 20 32 10 0 13 3 7 8
-6 4 -9 18 -8 32 2 14 4 51 6 82 1 31 5 60 9 63 4 4 4 14 1 23 -5 11 -3 13 8
7 11 -7 12 -6 2 7 -7 8 -10 18 -6 22 8 8 14 41 13 78 0 15 4 29 9 32 5 4 7 20
5 36 -4 20 -1 30 7 30 7 0 9 3 6 7 -4 3 1 16 10 27 15 17 15 19 1 8 -15 -12
-16 -9 -11 30 3 24 10 46 16 49 5 4 6 12 2 18 -4 7 -3 20 1 29 4 9 8 28 9 42
1 14 6 48 10 75 5 28 7 54 6 59 -1 5 6 17 15 27 10 11 12 19 6 19 -8 0 -12 18
-12 48 0 34 3 43 10 32 5 -8 10 -13 11 -10 0 3 2 13 4 23 2 9 -1 15 -6 11 -5
-3 -9 0 -9 5 0 6 4 11 9 11 4 0 6 12 3 26 -4 20 -2 25 8 19 9 -6 10 -3 1 12
-6 11 -9 22 -6 24 2 3 6 23 9 47 6 53 12 63 34 56 15 -5 15 -4 -1 9 -15 12
-18 24 -13 54 3 21 5 46 6 56 0 11 4 15 12 11 7 -4 8 -3 4 4 -4 6 -2 21 5 33
8 16 8 20 -1 14 -14 -9 -2 67 13 76 5 4 6 12 3 18 -4 6 -2 11 5 11 9 0 9 3 0
14 -9 11 -8 15 5 20 13 5 15 9 6 18 -15 15 -16 48 -1 48 6 0 7 5 2 13 -13 20
-12 39 1 34 7 -3 13 1 13 9 0 7 -5 11 -10 7 -5 -3 -1 7 9 23 14 21 15 26 3 17
-13 -11 -14 -4 -4 59 7 48 15 73 25 75 13 4 13 3 0 -6 -8 -5 -11 -13 -7 -18 5
-4 12 -1 17 7 7 10 5 18 -5 26 -9 6 -12 20 -9 35 2 13 7 44 10 69 3 25 8 52
12 60 3 8 6 24 7 35 3 55 18 126 27 132 7 4 8 1 3 -7 -5 -9 -4 -11 4 -6 8 5 9
12 3 19 -5 7 -8 47 -7 90 5 125 19 119 65 -28 18 -55 36 -104 41 -110 5 -5 10
234 10 588 1 328 2 602 3 608 0 6 22 21 48 33 26 13 45 25 43 28 -3 3 7 13 22
23 15 10 34 25 42 32 7 8 20 12 28 9 8 -3 12 -2 9 3 -3 4 14 22 37 39 23 16
53 39 66 51 25 22 47 28 36 11 -3 -6 1 -7 10 -3 12 4 13 8 4 13 -8 6 -6 11 8
19 11 5 24 7 28 3 3 -4 5 -2 3 4 -4 16 64 75 79 69 7 -2 17 5 23 16 6 11 16
16 22 13 6 -4 8 -3 5 3 -8 13 50 56 65 47 6 -4 8 -3 5 3 -7 10 28 40 47 41 5
0 13 7 18 16 5 9 13 16 18 16 5 0 20 9 32 20 13 12 49 41 81 66 51 39 61 44
75 32 15 -12 16 -11 3 4 -12 16 -10 19 10 27 13 5 28 6 33 3 5 -3 6 1 1 8 -4
7 -2 16 6 21 19 12 31 11 23 -2 -4 -8 0 -8 15 0 25 14 28 23 4 14 -24 -9 -8
12 29 39 17 12 28 17 24 10 -4 -7 -2 -12 3 -12 6 0 11 7 11 15 0 20 37 39 43
22 3 -6 6 -2 6 11 1 12 4 22 9 22 4 0 22 14 40 31 17 16 32 24 32 17 0 -11 2
-11 8 0 5 7 15 11 23 9 8 -2 11 -2 7 0 -5 3 -8 9 -8 14 0 6 5 7 10 4 6 -3 13
1 16 9 3 9 10 13 15 10 5 -3 6 -10 3 -16 -4 -6 -2 -8 4 -5 5 4 8 15 5 26 -6
22 26 38 39 19 7 -10 8 -10 7 2 -3 32 1 42 16 36 9 -3 15 0 15 9 0 8 4 15 10
15 5 0 7 -8 4 -17 -5 -15 -4 -15 4 -3 6 8 9 17 7 21 -7 10 84 71 95 64 6 -4
10 -3 9 2 -3 19 2 25 15 14 10 -9 16 -8 26 4 7 9 10 18 6 22 -3 3 -6 1 -6 -5
0 -7 -5 -12 -11 -12 -8 0 -8 5 1 15 7 8 19 15 26 15 8 0 14 7 14 15 0 8 7 15
15 15 8 0 15 5 15 10 0 10 44 33 65 34 14 1 45 34 46 49 0 9 2 8 6 -1 4 -10 9
-7 17 10 6 12 18 23 26 23 8 0 25 10 37 22 26 27 38 30 29 7 -3 -8 -2 -12 4
-9 6 3 10 14 10 23 0 15 2 15 11 2 9 -12 10 -12 5 4 -4 12 2 25 21 40 15 11
31 20 35 18 5 -1 8 3 8 9 0 5 4 8 9 5 5 -3 12 1 15 10 3 8 9 13 13 11 5 -3 14
1 21 9 7 8 9 14 5 14 -4 0 8 11 27 25 19 14 41 23 48 20 8 -3 16 3 19 14 3 11
12 22 20 25 7 3 11 2 8 -3 -8 -14 9 -21 25 -10 10 6 11 9 3 9 -20 0 -15 24 8
38 12 8 18 9 15 3 -4 -5 -1 -13 6 -17 7 -4 10 -4 6 1 -12 13 10 44 44 61 29
15 30 15 25 -1 -4 -9 -3 -14 3 -10 6 3 10 15 10 25 0 26 33 43 50 27 10 -10
10 -8 1 9 -9 19 -7 23 22 35 17 7 35 18 39 23 5 7 8 7 8 -2 0 -10 3 -10 14 0
7 7 11 19 8 27 -3 9 -1 12 6 7 7 -4 12 -2 12 6 0 10 3 9 10 -2 6 -9 5 -17 -3
-22 -7 -4 -9 -8 -4 -8 8 0 -33 -84 -70 -143 -13 -22 -22 -42 -18 -45 3 -3 196
184 428 416 486 486 485 485 475 444z m242 -37 c0 -8 -4 -15 -10 -15 -5 0 -10
7 -10 15 0 8 5 15 10 15 6 0 10 -7 10 -15z m-1033 -597 c-3 -8 -6 -5 -6 6 -1
11 2 17 5 13 3 -3 4 -12 1 -19z m6253 -2028 c0 -5 -2 -10 -4 -10 -3 0 -8 5
-11 10 -3 6 -1 10 4 10 6 0 11 -4 11 -10z m373 -3980 c-6 -22 -7 -22 -13 -4
-9 23 -1 49 11 37 5 -5 5 -19 2 -33z m-8864 -434 c-3 -3 -11 5 -18 17 -13 21
-12 21 5 5 10 -10 16 -20 13 -22z m471 -677 c0 -6 -4 -7 -10 -4 -5 3 -10 11
-10 16 0 6 5 7 10 4 6 -3 10 -11 10 -16z m7116 -716 c-10 -11 -37 -12 -30 -2
3 5 12 9 21 9 9 0 13 -3 9 -7z m-620 -448 c-3 -20 -16 -31 -16 -13 0 13 8 28
16 28 1 0 1 -7 0 -15z m-172 -136 c-3 -5 -10 -7 -15 -3 -5 3 -7 10 -3 15 3 5
10 7 15 3 5 -3 7 -10 3 -15z m-4034 -470 c0 -24 -30 -23 -38 1 -5 13 -3 13 11
1 15 -12 17 -11 17 3 0 9 2 16 5 16 3 0 5 -9 5 -21z m1365 -209 c-3 -5 2 -10
11 -10 10 0 15 -3 11 -6 -3 -3 -15 -3 -28 1 -17 6 -19 9 -8 16 18 11 22 11 14
-1z"/>
<path d="M8760 16980 c0 -6 7 -10 15 -10 8 0 15 2 15 4 0 2 -7 6 -15 10 -8 3
-15 1 -15 -4z"/>
<path d="M8932 16956 c7 -8 15 -12 17 -11 5 6 -10 25 -20 25 -5 0 -4 -6 3 -14z"/>
<path d="M9738 16833 c7 -3 16 -2 19 1 4 3 -2 6 -13 5 -11 0 -14 -3 -6 -6z"/>
<path d="M10108 16783 c7 -3 16 -2 19 1 4 3 -2 6 -13 5 -11 0 -14 -3 -6 -6z"/>
<path d="M10598 16708 c5 -5 16 -8 23 -6 8 3 3 7 -10 11 -17 4 -21 3 -13 -5z"/>
<path d="M10850 16659 c0 -5 11 -9 25 -9 14 0 25 2 25 4 0 2 -11 6 -25 8 -14
3 -25 1 -25 -3z"/>
<path d="M11388 16578 c5 -5 16 -8 23 -6 8 3 3 7 -10 11 -17 4 -21 3 -13 -5z"/>
<path d="M11438 16573 c6 -2 18 -2 25 0 6 3 1 5 -13 5 -14 0 -19 -2 -12 -5z"/>
<path d="M12467 16469 c4 -13 8 -18 11 -10 2 7 -1 18 -6 23 -8 8 -9 4 -5 -13z"/>
<path d="M12570 16331 c0 -10 19 -25 25 -20 1 2 -3 10 -11 17 -8 7 -14 8 -14
3z"/>
<path d="M7641 16254 c0 -11 3 -14 6 -6 3 7 2 16 -1 19 -3 4 -6 -2 -5 -13z"/>
<path d="M12680 16179 c0 -5 5 -7 10 -4 6 3 10 8 10 11 0 2 -4 4 -10 4 -5 0
-10 -5 -10 -11z"/>
<path d="M7383 16087 c-3 -6 -1 -7 5 -3 5 3 12 1 14 -6 3 -8 6 -7 10 3 7 17
-19 22 -29 6z"/>
<path d="M12885 15911 c-3 -5 -2 -12 3 -15 5 -3 9 1 9 9 0 17 -3 19 -12 6z"/>
<path d="M7116 15891 c-4 -5 -2 -12 3 -15 5 -4 12 -2 15 3 4 5 2 12 -3 15 -5
4 -12 2 -15 -3z"/>
<path d="M12982 15786 c7 -8 15 -12 17 -11 5 6 -10 25 -20 25 -5 0 -4 -6 3
-14z"/>
<path d="M6801 15644 c0 -11 3 -14 6 -6 3 7 2 16 -1 19 -3 4 -6 -2 -5 -13z"/>
<path d="M6160 15181 c0 -7 -4 -10 -8 -7 -5 3 -9 -2 -9 -10 0 -13 2 -13 16 0
8 9 12 19 8 22 -4 4 -7 2 -7 -5z"/>
<path d="M5985 15050 c3 -5 8 -10 11 -10 2 0 4 5 4 10 0 6 -5 10 -11 10 -5 0
-7 -4 -4 -10z"/>
<path d="M13525 15050 c3 -5 11 -10 16 -10 6 0 7 5 4 10 -3 6 -11 10 -16 10
-6 0 -7 -4 -4 -10z"/>
<path d="M5863 14963 c-15 -5 -17 -23 -4 -23 5 0 11 7 15 15 3 8 4 15 3 14 -1
0 -8 -3 -14 -6z"/>
<path d="M5670 14820 c0 -5 5 -10 10 -10 6 0 10 5 10 10 0 6 -4 10 -10 10 -5
0 -10 -4 -10 -10z"/>
<path d="M5576 14755 c-18 -13 -18 -14 2 -12 11 0 19 4 16 8 -2 4 2 10 8 12 7
3 9 6 3 6 -5 0 -18 -6 -29 -14z"/>
<path d="M5327 13644 c-8 -8 1 -24 14 -24 5 0 9 7 9 15 0 15 -12 20 -23 9z"/>
<path d="M5326 13577 c3 -10 9 -15 12 -12 3 3 0 11 -7 18 -10 9 -11 8 -5 -6z"/>
<path d="M5277 13275 c-6 -15 10 -32 20 -21 4 3 1 6 -5 6 -6 0 -9 7 -6 15 4 8
4 15 1 15 -3 0 -7 -7 -10 -15z"/>
<path d="M14820 13130 c0 -6 7 -10 15 -10 8 0 15 2 15 4 0 2 -7 6 -15 10 -8 3
-15 1 -15 -4z"/>
<path d="M14820 13099 c0 -5 5 -7 10 -4 6 3 10 8 10 11 0 2 -4 4 -10 4 -5 0
-10 -5 -10 -11z"/>
<path d="M14806 13035 c-9 -26 -7 -32 5 -12 6 10 9 21 6 23 -2 3 -7 -2 -11
-11z"/>
<path d="M5179 12633 c-13 -16 -12 -17 4 -4 9 7 17 15 17 17 0 8 -8 3 -21 -13z"/>
<path d="M5170 12580 c0 -5 5 -10 11 -10 5 0 7 5 4 10 -3 6 -8 10 -11 10 -2 0
-4 -4 -4 -10z"/>
<path d="M5152 12494 c2 -27 24 -27 25 0 1 12 -1 15 -4 7 -5 -11 -7 -11 -14 0
-6 10 -8 8 -7 -7z"/>
<path d="M5101 12104 c0 -11 3 -14 6 -6 3 7 2 16 -1 19 -3 4 -6 -2 -5 -13z"/>
<path d="M14658 12003 c7 -3 16 -2 19 1 4 3 -2 6 -13 5 -11 0 -14 -3 -6 -6z"/>
<path d="M14638 11873 c7 -3 16 -2 19 1 4 3 -2 6 -13 5 -11 0 -14 -3 -6 -6z"/>
<path d="M14630 11849 c0 -5 5 -7 10 -4 6 3 10 8 10 11 0 2 -4 4 -10 4 -5 0
-10 -5 -10 -11z"/>
<path d="M5045 11770 c3 -5 8 -10 11 -10 2 0 4 5 4 10 0 6 -5 10 -11 10 -5 0
-7 -4 -4 -10z"/>
<path d="M5045 11720 c3 -5 8 -10 11 -10 2 0 4 5 4 10 0 6 -5 10 -11 10 -5 0
-7 -4 -4 -10z"/>
<path d="M5015 11551 c-3 -5 -2 -12 3 -15 5 -3 9 1 9 9 0 17 -3 19 -12 6z"/>
<path d="M14520 11170 c0 -5 7 -10 16 -10 8 0 12 5 9 10 -3 6 -10 10 -16 10
-5 0 -9 -4 -9 -10z"/>
<path d="M4915 10940 c3 -5 8 -10 11 -10 2 0 4 5 4 10 0 6 -5 10 -11 10 -5 0
-7 -4 -4 -10z"/>
<path d="M14420 10504 c0 -14 3 -14 15 -4 8 7 15 14 15 16 0 2 -7 4 -15 4 -8
0 -15 -7 -15 -16z"/>
<path d="M5801 9624 c0 -11 3 -14 6 -6 3 7 2 16 -1 19 -3 4 -6 -2 -5 -13z"/>
<path d="M5930 9430 c0 -5 5 -10 11 -10 5 0 7 5 4 10 -3 6 -8 10 -11 10 -2 0
-4 -4 -4 -10z"/>
<path d="M6060 9251 c0 -6 4 -13 10 -16 6 -3 7 1 4 9 -7 18 -14 21 -14 7z"/>
<path d="M14012 9215 c-11 -12 -10 -15 3 -15 8 0 15 7 15 15 0 18 -2 18 -18 0z"/>
<path d="M6111 9164 c0 -11 3 -14 6 -6 3 7 2 16 -1 19 -3 4 -6 -2 -5 -13z"/>
<path d="M6220 9000 c0 -5 5 -10 11 -10 5 0 7 5 4 10 -3 6 -8 10 -11 10 -2 0
-4 -4 -4 -10z"/>
<path d="M13319 8703 c-13 -15 -12 -15 9 -4 23 12 28 21 13 21 -5 0 -15 -7
-22 -17z"/>
<path d="M6576 8472 c-3 -5 1 -9 9 -9 8 0 12 4 9 9 -3 4 -7 8 -9 8 -2 0 -6 -4
-9 -8z"/>
<path d="M12895 8390 c-3 -5 -2 -10 4 -10 5 0 13 5 16 10 3 6 2 10 -4 10 -5 0
-13 -4 -16 -10z"/>
<path d="M6683 8325 c0 -8 4 -12 9 -9 5 3 6 10 3 15 -9 13 -12 11 -12 -6z"/>
<path d="M6741 8234 c0 -11 3 -14 6 -6 3 7 2 16 -1 19 -3 4 -6 -2 -5 -13z"/>
<path d="M12675 8229 c-4 -6 -5 -12 -2 -15 2 -3 7 2 10 11 7 17 1 20 -8 4z"/>
<path d="M12120 7814 c0 -14 3 -14 15 -4 8 7 15 14 15 16 0 2 -7 4 -15 4 -8 0
-15 -7 -15 -16z"/>
<path d="M12055 7779 c-9 -14 -2 -20 14 -10 8 6 9 11 3 15 -6 3 -14 1 -17 -5z"/>
<path d="M8895 7420 c3 -5 8 -10 11 -10 2 0 4 5 4 10 0 6 -5 10 -11 10 -5 0
-7 -4 -4 -10z"/>
<path d="M8980 7404 c0 -8 5 -12 10 -9 6 4 8 11 5 16 -9 14 -15 11 -15 -7z"/>
<path d="M9130 7380 c0 -5 5 -10 10 -10 6 0 10 5 10 10 0 6 -4 10 -10 10 -5 0
-10 -4 -10 -10z"/>
<path d="M9316 7352 c-2 -4 4 -9 15 -9 10 -1 19 2 19 8 0 11 -27 12 -34 1z"/>
<path d="M9510 7336 c0 -2 7 -9 15 -16 9 -7 15 -8 15 -2 0 5 -7 12 -15 16 -8
3 -15 4 -15 2z"/>
<path d="M10167 7226 c-4 -10 -1 -13 8 -9 8 3 12 9 9 14 -7 12 -11 11 -17 -5z"/>
<path d="M10456 7178 c3 -5 10 -6 15 -3 13 9 11 12 -6 12 -8 0 -12 -4 -9 -9z"/>
<path d="M10921 7103 c0 -11 3 -13 6 -5 2 6 10 9 15 6 7 -4 8 -2 4 4 -11 18
-26 14 -25 -5z"/>
<path d="M2011 3935 c-24 -7 -57 -26 -72 -41 -61 -58 -59 -14 -59 -1319 0
-863 3 -1201 11 -1226 16 -47 53 -84 98 -98 62 -18 1174 -15 1284 4 203 35
356 114 499 257 88 87 102 107 152 210 75 153 90 234 83 427 -6 164 -30 268
-91 389 -94 186 -266 316 -498 376 -153 40 -238 46 -610 46 l-348 0 0 245 0
245 601 0 c395 0 607 4 620 10 18 10 19 23 19 235 0 190 -2 226 -16 239 -14
14 -102 16 -822 15 -652 0 -815 -3 -851 -14z m1192 -1492 c74 -34 121 -76 155
-140 62 -117 62 -243 1 -370 -33 -69 -86 -119 -165 -155 -47 -22 -60 -23 -391
-26 l-343 -3 0 361 0 361 348 -3 c335 -3 349 -4 395 -25z"/>
<path d="M4731 3938 c-192 -27 -365 -138 -454 -291 -48 -82 -87 -219 -97 -340
-12 -145 -12 -1288 0 -1433 11 -136 31 -216 77 -313 48 -101 143 -196 244
-244 155 -73 126 -71 890 -75 622 -3 688 -1 703 13 14 14 16 47 16 239 0 170
-3 226 -13 234 -9 7 -201 12 -592 15 -635 3 -635 3 -691 62 -47 51 -54 96 -54
369 l0 246 569 0 c545 0 570 1 592 19 24 19 24 21 24 224 0 158 -3 208 -14
220 -12 15 -66 17 -592 17 l-579 0 0 178 c0 97 5 195 11 217 16 57 55 104 108
129 45 20 61 21 609 26 486 4 564 7 572 20 5 8 10 110 10 225 0 175 -3 214
-16 233 l-15 22 -622 -1 c-342 -1 -651 -6 -686 -11z"/>
<path d="M6875 3941 c-81 -20 -125 -66 -144 -151 -5 -25 -17 -173 -25 -330
-55 -993 -93 -1328 -171 -1505 -61 -137 -120 -189 -234 -209 -39 -6 -76 -17
-83 -24 -10 -10 -13 -68 -13 -233 0 -209 1 -221 20 -236 16 -12 44 -14 155
-10 209 8 327 53 444 170 83 84 169 223 226 367 31 78 79 273 100 405 30 187
78 727 95 1055 3 63 8 134 11 158 l5 42 380 0 379 0 0 -1084 c0 -973 2 -1086
16 -1100 13 -14 52 -16 270 -16 157 0 263 4 275 10 19 11 19 35 19 1268 0 887
-3 1269 -11 1297 -16 58 -75 110 -139 124 -58 12 -1524 14 -1575 2z"/>
<path d="M10503 3932 c-11 -10 -39 -95 -67 -202 -106 -400 -156 -571 -180
-617 -65 -128 -169 -197 -322 -213 -100 -11 -354 -13 -378 -4 -15 6 -16 57
-16 515 1 280 -2 514 -5 519 -4 6 -110 10 -280 10 -261 0 -275 -1 -285 -19 -7
-13 -10 -446 -10 -1331 0 -885 3 -1318 10 -1331 10 -18 24 -19 285 -19 271 0
274 0 286 22 8 16 9 171 4 605 l-8 585 249 -4 c223 -4 256 -7 316 -26 135 -45
209 -146 272 -374 120 -436 221 -775 234 -790 14 -16 40 -18 277 -18 269 0
285 2 285 40 0 9 -27 115 -59 236 -33 120 -83 307 -111 414 -75 289 -118 428
-151 498 -44 91 -117 160 -228 213 -50 24 -91 47 -91 51 0 4 19 20 43 37 78
53 169 160 214 251 44 87 72 182 203 694 57 226 60 240 44 257 -16 18 -35 19
-266 19 -223 0 -250 -2 -265 -18z"/>
<path d="M12235 3936 c-59 -18 -93 -44 -120 -90 -13 -23 -61 -156 -108 -296
-47 -140 -234 -703 -416 -1251 -182 -548 -331 -1005 -331 -1016 0 -41 12 -43
295 -43 269 0 272 0 292 22 18 21 67 164 149 445 l28 93 447 0 447 0 31 -97
c16 -54 51 -171 78 -261 26 -90 56 -172 66 -183 17 -18 31 -19 304 -17 280 3
286 3 293 24 6 15 -19 102 -85 300 -51 153 -238 716 -415 1249 -177 534 -333
991 -346 1017 -29 57 -74 93 -134 107 -65 15 -425 13 -475 -3z m264 -643 c5
-21 40 -155 76 -298 37 -143 80 -300 95 -350 16 -49 44 -144 64 -210 19 -66
38 -128 41 -137 7 -17 -12 -18 -299 -18 -185 0 -306 4 -306 9 0 6 16 63 36
128 70 228 113 380 179 628 37 138 70 258 72 268 9 30 32 19 42 -20z"/>
<path d="M14004 3941 c-51 -13 -91 -42 -116 -85 l-23 -41 -3 -1267 c-2 -1259
-2 -1268 18 -1288 19 -19 33 -20 279 -20 204 0 261 3 270 13 7 10 12 158 13
488 l3 474 355 6 c380 7 434 12 586 65 149 51 238 107 341 218 275 295 293
829 38 1139 -75 91 -151 149 -269 207 -186 93 -191 93 -871 96 -324 1 -604 -1
-621 -5z m1030 -511 c82 -12 173 -57 218 -109 17 -19 43 -60 57 -91 23 -49 26
-67 26 -165 0 -100 -3 -116 -29 -173 -32 -69 -90 -128 -159 -161 -69 -33 -166
-42 -442 -39 l-260 3 -3 360 c-1 198 0 366 3 372 6 16 483 18 589 3z"/>
<path d="M16008 3939 c-16 -9 -18 -31 -18 -233 0 -196 2 -225 17 -237 13 -11
91 -15 377 -19 l361 -5 3 -1084 c2 -992 4 -1086 19 -1103 15 -17 37 -18 279
-18 260 0 263 0 278 22 14 20 16 141 16 1105 l0 1083 364 0 c343 0 365 1 387
19 24 19 24 20 24 236 0 203 -1 218 -19 231 -17 12 -175 14 -1045 14 -678 -1
-1032 -4 -1043 -11z"/>
</g>
</svg>
