<svg width="174" height="52" viewBox="0 0 174 52" fill="none" xmlns="http://www.w3.org/2000/svg">
<g clip-path="url(#clip0)">
<path d="M167.81 51.56H6.09C4.47473 51.5547 2.92727 50.91 1.78603 49.7669C0.644787 48.6238 0.00263502 47.0753 0 45.46L0 6.09001C0.00264432 4.47565 0.645117 2.92817 1.78664 1.78665C2.92816 0.645126 4.47564 0.00265352 6.09 9.19835e-06H167.81C169.435 -0.00279305 170.996 0.634779 172.155 1.77464C173.313 2.9145 173.976 4.46489 174 6.09001V45.45C173.976 47.0761 173.314 48.6275 172.155 49.7689C170.997 50.9104 169.436 51.5502 167.81 51.55V51.56Z" fill="#A6A6A6"/>
<path d="M172.75 45.46C172.75 46.7702 172.23 48.0267 171.303 48.9531C170.377 49.8796 169.12 50.4 167.81 50.4H6.10002C5.45045 50.4013 4.807 50.2745 4.2065 50.0269C3.60599 49.7792 3.06023 49.4155 2.60045 48.9567C2.14067 48.4978 1.7759 47.9528 1.52701 47.3528C1.27813 46.7528 1.15002 46.1096 1.15002 45.46V6.09002C1.16565 4.78298 1.69249 3.53402 2.61771 2.61067C3.54293 1.68732 4.79295 1.163 6.10002 1.15002H167.81C169.12 1.15002 170.377 1.67049 171.303 2.59692C172.23 3.52335 172.75 4.77986 172.75 6.09002V6.09002V45.46Z" fill="white"/>
<path d="M28.52 29L34.12 25.95C35.24 25.33 35.24 24.33 34.12 23.71L28.52 20.6L24.29 24.77L28.52 29Z" fill="url(#paint0_linear)"/>
<path d="M9.99999 12.72V36.72C9.9752 36.9645 10.0148 37.2113 10.1147 37.4358C10.2147 37.6603 10.3717 37.8548 10.57 38L24.29 24.74L10.7 11.35C10.4657 11.4888 10.2756 11.6912 10.1517 11.9337C10.0278 12.1761 9.97519 12.4488 9.99999 12.72Z" fill="url(#paint1_linear)"/>
<path d="M12.0999 38L28.5299 29L24.2999 24.74L10.5699 38C10.6773 38.0802 10.7998 38.138 10.9299 38.17C11.3277 38.2551 11.7428 38.1948 12.0999 38V38Z" fill="url(#paint2_linear)"/>
<path d="M12.0899 11.54C11.8898 11.3966 11.6576 11.3043 11.4135 11.2712C11.1695 11.238 10.9211 11.2651 10.6899 11.35L24.2899 24.73L28.5099 20.57L12.0899 11.54Z" fill="url(#paint3_linear)"/>
<path d="M144.3 43.67L151.13 27.93H148.9L145.74 35.78L142.49 27.93H140.27L144.76 38.16L142.22 43.67H144.33" fill="#141A27"/>
<path d="M134.78 27.93C133.864 27.8634 132.949 28.0788 132.159 28.5471C131.369 29.0155 130.741 29.7144 130.36 30.55L132.23 31.34C132.518 30.7871 132.977 30.3422 133.539 30.0716C134.1 29.801 134.734 29.7192 135.346 29.8384C135.958 29.9577 136.515 30.2715 136.933 30.7331C137.352 31.1948 137.611 31.7795 137.67 32.4V32.71C136.74 32.2454 135.709 32.0187 134.67 32.05C132.11 32.05 129.89 33.37 129.89 35.82C129.89 38.07 131.73 39.43 133.96 39.43C134.666 39.4559 135.366 39.2993 135.993 38.9752C136.62 38.6511 137.153 38.1705 137.54 37.58H137.63V39.08H139.63V32.56C139.63 29.52 137.45 27.93 134.78 27.93ZM134.34 37.58C133.27 37.58 132.07 37.01 132.07 35.86C132.07 34.86 132.91 33.72 135.07 33.72C135.989 33.6697 136.9 33.915 137.67 34.42C137.615 35.2692 137.241 36.0663 136.624 36.652C136.006 37.2378 135.191 37.5692 134.34 37.58V37.58Z" fill="#141A27"/>
<path d="M126.92 23.69H128.74V39.43H126.92V23.69Z" fill="#141A27"/>
<path d="M120.18 23.69H114.81V39.43H116.81V33.06H120.15C120.79 33.1019 121.432 33.0119 122.037 32.7957C122.641 32.5794 123.194 32.2415 123.662 31.8028C124.131 31.3642 124.504 30.834 124.759 30.2453C125.014 29.6565 125.146 29.0217 125.146 28.38C125.146 27.7383 125.014 27.1035 124.759 26.5147C124.504 25.926 124.131 25.3958 123.662 24.9572C123.194 24.5185 122.641 24.1806 122.037 23.9643C121.432 23.7481 120.79 23.6581 120.15 23.7L120.18 23.69ZM120.18 31.12H116.79V25.63H120.18C120.909 25.63 121.609 25.9197 122.125 26.4355C122.64 26.9512 122.93 27.6507 122.93 28.38C122.93 29.1093 122.64 29.8088 122.125 30.3245C121.609 30.8403 120.909 31.13 120.18 31.13V31.12Z" fill="#141A27"/>
<path d="M100.57 34.07C100.55 33.6832 100.607 33.2963 100.738 32.9317C100.869 32.5672 101.071 32.2323 101.332 31.9466C101.594 31.6609 101.909 31.43 102.261 31.2675C102.613 31.105 102.993 31.0141 103.38 31C103.786 30.9716 104.192 31.0624 104.547 31.2614C104.903 31.4604 105.192 31.7588 105.38 32.12L100.57 34.12V34.07ZM103.57 39.52C104.443 39.5203 105.303 39.3073 106.075 38.8995C106.847 38.4917 107.508 37.9014 108 37.18L106.21 36C105.931 36.4508 105.541 36.8221 105.077 37.0778C104.612 37.3336 104.09 37.4652 103.56 37.46C103.015 37.4834 102.476 37.3436 102.011 37.0585C101.546 36.7735 101.176 36.3562 100.95 35.86L108.14 32.93L107.9 32.33C107.567 31.3649 106.948 30.5246 106.123 29.9222C105.299 29.3197 104.311 28.984 103.29 28.96C102.605 28.9594 101.927 29.0974 101.298 29.3659C100.668 29.6343 100.099 30.0276 99.6249 30.5219C99.1511 31.0163 98.7823 31.6014 98.5409 32.2422C98.2994 32.8829 98.1903 33.5659 98.22 34.25C98.2117 34.9516 98.345 35.6477 98.6118 36.2967C98.8786 36.9456 99.2735 37.5341 99.7729 38.027C100.272 38.5198 100.866 38.907 101.518 39.1652C102.171 39.4235 102.869 39.5475 103.57 39.53V39.52Z" fill="#141A27"/>
<path d="M94.73 39.21H97.09V23.65H94.73V39.21Z" fill="#141A27"/>
<path d="M93.1 38.76C93.1 42.67 90.76 44.27 87.99 44.27C86.9741 44.2804 85.9781 43.9883 85.1287 43.431C84.2793 42.8736 83.6149 42.0761 83.22 41.14L85.28 40.3C85.4978 40.8472 85.8719 41.3183 86.3556 41.6544C86.8393 41.9905 87.4112 42.1768 88 42.19C89.77 42.19 90.87 41.11 90.87 39.08V38.32H90.79C90.4319 38.7111 89.9938 39.0207 89.5056 39.2278C89.0173 39.4348 88.4902 39.5345 87.96 39.52C86.5557 39.52 85.2089 38.9621 84.2159 37.9691C83.2229 36.9761 82.665 35.6293 82.665 34.225C82.665 32.8207 83.2229 31.4739 84.2159 30.4809C85.2089 29.4879 86.5557 28.93 87.96 28.93C88.4883 28.9162 89.0134 29.0142 89.5012 29.2175C89.9889 29.4209 90.4281 29.725 90.79 30.11H90.87V29.25H93.1V38.75V38.76ZM85.16 34.25C85.1426 34.6576 85.2069 35.0646 85.3491 35.4471C85.4914 35.8295 85.7086 36.1796 85.9881 36.4769C86.2677 36.7741 86.6038 37.0124 86.9768 37.1778C87.3498 37.3432 87.7521 37.4324 88.16 37.44C88.5569 37.4196 88.9457 37.3206 89.304 37.1488C89.6622 36.9769 89.9828 36.7355 90.247 36.4388C90.5112 36.142 90.7138 35.7957 90.8431 35.4199C90.9724 35.0442 91.0257 34.6465 91 34.25C91.0341 33.8479 90.9867 33.443 90.8606 33.0596C90.7345 32.6762 90.5324 32.3222 90.2663 32.0188C90.0002 31.7154 89.6757 31.4687 89.312 31.2937C88.9484 31.1186 88.5532 31.0187 88.15 31C87.7376 31.0101 87.3315 31.1029 86.9556 31.273C86.5798 31.443 86.2419 31.6868 85.9621 31.99C85.6823 32.2931 85.4662 32.6493 85.3267 33.0376C85.1872 33.4258 85.1271 33.8381 85.15 34.25H85.16Z" fill="#141A27"/>
<path d="M81.81 34.23C81.8318 35.3025 81.5338 36.3571 80.9539 37.2595C80.374 38.1618 79.5384 38.8711 78.5538 39.2967C77.5692 39.7223 76.4802 39.8451 75.4256 39.6493C74.3709 39.4535 73.3985 38.9481 72.6322 38.1975C71.866 37.4468 71.3406 36.485 71.1232 35.4346C70.9058 34.3842 71.0061 33.2929 71.4114 32.2997C71.8167 31.3066 72.5085 30.4567 73.3988 29.8583C74.289 29.2599 75.3373 28.9402 76.41 28.94C77.1146 28.9226 77.8155 29.0468 78.4713 29.3051C79.1271 29.5634 79.7245 29.9506 80.228 30.4438C80.7314 30.9371 81.1309 31.5263 81.4026 32.1766C81.6744 32.827 81.8129 33.5252 81.81 34.23ZM73.38 34.23C73.4209 34.8127 73.631 35.3707 73.9845 35.8357C74.338 36.3006 74.8195 36.6523 75.37 36.8475C75.9205 37.0427 76.516 37.073 77.0835 36.9346C77.6509 36.7962 78.1656 36.4952 78.5644 36.0684C78.9633 35.6417 79.2288 35.1078 79.3286 34.5323C79.4283 33.9568 79.3579 33.3647 79.1259 32.8287C78.894 32.2926 78.5106 31.8359 78.0228 31.5146C77.535 31.1934 76.9641 31.0215 76.38 31.02C75.9711 31.0303 75.5684 31.1219 75.1953 31.2894C74.8222 31.457 74.4862 31.6972 74.207 31.996C73.9277 32.2948 73.7107 32.6463 73.5688 33.0298C73.4268 33.4134 73.3626 33.8214 73.38 34.23V34.23Z" fill="#141A27"/>
<path d="M70.0001 34.23C70.0219 35.3025 69.7239 36.3571 69.1439 37.2595C68.564 38.1618 67.7285 38.8711 66.7439 39.2967C65.7593 39.7223 64.6703 39.8451 63.6156 39.6493C62.561 39.4535 61.5885 38.9481 60.8223 38.1975C60.056 37.4468 59.5307 36.485 59.3133 35.4346C59.0958 34.3842 59.1962 33.2929 59.6014 32.2997C60.0067 31.3066 60.6986 30.4567 61.5889 29.8583C62.4791 29.2599 63.5274 28.9402 64.6001 28.94C65.3047 28.9226 66.0056 29.0468 66.6614 29.3051C67.3172 29.5634 67.9145 29.9506 68.418 30.4438C68.9215 30.9371 69.3209 31.5263 69.5927 32.1766C69.8644 32.827 70.0029 33.5252 70.0001 34.23V34.23ZM61.5701 34.23C61.6109 34.8127 61.821 35.3707 62.1745 35.8357C62.528 36.3006 63.0096 36.6523 63.5601 36.8475C64.1106 37.0427 64.7061 37.073 65.2735 36.9346C65.841 36.7962 66.3557 36.4952 66.7545 36.0684C67.1533 35.6417 67.4189 35.1078 67.5186 34.5323C67.6184 33.9568 67.5479 33.3647 67.316 32.8287C67.084 32.2926 66.7007 31.8359 66.2129 31.5146C65.7251 31.1934 65.1541 31.0215 64.5701 31.02C64.1646 31.0355 63.7662 31.1308 63.3977 31.3007C63.0293 31.4706 62.698 31.7116 62.4229 32.0099C62.1479 32.3081 61.9345 32.6578 61.795 33.0388C61.6555 33.4198 61.5926 33.8247 61.6101 34.23H61.5701Z" fill="#141A27"/>
<path d="M50.63 39.53C51.7078 39.5741 52.7828 39.3913 53.7854 38.9933C54.788 38.5954 55.6958 37.9912 56.45 37.22C57.7856 35.8039 58.5049 33.9158 58.45 31.97C58.4559 31.5005 58.4157 31.0316 58.33 30.57H50.63V32.81H56.09C56.0113 33.8671 55.5738 34.8656 54.85 35.64C54.2984 36.1905 53.6385 36.6206 52.9121 36.9029C52.1857 37.1852 51.4086 37.3136 50.63 37.28C49.8491 37.2879 49.0743 37.1418 48.35 36.8499C47.6256 36.5581 46.9659 36.1263 46.4086 35.5792C45.8513 35.0321 45.4074 34.3805 45.1022 33.6617C44.797 32.9429 44.6366 32.1709 44.63 31.39C44.63 31.39 44.63 31.34 44.63 31.31C44.6221 30.5274 44.7689 29.751 45.062 29.0254C45.3551 28.2997 45.7887 27.6391 46.3379 27.0816C46.8871 26.524 47.541 26.0805 48.2622 25.7765C48.9833 25.4724 49.7574 25.3139 50.54 25.31H50.62C52.1461 25.2877 53.6207 25.8618 54.73 26.91L56.34 25.33C55.5837 24.5928 54.6888 24.0126 53.707 23.623C52.7253 23.2334 51.6761 23.042 50.62 23.06C48.411 23.0411 46.2834 23.8932 44.698 25.4317C43.1127 26.9702 42.1973 29.0714 42.15 31.28C42.1895 33.4956 43.1029 35.6059 44.6912 37.1512C46.2795 38.6964 48.4141 39.5515 50.63 39.53Z" fill="#141A27"/>
<path d="M51.79 19.91H50.79V18.07H45.42V19.91H44.42V17.26H45C45.3579 16.8339 45.6205 16.3361 45.77 15.8C45.9683 15.1498 46.0891 14.4785 46.13 13.8L46.3 10.59H50.78V17.28H51.78V19.93L51.79 19.91ZM46.17 17.26H49.82V11.39H47.29L47.18 13.59C47.1522 14.3348 47.0347 15.0734 46.83 15.79C46.6897 16.312 46.4669 16.8083 46.17 17.26V17.26Z" fill="#141A27"/>
<path d="M59.28 14.56C59.2936 15.219 59.1675 15.8733 58.91 16.48C58.6909 16.9911 58.3256 17.426 57.86 17.73C57.5095 17.9572 57.1141 18.1059 56.7008 18.1661C56.2875 18.2262 55.8661 18.1964 55.4654 18.0787C55.0647 17.961 54.6941 17.758 54.3791 17.4839C54.0641 17.2097 53.8119 16.8707 53.64 16.49C53.3774 15.9019 53.2444 15.2641 53.25 14.62V14.08C53.238 13.4235 53.3676 12.772 53.63 12.17C53.8459 11.6517 54.2137 11.211 54.6849 10.9058C55.1562 10.6005 55.7088 10.4451 56.27 10.46C56.8316 10.4485 57.3843 10.6014 57.86 10.9C58.3325 11.2033 58.702 11.6426 58.92 12.16C59.1781 12.7666 59.3042 13.421 59.29 14.08V14.55L59.28 14.56ZM58.28 14.08C58.3188 13.3741 58.1333 12.6741 57.75 12.08C57.5724 11.8516 57.3449 11.6667 57.085 11.5395C56.825 11.4123 56.5394 11.3462 56.25 11.3462C55.9606 11.3462 55.6751 11.4123 55.4151 11.5395C55.1551 11.6667 54.9277 11.8516 54.75 12.08C54.3558 12.6699 54.1629 13.3715 54.2 14.08V14.63C54.1669 15.3367 54.3558 16.036 54.74 16.63C54.9188 16.8568 55.1467 17.0401 55.4065 17.1661C55.6663 17.2921 55.9513 17.3576 56.24 17.3576C56.5288 17.3576 56.8138 17.2921 57.0736 17.1661C57.3334 17.0401 57.5613 16.8568 57.74 16.63C58.1262 16.0369 58.3152 15.3369 58.28 14.63V14.07V14.08Z" fill="#141A27"/>
<path d="M66.94 15.69C66.8924 16.3932 66.5775 17.0515 66.06 17.53C65.4981 17.9883 64.7836 18.217 64.06 18.17C63.6518 18.1794 63.247 18.094 62.8774 17.9205C62.5079 17.7469 62.1835 17.4901 61.93 17.17C61.3658 16.4436 61.0818 15.5385 61.13 14.62V14C61.1164 13.3669 61.2427 12.7386 61.5 12.16C61.7252 11.6577 62.0941 11.2332 62.56 10.94C63.0351 10.6494 63.5832 10.5003 64.14 10.51C64.8429 10.4746 65.5318 10.715 66.06 11.18C66.5713 11.6548 66.8855 12.3044 66.94 13H66C65.9662 12.5157 65.7687 12.0573 65.44 11.7C65.1074 11.4154 64.6768 11.2719 64.24 11.3C63.9536 11.2881 63.6686 11.3455 63.4092 11.4674C63.1498 11.5893 62.9237 11.772 62.75 12C62.3581 12.5902 62.1719 13.2932 62.22 14V14.73C62.1846 15.4139 62.3628 16.0919 62.73 16.67C62.8861 16.9007 63.0983 17.0879 63.3468 17.2139C63.5952 17.3399 63.8717 17.4005 64.15 17.39C64.5863 17.4036 65.0138 17.2658 65.36 17C65.7039 16.6499 65.9129 16.1894 65.95 15.7L66.94 15.69Z" fill="#141A27"/>
<path d="M74 11.39H71.58V18.07H70.58V11.39H68.2V10.58H74V11.39Z" fill="#141A27"/>
<path d="M78.35 14.92L80.07 10.57H81.22L78.57 16.81C78.4462 17.1165 78.2777 17.4029 78.07 17.66C77.9184 17.8228 77.7345 17.9523 77.53 18.04C77.2813 18.1348 77.0161 18.179 76.75 18.17C76.5777 18.1961 76.4024 18.1961 76.23 18.17V17.39H76.7C76.8701 17.3933 77.0373 17.3456 77.1799 17.2528C77.3225 17.1601 77.434 17.0268 77.5 16.87L77.63 16.6L77.83 16.14L75.3 10.58H76.41L78.35 14.92Z" fill="#141A27"/>
<path d="M88.8 18.07H87.8V11.39H84.11V18.07H83.11V10.58H88.8V18.07Z" fill="#141A27"/>
<path d="M97 18.07H96V14.61H92.26V18.07H91.26V10.58H92.26V13.8H96V10.58H97V18.07Z" fill="#141A27"/>
<path d="M105.22 14.56C105.234 15.219 105.107 15.8733 104.85 16.48C104.644 16.9845 104.297 17.4187 103.85 17.73C103.5 17.9572 103.104 18.1059 102.691 18.1661C102.278 18.2262 101.856 18.1964 101.455 18.0787C101.055 17.961 100.684 17.758 100.369 17.4839C100.054 17.2097 99.8019 16.8707 99.63 16.49C99.3677 15.9018 99.2347 15.2641 99.24 14.62V14.08C99.228 13.4235 99.3576 12.772 99.62 12.17C99.8359 11.6517 100.204 11.211 100.675 10.9058C101.146 10.6005 101.699 10.4451 102.26 10.46C102.818 10.4505 103.367 10.6033 103.84 10.9C104.312 11.2033 104.682 11.6426 104.9 12.16C105.158 12.7666 105.284 13.421 105.27 14.08V14.55L105.22 14.56ZM104.22 14.08C104.259 13.3741 104.073 12.6741 103.69 12.08C103.512 11.8516 103.285 11.6667 103.025 11.5395C102.765 11.4123 102.479 11.3462 102.19 11.3462C101.901 11.3462 101.615 11.4123 101.355 11.5395C101.095 11.6667 100.868 11.8516 100.69 12.08C100.296 12.6699 100.103 13.3715 100.14 14.08V14.63C100.107 15.3367 100.296 16.036 100.68 16.63C100.859 16.8568 101.087 17.0401 101.346 17.1661C101.606 17.2921 101.891 17.3576 102.18 17.3576C102.469 17.3576 102.754 17.2921 103.014 17.1661C103.273 17.0401 103.501 16.8568 103.68 16.63C104.066 16.0369 104.255 15.3369 104.22 14.63V14.07V14.08Z" fill="#141A27"/>
<path d="M110.66 18.07V10.58H113.11C113.759 10.5312 114.406 10.7077 114.94 11.08C115.151 11.264 115.317 11.4941 115.424 11.7525C115.532 12.0109 115.578 12.2907 115.56 12.57C115.564 12.9045 115.459 13.2311 115.26 13.5C115.05 13.7752 114.77 13.9893 114.45 14.12C114.85 14.2105 115.205 14.441 115.45 14.77C115.692 15.0963 115.819 15.4938 115.81 15.9C115.827 16.1967 115.777 16.4933 115.664 16.7683C115.552 17.0434 115.38 17.2899 115.16 17.49C114.636 17.9048 113.977 18.1114 113.31 18.07H110.66ZM111.66 14.57V17.27H113.29C113.686 17.2919 114.075 17.1633 114.38 16.91C114.516 16.7832 114.623 16.6278 114.692 16.4549C114.761 16.282 114.791 16.0959 114.78 15.91C114.78 15.01 114.29 14.56 113.31 14.56L111.66 14.57ZM111.66 13.78H113.15C113.51 13.7921 113.864 13.679 114.15 13.46C114.279 13.3535 114.381 13.2185 114.448 13.0658C114.516 12.9132 114.547 12.7468 114.54 12.58C114.556 12.4122 114.532 12.243 114.469 12.0864C114.406 11.9299 114.307 11.7906 114.18 11.68C113.854 11.4677 113.468 11.3693 113.08 11.4H111.62V13.78H111.66Z" fill="#141A27"/>
</g>
<defs>
<linearGradient id="paint0_linear" x1="25.1389" y1="25.868" x2="35.8089" y2="25.868" gradientUnits="userSpaceOnUse">
<stop stop-color="#FFBB00"/>
<stop offset="1" stop-color="#FFDB00"/>
</linearGradient>
<linearGradient id="paint1_linear" x1="15.2526" y1="28.957" x2="1.58656" y2="18.8209" gradientUnits="userSpaceOnUse">
<stop stop-color="#00E2FF"/>
<stop offset="1" stop-color="#00C2FF"/>
</linearGradient>
<linearGradient id="paint2_linear" x1="15.1529" y1="40.8997" x2="24.1646" y2="24.8998" gradientUnits="userSpaceOnUse">
<stop stop-color="#E02553"/>
<stop offset="1" stop-color="#FF3A44"/>
</linearGradient>
<linearGradient id="paint3_linear" x1="28.8388" y1="24.4713" x2="20.9304" y2="8.91632" gradientUnits="userSpaceOnUse">
<stop stop-color="#00F076"/>
<stop offset="1" stop-color="#11D574"/>
</linearGradient>
<clipPath id="clip0">
<rect width="174" height="52" fill="white"/>
</clipPath>
</defs>
</svg>
