<?xml version="1.0" standalone="no"?>
<!DOCTYPE svg PUBLIC "-//W3C//DTD SVG 20010904//EN"
 "http://www.w3.org/TR/2001/REC-SVG-20010904/DTD/svg10.dtd">
<svg xmlns:xlink="http://www.w3.org/1999/xlink" version="1.0" xmlns="http://www.w3.org/2000/svg"
 width="577.000000pt" height="236.000000pt" viewBox="0 0 577.000000 236.000000"
 preserveAspectRatio="xMidYMid meet">

<g transform="translate(0.000000,236.000000) scale(0.100000,-0.100000)"
fill="#8b8d8e" stroke="none">
<path d="M89 2094 c-10 -12 -10 -19 -1 -32 7 -10 16 -27 22 -39 5 -13 14 -23
20 -23 6 0 9 -4 6 -9 -3 -5 11 -9 32 -8 37 0 100 -23 239 -89 39 -19 78 -34
85 -34 8 0 18 -4 24 -9 18 -17 248 -110 257 -104 6 3 7 1 3 -5 -3 -6 4 -14 16
-17 13 -4 52 -20 86 -36 35 -16 68 -27 73 -23 5 3 9 0 9 -5 0 -6 4 -11 10 -11
5 0 60 -23 122 -51 62 -28 136 -60 163 -71 28 -12 78 -34 113 -50 34 -15 76
-28 92 -28 26 0 30 4 30 28 0 25 -4 29 -32 31 -18 2 -41 3 -50 4 -9 1 -15 4
-12 8 2 4 -6 10 -18 14 -13 3 -32 10 -43 15 -40 17 -182 82 -273 126 -52 24
-99 41 -104 37 -6 -3 -8 -1 -5 4 8 13 -20 26 -35 16 -7 -3 -8 -1 -4 5 4 7 2
12 -5 12 -6 0 -50 18 -96 40 -47 22 -87 40 -89 40 -4 0 -74 33 -282 131 -56
27 -106 49 -110 49 -4 0 -25 10 -47 21 -30 17 -174 79 -181 79 -1 0 -7 -7 -15
-16z"/>
<path d="M872 1995 c-76 -17 -179 -62 -166 -74 7 -6 273 -128 429 -196 17 -7
89 -41 160 -75 134 -64 179 -78 189 -61 10 16 -41 139 -81 196 -81 112 -216
195 -349 215 -86 12 -104 12 -182 -5z"/>
<path d="M5120 1990 c0 -7 10 -20 23 -30 l22 -18 3 -440 3 -440 -26 -20 c-15
-12 -24 -25 -21 -30 6 -11 202 -9 213 1 3 4 -6 18 -20 31 -26 24 -27 29 -27
133 1 77 5 113 15 127 17 23 31 15 45 -29 6 -19 15 -35 19 -35 4 0 8 -6 8 -12
0 -7 12 -38 25 -68 37 -80 40 -94 23 -116 -8 -10 -15 -22 -15 -26 0 -12 198
-9 205 2 3 6 -1 13 -9 16 -15 6 -96 156 -121 224 -7 19 -24 60 -37 90 -45 98
-47 105 -36 126 28 53 67 104 115 151 30 28 49 54 43 58 -5 3 -43 5 -84 4 -80
-2 -113 -12 -77 -24 47 -15 50 -69 7 -135 -74 -113 -120 -179 -123 -176 -2 1
-4 147 -6 322 l-2 319 -82 3 c-57 2 -83 -1 -83 -8z"/>
<path d="M2351 1976 c-4 -6 -29 -94 -54 -196 -104 -419 -111 -445 -123 -443
-5 1 -23 55 -40 120 -18 65 -39 145 -49 178 -9 33 -33 123 -54 200 l-37 140
-127 3 c-87 2 -127 -1 -127 -8 0 -6 5 -8 10 -5 6 3 10 1 10 -4 0 -6 8 -11 18
-11 11 0 26 -8 35 -17 13 -16 16 -74 21 -425 6 -368 5 -410 -11 -442 -10 -21
-27 -39 -45 -45 -57 -20 -30 -31 76 -31 109 0 142 12 86 31 -59 21 -61 32 -66
447 -4 341 -3 375 11 358 8 -11 15 -28 15 -38 0 -10 9 -46 20 -80 11 -35 49
-171 86 -303 36 -132 70 -256 75 -275 6 -19 16 -57 22 -84 7 -27 17 -51 23
-53 10 -3 66 190 100 347 9 41 20 84 25 95 5 11 14 43 20 70 17 86 76 305 82
312 11 10 16 -115 16 -420 1 -367 2 -360 -54 -375 -14 -4 -25 -11 -25 -17 0
-13 300 -14 301 0 0 5 -13 13 -29 17 -16 4 -34 18 -40 32 -12 27 -20 840 -7
868 4 10 22 23 41 30 19 7 33 17 31 23 -5 14 -225 15 -236 1z"/>
<path d="M2704 1975 c-10 -25 1 -248 13 -252 7 -3 14 21 18 71 6 60 12 81 34
107 23 28 35 33 84 37 l58 5 -3 -441 c-3 -416 -4 -441 -22 -461 -11 -12 -27
-21 -38 -21 -10 0 -18 -7 -18 -15 0 -13 21 -15 152 -13 104 2 153 7 155 15 2
6 -10 14 -26 18 -61 13 -60 9 -61 454 -1 223 -2 417 -3 431 -2 23 2 25 45 28
26 2 58 -3 70 -10 13 -7 28 -11 33 -9 6 1 7 -1 3 -4 -4 -4 -1 -20 7 -36 8 -15
15 -50 15 -76 0 -62 23 -102 30 -53 1 8 2 66 1 128 l-1 113 -271 -2 c-195 -1
-272 -5 -275 -14z"/>
<path d="M3360 1977 c0 -7 15 -17 33 -22 56 -17 58 -38 55 -491 -3 -436 -2
-429 -58 -437 -13 -2 -26 -9 -28 -15 -5 -16 347 -16 402 -1 46 13 120 79 135
120 5 16 7 29 4 29 -3 0 -1 6 5 13 38 48 23 381 -18 395 -6 2 -10 8 -10 14 0
14 -44 54 -78 72 -31 16 -119 35 -177 39 l-40 2 -3 114 c-1 63 -1 120 1 125 3
7 37 9 100 6 127 -7 135 -15 152 -158 5 -33 11 -52 19 -49 7 2 11 43 11 128
l0 124 -252 3 c-203 2 -253 0 -253 -11z m342 -357 c17 -8 35 -31 50 -64 19
-44 23 -71 26 -201 3 -120 0 -159 -12 -195 -9 -25 -18 -49 -19 -54 -3 -16 -50
-53 -75 -61 -37 -11 -69 2 -80 32 -10 32 -17 506 -7 544 6 24 9 25 48 19 23
-4 54 -13 69 -20z"/>
<path d="M225 1860 c-16 -18 -15 -21 15 -64 28 -41 33 -45 46 -31 18 18 19 18
42 5 47 -27 185 -79 195 -73 7 3 9 2 4 -2 -8 -10 3 -15 183 -86 69 -28 134
-55 144 -61 42 -23 226 -96 226 -90 0 4 4 2 8 -4 8 -13 313 -144 335 -144 16
0 47 26 47 39 0 4 -14 8 -30 8 -17 0 -40 4 -53 10 -82 39 -176 81 -267 120
-58 25 -133 58 -168 74 -35 16 -65 29 -68 29 -3 0 -53 23 -112 51 -59 28 -134
62 -167 76 -33 14 -93 40 -133 59 -41 19 -75 34 -78 34 -4 0 -109 47 -135 61
-11 6 -22 2 -34 -11z"/>
<path d="M4167 1681 c-38 -18 -87 -69 -100 -105 -18 -47 -17 -103 0 -124 28
-31 56 -35 86 -11 33 25 34 44 3 90 -27 40 -25 75 5 108 26 27 63 27 89 -1 17
-19 20 -35 20 -120 0 -96 0 -98 -27 -112 -45 -24 -149 -128 -171 -171 -57
-114 -24 -226 72 -242 33 -5 40 -2 76 36 22 23 37 47 34 53 -4 6 -1 9 7 6 8
-3 15 -14 17 -26 4 -26 56 -72 82 -72 23 0 77 44 85 70 9 27 -3 44 -20 30 -24
-20 -29 21 -35 265 -4 217 -7 243 -25 273 -41 69 -120 90 -198 53z m105 -416
c-1 -63 -4 -120 -7 -126 -12 -19 -54 -29 -79 -19 -41 15 -44 67 -9 142 30 63
81 133 90 124 3 -3 5 -57 5 -121z"/>
<path d="M4553 1672 c-3 -7 3 -19 13 -27 18 -12 19 -33 22 -299 3 -277 2 -286
-18 -306 -11 -11 -18 -25 -15 -30 4 -6 49 -10 101 -10 99 0 110 6 77 43 -15
16 -19 43 -21 153 l-4 134 77 0 77 0 -4 -136 c-3 -130 -4 -137 -27 -156 -20
-15 -22 -21 -11 -28 16 -10 186 -7 196 3 4 4 -2 17 -14 30 -21 22 -22 32 -24
306 l-3 282 25 19 c14 10 21 22 17 27 -11 10 -196 12 -203 2 -2 -5 4 -17 15
-28 19 -19 28 -84 30 -223 l1 -58 -75 0 -75 0 0 124 c0 108 2 126 20 149 11
14 20 30 20 36 0 17 -191 10 -197 -7z"/>
<path d="M363 1634 c-6 -17 44 -77 58 -68 9 5 76 -14 154 -44 28 -11 53 -21
57 -21 5 -1 34 -13 65 -27 31 -15 67 -27 79 -28 12 0 20 -3 18 -5 -4 -5 73
-41 88 -41 5 0 29 -9 53 -20 25 -11 80 -34 122 -51 43 -17 101 -40 128 -51 28
-11 56 -20 63 -21 6 0 12 -4 12 -9 0 -4 9 -8 20 -8 12 0 32 -7 45 -16 26 -17
76 -16 82 2 2 6 -10 14 -26 17 -16 4 -51 16 -78 27 -102 45 -119 52 -135 61
-10 5 -22 9 -28 9 -6 0 -32 10 -58 21 -80 36 -104 46 -200 83 -51 20 -101 41
-110 46 -39 22 -114 50 -123 44 -5 -3 -9 -1 -9 4 0 5 -28 19 -62 32 -35 12
-68 26 -74 31 -10 8 -120 49 -131 49 -2 0 -6 -7 -10 -16z"/>
<path d="M466 1471 c-4 -5 0 -38 8 -72 41 -174 162 -313 326 -374 63 -24 91
-28 175 -29 55 0 109 3 120 8 11 5 28 11 37 12 38 8 146 66 186 102 l44 37
-334 123 c-427 158 -434 160 -490 183 -53 21 -64 23 -72 10z"/>
<path d="M5457 643 c-6 -9 0 -42 7 -43 45 -12 77 -9 95 9 25 25 27 41 6 41 -8
0 -15 -6 -15 -14 0 -40 -59 -43 -77 -4 -6 14 -12 18 -16 11z"/>
<path d="M457 614 c-4 -4 -7 -85 -7 -181 l0 -173 69 0 c39 0 73 5 76 10 3 6
14 10 24 10 10 0 27 16 39 38 17 31 19 45 12 76 -4 21 -10 38 -12 39 -1 1 -13
11 -25 21 -15 12 -46 21 -85 25 l-63 6 0 50 0 50 78 5 c42 3 78 10 80 15 2 11
-175 20 -186 9z m170 -212 c15 -36 11 -82 -8 -82 -6 0 -8 -4 -5 -9 8 -12 -32
-27 -81 -30 -48 -3 -43 -15 -46 111 l-2 57 35 3 c57 5 90 -11 107 -50z"/>
<path d="M3632 529 c-13 -5 -31 -16 -40 -25 -15 -15 -17 -15 -26 5 -5 11 -14
21 -21 21 -18 0 -20 -356 -1 -363 22 -9 26 2 26 75 0 65 10 85 27 54 5 -8 22
-17 38 -20 81 -14 138 41 134 129 -3 66 -23 103 -64 121 -39 16 -42 16 -73 3z
m52 -29 c36 -13 56 -59 53 -118 -1 -28 -4 -49 -6 -47 -2 2 -12 -5 -24 -16 -28
-26 -90 -26 -117 1 -37 37 -21 157 23 178 28 14 40 14 71 2z"/>
<path d="M3898 527 c-16 -6 -28 -16 -28 -23 0 -6 -6 -14 -14 -17 -37 -14 -27
-155 13 -191 21 -20 135 -26 152 -9 8 8 -4 10 -38 8 -45 -3 -110 22 -114 43
-10 56 -10 57 84 60 65 2 89 7 93 17 8 20 -13 79 -35 99 -24 22 -78 28 -113
13z m98 -30 c3 -2 8 -21 11 -41 l6 -36 -71 0 c-39 0 -73 4 -76 8 -6 10 20 63
37 75 12 8 84 3 93 -6z"/>
<path d="M4549 501 c-36 -36 -39 -43 -39 -94 0 -49 4 -61 31 -92 30 -34 34
-35 100 -35 39 0 69 4 69 10 0 6 -26 10 -58 10 -62 0 -92 19 -106 65 -10 36 5
43 94 41 l85 -1 3 33 c3 26 -3 39 -31 67 -50 50 -96 49 -148 -4z m130 -15 c13
-14 19 -29 15 -39 -7 -19 -5 -18 -86 -20 -52 -2 -58 0 -58 18 0 67 81 92 129
41z"/>
<path d="M4800 411 c0 -124 1 -131 20 -131 13 0 19 6 18 18 -1 9 0 36 0 60 l2
43 68 -3 c44 -2 67 -7 68 -15 1 -7 2 -33 3 -58 1 -33 5 -45 16 -45 13 0 15 20
15 124 0 81 -4 127 -11 132 -18 10 -30 -17 -27 -61 2 -22 0 -41 -4 -42 -5 -2
-35 -3 -67 -3 l-60 0 -3 52 c-2 41 -7 54 -20 56 -16 3 -18 -8 -18 -127z"/>
<path d="M5105 528 c-3 -8 -4 -66 -3 -129 3 -113 3 -114 27 -114 16 0 29 10
40 30 9 17 31 54 49 84 19 30 39 66 45 80 10 22 12 9 15 -86 2 -105 4 -113 23
-113 19 0 19 6 17 128 -3 121 -4 127 -24 130 -17 2 -29 -9 -53 -48 -17 -27
-31 -53 -31 -55 0 -3 -11 -23 -25 -45 -14 -22 -22 -40 -19 -40 4 0 1 -7 -6
-15 -7 -9 -15 -13 -18 -10 -3 3 -6 51 -6 107 -1 71 -5 102 -13 105 -7 3 -15
-2 -18 -9z"/>
<path d="M5417 533 c-4 -3 -7 -62 -7 -130 0 -121 0 -123 23 -123 22 0 26 6
114 164 40 71 43 68 43 -52 0 -93 3 -112 15 -112 13 0 15 20 15 124 0 126 -5
142 -38 132 -17 -6 -103 -148 -117 -193 -15 -51 -25 -17 -25 87 0 101 -5 122
-23 103z"/>
<path d="M1763 519 c-49 -14 -85 -68 -85 -128 0 -95 75 -150 170 -125 39 11
24 24 -29 24 -43 0 -55 4 -78 29 -30 32 -35 59 -21 112 12 45 60 74 113 67 20
-2 37 -1 37 3 0 20 -65 30 -107 18z"/>
<path d="M1972 522 l-33 -3 3 -127 3 -127 40 -1 c52 -2 115 14 138 33 24 22
22 70 -3 83 -11 6 -20 7 -20 3 0 -4 -5 -2 -11 4 -9 9 -5 18 16 36 65 56 -10
112 -133 99z m112 -38 c18 -46 -9 -74 -70 -74 l-44 0 0 38 c0 21 3 42 7 45 3
4 28 7 54 7 33 0 49 -4 53 -16z m-9 -106 c18 -8 25 -19 25 -38 0 -37 -16 -48
-75 -52 l-50 -3 -3 39 c-2 21 -1 44 2 52 7 17 65 19 101 2z"/>
<path d="M2276 523 c-4 -5 -11 -8 -15 -8 -11 0 -43 -34 -45 -48 -1 -6 -5 -18
-10 -26 -27 -43 10 -152 57 -167 56 -18 137 -11 137 12 0 10 -9 12 -32 7 -18
-3 -35 -7 -37 -9 -2 -2 -18 3 -36 11 -19 7 -36 11 -38 8 -5 -4 -27 61 -27 80
0 4 37 7 83 7 105 0 114 6 99 59 -7 22 -24 49 -39 60 -25 21 -82 28 -97 14z
m93 -54 c9 -16 20 -29 24 -29 5 0 5 -4 2 -10 -3 -5 -41 -10 -84 -10 l-78 0 5
29 c9 60 100 74 131 20z"/>
<path d="M2615 520 c-3 -5 -5 -30 -4 -55 2 -24 -1 -48 -5 -52 -4 -4 -24 12
-45 35 -21 23 -36 43 -34 45 7 8 -27 29 -42 25 -11 -2 -4 -16 30 -53 24 -27
45 -52 44 -55 0 -3 -14 -14 -32 -25 -17 -11 -30 -24 -28 -29 1 -5 -2 -12 -8
-15 -6 -4 -14 -21 -17 -39 -10 -48 12 -40 37 13 22 47 65 85 87 78 7 -3 12
-25 12 -59 0 -48 2 -54 21 -54 19 0 21 4 15 31 -3 17 -3 42 0 56 5 20 11 23
28 18 11 -3 26 -7 33 -7 6 -1 21 -23 32 -50 12 -28 26 -48 35 -48 18 0 22 25
6 35 -5 3 -10 14 -10 24 0 19 -40 61 -58 61 -24 0 -11 29 30 69 32 31 40 43
31 52 -9 9 -19 4 -40 -21 -15 -19 -28 -36 -27 -39 0 -3 -8 -15 -18 -25 -10
-11 -18 -24 -18 -28 0 -5 -4 -6 -10 -3 -5 3 -10 30 -10 60 0 37 -4 55 -15 58
-8 4 -17 2 -20 -3z"/>
<path d="M2863 514 c-6 -11 -9 -30 -8 -44 1 -14 2 -62 3 -107 2 -80 3 -83 26
-83 19 0 33 15 67 73 24 39 49 84 55 98 26 58 34 42 34 -65 0 -88 3 -106 15
-106 22 0 22 238 0 246 -24 9 -41 -11 -103 -120 l-57 -101 -3 105 c-3 105 -12
138 -29 104z"/>
<path d="M3154 501 c9 -16 27 -43 42 -60 24 -29 26 -34 13 -59 -7 -15 -25 -40
-39 -56 -14 -16 -18 -25 -10 -21 13 8 13 7 1 -8 -11 -15 -11 -17 2 -17 8 0 30
23 47 52 l32 52 32 -52 c18 -30 38 -52 49 -52 23 0 22 4 -13 55 -41 59 -53 92
-37 102 18 12 67 73 67 85 0 5 -8 8 -17 6 -10 -2 -16 -6 -13 -8 3 -3 -5 -16
-17 -30 -13 -13 -23 -29 -23 -36 0 -18 -32 -27 -42 -12 -5 7 -18 30 -30 51
-13 21 -29 37 -40 37 -17 0 -17 -2 -4 -29z"/>
<path d="M4121 405 l-1 -126 158 3 157 3 0 120 c0 105 -2 120 -17 123 -15 3
-18 -9 -20 -109 l-3 -113 -47 -3 -48 -3 0 115 c0 109 -1 115 -20 115 -20 0
-21 -5 -19 -104 1 -57 -2 -109 -5 -115 -4 -6 -27 -11 -52 -11 l-44 0 0 115 c0
107 -1 115 -19 115 -18 0 -20 -8 -20 -125z"/>
<path d="M761 507 c-18 -18 -12 -27 12 -18 18 6 62 8 89 2 5 -1 28 -56 28 -67
0 -2 -10 -4 -22 -4 -41 0 -107 -25 -122 -45 -56 -74 38 -155 117 -100 18 13
22 12 33 -3 18 -25 27 -9 30 56 3 84 -12 154 -39 174 -25 19 -109 22 -126 5z
m123 -156 c-1 -49 -21 -71 -64 -71 -34 0 -50 17 -50 55 0 32 18 48 65 58 42
10 50 3 49 -42z"/>
<path d="M1017 513 c-4 -3 -7 -59 -7 -124 0 -91 3 -118 14 -122 22 -8 26 2 26
60 l0 53 60 0 c33 0 63 0 68 0 4 0 9 -25 12 -55 3 -30 8 -55 13 -55 4 0 10 0
15 0 4 0 6 56 4 125 -3 101 -6 125 -18 125 -10 0 -14 -14 -14 -55 l0 -55 -70
0 -70 0 0 55 c0 39 -4 55 -13 55 -8 0 -17 -3 -20 -7z"/>
<path d="M1317 507 c-10 -28 -7 -220 4 -233 19 -23 29 -5 29 51 0 43 3 54 18
57 30 6 64 -19 91 -68 28 -51 51 -68 51 -37 0 28 -55 110 -79 118 -26 8 -18
26 33 75 20 19 36 38 36 43 0 19 -25 2 -83 -55 l-62 -63 -3 63 c-2 44 -7 62
-16 62 -8 0 -16 -6 -19 -13z"/>
</g>
</svg>
