<?xml version="1.0" standalone="no"?>
<!DOCTYPE svg PUBLIC "-//W3C//DTD SVG 20010904//EN"
 "http://www.w3.org/TR/2001/REC-SVG-20010904/DTD/svg10.dtd">
<svg xmlns:xlink="http://www.w3.org/1999/xlink" version="1.0" xmlns="http://www.w3.org/2000/svg"
 width="900.000000pt" height="291.000000pt" viewBox="0 0 900.000000 291.000000"
 preserveAspectRatio="xMidYMid meet">

<g transform="translate(0.000000,291.000000) scale(0.100000,-0.100000)"
fill="#8b8d8e" stroke="none">
<path d="M5670 2899 c-468 -58 -822 -283 -953 -606 -66 -163 -80 -365 -33
-508 69 -216 255 -392 601 -567 184 -94 251 -137 313 -201 70 -75 86 -134 56
-220 -28 -83 -127 -153 -264 -188 -80 -20 -340 -17 -455 5 -116 23 -258 69
-364 117 -46 22 -85 38 -86 37 -1 -2 -31 -140 -66 -308 -45 -209 -62 -307 -55
-313 24 -16 208 -70 316 -92 307 -62 612 -67 875 -14 480 97 792 374 860 764
58 334 -58 587 -361 788 -55 36 -181 109 -282 163 -197 107 -294 173 -330 227
-90 135 28 286 258 329 73 14 315 4 410 -17 63 -14 256 -75 311 -99 13 -6 25
38 79 290 51 240 61 297 50 304 -27 17 -236 73 -339 92 -124 22 -427 32 -541
17z"/>
<path d="M15 2848 c-2 -7 -6 -26 -7 -42 l-3 -29 148 -38 c201 -52 371 -110
502 -174 129 -62 182 -111 210 -196 10 -30 150 -562 310 -1184 l292 -1130 388
0 388 0 587 1400 587 1400 -380 3 c-209 1 -382 1 -383 -1 -2 -2 -171 -426
-375 -943 -204 -516 -374 -942 -378 -947 -4 -4 -76 361 -161 810 -84 450 -159
836 -167 858 -19 56 -74 128 -125 163 -91 62 -87 62 -790 62 -502 0 -640 -3
-643 -12z"/>
<path d="M3726 2843 c-6 -21 -596 -2780 -596 -2788 0 -3 163 -5 363 -5 l363 0
278 1298 c152 713 287 1345 300 1405 l23 107 -363 0 c-337 0 -363 -1 -368 -17z"/>
<path d="M7700 2846 c-81 -21 -166 -89 -203 -163 -8 -15 -259 -611 -557 -1323
-298 -712 -544 -1298 -547 -1302 -2 -5 169 -8 380 -8 l384 0 75 208 75 207
466 3 466 2 10 -52 c7 -29 26 -123 44 -208 l32 -155 337 -3 338 -2 -6 27 c-3
16 -135 647 -293 1403 l-287 1375 -334 2 c-240 1 -348 -2 -380 -11z m310
-1278 c59 -282 105 -516 103 -520 -2 -5 -137 -8 -299 -8 -241 0 -295 2 -292
13 8 35 373 1035 377 1032 2 -2 52 -235 111 -517z"/>
</g>
</svg>
