<svg width="40" height="40" viewBox="0 0 40 40" fill="none" xmlns="http://www.w3.org/2000/svg">
<path fill-rule="evenodd" clip-rule="evenodd" d="M20 40C8.9543 40 0 31.0457 0 20C0 8.9543 8.9543 0 20 0C31.0457 0 40 8.9543 40 20C40 31.0457 31.0457 40 20 40ZM31.8702 25.6467C31.8405 25.5828 31.8129 25.5298 31.7872 25.4874C31.3625 24.7224 30.5508 23.7835 29.3527 22.6703L29.3274 22.6448L29.3147 22.6323L29.3019 22.6195H29.2891C28.7453 22.1011 28.401 21.7526 28.2568 21.5742C27.9929 21.2342 27.9338 20.8902 28.078 20.5416C28.1799 20.2782 28.5626 19.7219 29.2252 18.872C29.5737 18.4216 29.8497 18.0606 30.0536 17.7887C31.5237 15.8342 32.1611 14.5852 31.9656 14.0414L31.8896 13.9143C31.8386 13.8377 31.7069 13.7677 31.4947 13.7039C31.282 13.6402 31.0102 13.6297 30.6787 13.6721L27.008 13.6975C26.9485 13.6764 26.8636 13.6784 26.753 13.7039C26.6425 13.7294 26.5872 13.7422 26.5872 13.7422L26.5233 13.7742L26.4726 13.8125C26.4301 13.8379 26.3834 13.8825 26.3323 13.9462C26.2816 14.0097 26.2391 14.0843 26.2052 14.1693C25.8055 15.1974 25.3512 16.1534 24.8412 17.0371C24.5268 17.564 24.238 18.0206 23.9743 18.4073C23.711 18.7938 23.49 19.0786 23.3117 19.2611C23.1332 19.4439 22.972 19.5903 22.8273 19.7008C22.6827 19.8115 22.5724 19.8582 22.496 19.8411C22.4195 19.824 22.3474 19.807 22.2791 19.7901C22.1602 19.7136 22.0646 19.6095 21.9925 19.4778C21.9201 19.3461 21.8714 19.1803 21.8459 18.9807C21.8205 18.7808 21.8055 18.609 21.8012 18.4644C21.7972 18.3201 21.7991 18.116 21.8077 17.8526C21.8165 17.589 21.8205 17.4107 21.8205 17.3172C21.8205 16.9943 21.8268 16.6438 21.8394 16.2657C21.8523 15.8875 21.8627 15.5879 21.8714 15.3672C21.8801 15.1463 21.8841 14.9125 21.8841 14.6661C21.8841 14.4197 21.8691 14.2264 21.8394 14.0861C21.8101 13.946 21.7652 13.8101 21.7059 13.6782C21.6463 13.5465 21.5591 13.4447 21.4446 13.3723C21.33 13.3001 21.1874 13.2428 21.0177 13.2002C20.5673 13.0983 19.9937 13.0431 19.2968 13.0346C17.7164 13.0176 16.7009 13.1196 16.2505 13.3406C16.0721 13.4339 15.9106 13.5615 15.7662 13.7228C15.6132 13.9098 15.5919 14.0119 15.7024 14.0287C16.2123 14.1051 16.5733 14.2878 16.7857 14.5767L16.8623 14.7298C16.9218 14.8402 16.9813 15.0357 17.0408 15.3161C17.1002 15.5965 17.1386 15.9066 17.1554 16.2463C17.1979 16.8667 17.1979 17.3978 17.1554 17.8396C17.1129 18.2816 17.0727 18.6256 17.0344 18.8721C16.996 19.1185 16.9387 19.3182 16.8623 19.4711C16.7857 19.6241 16.7348 19.7175 16.7092 19.7515C16.6837 19.7854 16.6625 19.8068 16.6456 19.8152C16.5352 19.8575 16.4203 19.8791 16.3014 19.8791C16.1824 19.8791 16.038 19.8195 15.8681 19.7005C15.6982 19.5815 15.5219 19.418 15.3392 19.2098C15.1565 19.0015 14.9504 18.7105 14.7209 18.3366C14.4915 17.9628 14.2536 17.5209 14.0072 17.0111L13.8033 16.6414C13.6758 16.4035 13.5017 16.0572 13.2808 15.6027C13.0597 15.148 12.8643 14.7081 12.6944 14.2833C12.6265 14.1048 12.5245 13.969 12.3886 13.8755L12.3248 13.8372C12.2824 13.8032 12.2143 13.7672 12.1209 13.7288C12.0274 13.6905 11.9298 13.663 11.8277 13.646L8.33531 13.6714C7.97843 13.6714 7.73628 13.7522 7.60878 13.9137L7.55775 13.9901C7.53226 14.0327 7.5194 14.1006 7.5194 14.1941C7.5194 14.2876 7.5449 14.4023 7.59592 14.5382C8.10575 15.7364 8.66018 16.892 9.2592 18.0051C9.85823 19.1183 10.3788 20.0149 10.8205 20.6943C11.2623 21.3742 11.7127 22.0159 12.1716 22.619C12.6305 23.2224 12.9342 23.609 13.0829 23.7789C13.2317 23.9491 13.3485 24.0763 13.4335 24.1612L13.7522 24.4671C13.9561 24.6711 14.2556 24.9154 14.6507 25.2C15.046 25.4847 15.4835 25.7651 15.9636 26.0415C16.4438 26.3174 17.0024 26.5426 17.6398 26.7168C18.2771 26.8911 18.8973 26.9611 19.5007 26.9273H20.9665C21.2638 26.9016 21.489 26.8082 21.6421 26.6468L21.6928 26.5829C21.7269 26.5322 21.7589 26.4534 21.7883 26.3474C21.8181 26.2412 21.833 26.1242 21.833 25.9969C21.8243 25.6316 21.8521 25.3023 21.9156 25.0092C21.9792 24.7162 22.0516 24.4952 22.1326 24.3464C22.2135 24.1978 22.3048 24.0723 22.4065 23.9706C22.5084 23.8687 22.581 23.807 22.6235 23.7857C22.6659 23.7643 22.6997 23.7498 22.7252 23.7411C22.9291 23.6732 23.1691 23.739 23.4455 23.9388C23.7217 24.1385 23.9808 24.3851 24.2231 24.6781C24.4653 24.9714 24.7563 25.3005 25.0961 25.6658C25.4362 26.0313 25.7335 26.3029 25.9883 26.4816L26.2431 26.6346C26.4133 26.7366 26.6343 26.8301 26.9062 26.9151C27.1777 27 27.4156 27.0212 27.6198 26.9788L30.8827 26.9279C31.2054 26.9279 31.4565 26.8744 31.6346 26.7684C31.8131 26.6622 31.9191 26.5452 31.9533 26.4179C31.9874 26.2905 31.9893 26.146 31.9598 25.9843C31.9296 25.8231 31.8998 25.7104 31.8702 25.6467Z" fill="white"/>
</svg>
