<?xml version="1.0" encoding="UTF-8"?>
<svg width="120px" height="121px" viewBox="0 0 120 121" version="1.1" xmlns="http://www.w3.org/2000/svg" xmlns:xlink="http://www.w3.org/1999/xlink">
    <title>ic / Tradein@1x</title>
    <defs>
        <linearGradient x1="50%" y1="0.440299855%" x2="50%" y2="95.6466763%" id="linearGradient-1">
            <stop stop-color="#ECEDF1" offset="0%"></stop>
            <stop stop-color="#0061ED" offset="100%"></stop>
        </linearGradient>
    </defs>
    <g id="Page-2" stroke="none" stroke-width="1" fill="none" fill-rule="evenodd">
        <g id="Atlm_Saleauto_Landing" transform="translate(-1067.000000, -875.000000)">
            <g id="Group-8" transform="translate(120.000000, 793.000000)">
                <g id="ic" transform="translate(947.000000, 82.000000)">
                    <path d="M60,1.5 C76.1542553,1.5 90.7793168,8.04782106 101.365784,18.6342883 C111.952152,29.2206558 118.5,43.8455943 118.5,60 C118.5,76.1544057 111.952152,90.7793442 101.365784,101.365712 C90.7793168,111.952179 76.1542553,118.5 60,118.5 C43.8457447,118.5 29.2206832,111.952179 18.6342159,101.365712 C8.04784839,90.7793442 1.5,76.1544057 1.5,60 C1.5,43.8455943 8.04784839,29.2206558 18.6342159,18.6342883 C29.2206832,8.04782106 43.8457447,1.5 60,1.5 Z" id="Stroke-134" stroke="#ECEDF1" stroke-width="3"></path>
                    <path d="M2.74609425,2.796875 C35.0544523,2.796875 61.2460942,28.9879112 61.2460942,61.296875 C61.2460942,93.6058388 35.0544523,119.796875 2.74609425,119.796875" id="Stroke-134" stroke="url(#linearGradient-1)" stroke-width="3" stroke-linecap="round" transform="translate(31.996094, 61.296875) rotate(-182.000000) translate(-31.996094, -61.296875) "></path>
                    <g id="deal-2" transform="translate(31.000000, 42.999597)" fill="#0061ED" fill-rule="nonzero">
                        <path d="M59.466978,2.72596285 C59.1336945,2.49158622 58.7064258,2.43416394 58.32322,2.57584462 L48.1327582,6.2819252 C46.8693509,6.74095185 45.8634064,7.66627081 45.3006681,8.88690434 C45.1951986,9.11577313 45.1259403,9.35354823 45.0565648,9.59097176 C43.3067089,9.09350735 40.054733,8.05451571 36.8229136,6.38938689 C31.9393247,3.87300212 28.2084002,5.11590143 25.008456,7.55669973 C23.3870384,7.58857496 21.1522572,7.78029505 18.955445,7.97389015 C17.554107,8.09752383 16.2297618,8.21131368 15.1558481,8.27682195 C15.1294807,7.63181745 14.9785422,6.99173485 14.7001027,6.38704312 C14.1373644,5.16629241 13.1315371,4.24097344 11.8680126,3.78206398 L1.67731641,0.0757490236 C1.29528249,-0.0646425824 0.865552923,-0.00722030616 0.533558416,0.22586726 C0.198985765,0.460361086 0,0.842395006 0,1.25009317 L0,26.2502288 C0,26.9411711 0.559105469,27.5002766 1.2500478,27.5002766 L4.90116706,27.5002766 C6.45402947,27.5002766 7.89872707,26.7678496 8.83260078,25.5851851 C9.33006519,25.963469 9.91928806,26.4064408 10.5372221,26.8703894 C11.9959823,27.967858 13.5926731,29.1652882 14.2933421,29.7525189 C18.9479449,33.6490305 24.5436871,37.8567943 25.658148,38.5892213 C26.6993663,39.2727807 28.5743794,40.000403 30.0002096,40.000403 C30.558026,40.000403 31.963114,40.000403 32.949488,39.1666081 C33.9663311,39.5657515 35.0625106,39.5462983 36.0818146,39.0969982 C37.0986577,38.6489873 37.9214369,37.8042939 38.3999168,36.777607 C39.376447,36.9777647 40.4982908,36.8312793 41.5151338,36.3210414 C42.4684608,35.8437333 43.1704188,35.121033 43.546359,34.2763396 C44.4496465,34.3593089 45.4141064,34.0651662 46.2770812,33.4046928 C47.5101367,32.4621472 48.07475,31.0701843 47.9150223,29.6969716 L51.0857867,27.9427797 C52.0143869,29.2014994 53.4902566,30.0001378 55.099135,30.0001378 L58.7502543,30.0001378 C59.4411966,30.0001378 60.0003021,29.4410323 60.0003021,28.75009 L60.0003021,3.75018876 C60.0003021,3.34237341 59.8014335,2.96033949 59.466978,2.72596285 Z M7.24247248,23.3779431 C6.87871994,24.3483796 5.93758055,25.0002982 4.90116706,25.0002982 L2.49997841,25.0002982 L2.49997841,3.03475407 L11.013241,6.13051789 C11.6455892,6.36126169 12.1485615,6.82392118 12.4292275,7.43423794 C12.7111826,8.04455471 12.7356749,8.72823136 12.5000092,9.3568295 L7.24247248,23.3779431 Z M44.759844,31.4188196 C44.3362082,31.7435484 43.743001,31.9242528 43.4793273,31.6605791 C43.4658506,31.6471024 43.4449911,31.6483915 43.4311629,31.6355008 C43.4072564,31.6133522 43.3954204,31.5834692 43.3695218,31.562844 C42.4759609,30.8572532 38.4719876,26.7605839 35.9976734,24.17998 C35.5203654,23.6807577 34.7281724,23.6623591 34.2312939,24.1421281 C33.7320716,24.6194361 33.7149621,25.4104573 34.1934421,25.9085077 C34.7742274,26.5147228 39.4364474,31.3704208 41.302437,33.0685968 C41.1631001,33.6175068 40.6542684,33.9564155 40.3958682,34.0860257 C39.5951204,34.4876301 38.7601537,34.4204812 38.4476124,34.1299714 C38.4383545,34.1212994 38.4245263,34.1217682 38.4149169,34.1133306 C38.3996824,34.0997368 38.3928855,34.0806351 38.3767135,34.0677444 C36.8776405,32.8701969 33.1167158,28.8736065 32.2658114,27.9482875 C31.79823,27.4392215 31.0084979,27.4074634 30.4994319,27.873873 C29.9916549,28.3414543 29.9574359,29.1324755 30.4250173,29.6402525 C30.4660332,29.6846669 34.1518402,33.6605149 36.2219719,35.5072857 C36.0185329,36.091821 35.6040378,36.5759259 35.0722373,36.8106541 C34.6797736,36.9850304 34.0659412,37.0744451 33.3645691,36.5561211 C31.5694784,35.0340792 27.9669923,31.1993259 27.2584717,30.4410003 C26.7885466,29.935567 25.9950645,29.91002 25.4920922,30.3812342 C24.987948,30.8524485 24.9611119,31.6434696 25.4323261,32.1476138 C26.272332,33.0466825 28.7552009,35.6782634 30.642636,37.4601118 C30.4318142,37.4857761 30.2104455,37.5004246 30.0002096,37.5004246 C29.1725085,37.5004246 27.7504283,36.9719053 27.0314779,36.499402 C26.1550265,35.923187 20.6519802,31.8167911 15.8997595,27.837193 C15.1808092,27.2341419 13.5401727,26.0000317 12.0386388,24.8720942 C11.2339066,24.2679884 10.4924561,23.7109923 9.946007,23.2906378 L14.6262741,10.8082068 C15.8411654,10.7551205 17.4608251,10.6150805 19.1749387,10.4639075 C20.1444376,10.3784773 21.1149913,10.2951564 22.0424196,10.2229684 C20.6169409,11.6862989 18.4975902,14.3072157 18.7769671,16.7639516 C18.9051712,17.8821625 19.516777,18.8135753 20.5482686,19.458111 C22.5905094,20.7361668 26.3711218,19.6643625 28.1923454,17.4244249 C29.3678615,17.2547363 30.1626326,16.9544998 31.0292403,16.5247702 C32.4940942,17.901733 34.4581705,19.5204552 36.5212708,21.2208577 C40.112624,24.1798628 44.183629,27.5343784 45.2603553,29.4154853 C45.8596564,30.4617426 45.0284396,31.21374 44.759844,31.4188196 Z M46.9042731,27.3987915 C45.2387927,25.1708072 41.6284549,22.1898879 38.1105788,19.2910005 C35.7656405,17.3585651 33.5512501,15.5335914 32.1339745,14.1164331 C31.7433859,13.7281882 31.1439676,13.6402969 30.6605658,13.8978769 C29.3873147,14.5802644 28.8136779,14.8622195 27.37566,15.006244 C26.992337,15.0452677 26.648155,15.2577301 26.4430754,15.5836308 C25.4627951,17.138837 22.7381667,17.8785297 21.8739028,17.3389947 C21.3831182,17.0313753 21.2879613,16.7188341 21.2611251,16.4808246 C21.140304,15.417575 22.2169131,13.5767809 24.002863,11.789659 C28.4255502,7.36697185 31.5871738,6.50153611 35.6777493,8.61092585 C39.5641827,10.6147289 43.3998736,11.7477056 45.0100411,12.1756773 C45.0565648,12.3629443 45.0903151,12.5520862 45.1589874,12.7357203 L50.012576,25.6792873 L46.9042731,27.3987915 Z M57.5004409,27.5002766 L55.0992522,27.5002766 C54.0628387,27.5002766 53.1216993,26.848358 52.7579468,25.8779215 L47.5002928,11.858097 C47.2647443,11.2282098 47.2891195,10.5446503 47.5710746,9.93421635 C47.8518578,9.32389958 48.3548301,8.8612401 48.9870611,8.6304963 L57.5003237,5.53473248 L57.5003237,27.5002766 L57.5004409,27.5002766 Z" id="Shape"></path>
                    </g>
                </g>
            </g>
        </g>
    </g>
</svg>