<?xml version="1.0" encoding="UTF-8"?>
<svg width="40px" height="40px" viewBox="0 0 40 40" version="1.1" xmlns="http://www.w3.org/2000/svg" xmlns:xlink="http://www.w3.org/1999/xlink">
    <title>icons / Saffety@1x</title>
    <g id="Page-2" stroke="none" stroke-width="1" fill="none" fill-rule="evenodd">
        <g id="Atlm_Saleauto_Landing" transform="translate(-295.000000, -2532.000000)">
            <g id="Group-18" transform="translate(135.000000, 2319.000000)">
                <g id="Group" transform="translate(160.000000, 213.000000)">
                    <g id="r/blue" stroke="#0061ED">
                        <circle id="r-blue" cx="20" cy="20" r="19.5"></circle>
                        <circle id="r-blue" cx="20" cy="20" r="19.5"></circle>
                    </g>
                    <g id="shield" transform="translate(9.000000, 7.000000)" fill="#000000" fill-rule="nonzero">
                        <path d="M8.09536351,9.74578356 C7.79778466,9.44825549 7.31531083,9.44856018 7.01813823,9.74578356 L4.71042947,12.0534415 C4.41295218,12.3509188 4.41295218,12.8331895 4.71042947,13.1306668 L9.19777636,17.6180645 C9.49530443,17.9155926 9.97782905,17.9152371 10.2750016,17.6180645 L16.8021348,11.0909314 C17.0996121,10.7935049 17.0993582,10.3109803 16.8021348,10.0137061 L14.494426,7.70604811 C14.1969995,7.40857082 13.714678,7.40857082 13.4172007,7.70604811 L9.7364144,11.3868344 L8.09536351,9.74578356 Z M13.9558388,9.32191143 L15.1862715,10.5523441 L9.7364144,16.0022012 L6.32629279,12.5920796 L7.55672548,11.3616469 L9.19777636,13.0027485 C9.49535521,13.3002766 9.97782905,13.2999211 10.2750016,13.0027485 L13.9558388,9.32191143 Z" id="Shape"></path>
                        <path d="M20.6359254,4.13799643 L10.8452765,0.0585763149 C10.6577916,-0.0195254383 10.4468458,-0.0195254383 10.259361,0.0585763149 L0.468712082,4.13799643 C0.184894983,4.25626625 -1.44329346e-15,4.53363412 -1.44329346e-15,4.84111533 L-1.44329346e-15,11.6549093 C-1.44329346e-15,18.15589 4.14370934,23.9050017 10.3110564,25.9607841 C10.3144588,25.9619013 10.3178103,25.9629677 10.3212127,25.9640849 C10.4715763,26.0119717 10.6331119,26.0119717 10.7834755,25.9640849 C10.7868779,25.9630185 10.7902295,25.9619013 10.7936318,25.9607841 C16.9609789,23.9050017 21.1046882,18.1559408 21.1046882,11.6549601 L21.1046882,4.84111533 C21.1046882,4.53363412 20.9197933,4.25626625 20.6359254,4.13799643 Z M19.581247,11.6549601 C19.581247,17.4142788 15.9636327,22.5171468 10.5523187,24.4329249 C5.14100474,22.5171468 1.52339044,17.4142788 1.52339044,11.6549601 L1.52339044,5.34892907 L10.5523187,1.58689255 L19.581247,5.34897986 L19.581247,11.6549601 Z" id="Shape"></path>
                    </g>
                </g>
            </g>
        </g>
    </g>
</svg>