<?xml version="1.0" encoding="UTF-8"?>
<svg width="121px" height="120px" viewBox="0 0 121 120" version="1.1" xmlns="http://www.w3.org/2000/svg" xmlns:xlink="http://www.w3.org/1999/xlink">
    <title>ic / Kommission@1x</title>
    <defs>
        <linearGradient x1="50%" y1="0.440299855%" x2="50%" y2="95.6466763%" id="linearGradient-1">
            <stop stop-color="#ECEDF1" offset="0%"></stop>
            <stop stop-color="#0061ED" offset="100%"></stop>
        </linearGradient>
    </defs>
    <g id="Page-2" stroke="none" stroke-width="1" fill="none" fill-rule="evenodd">
        <g id="Atlm_Saleauto_Landing" transform="translate(-660.000000, -875.000000)">
            <g id="Group-8" transform="translate(120.000000, 793.000000)">
                <g id="Group" transform="translate(540.000000, 82.000000)">
                    <g id="ic" transform="translate(0.000000, -0.000000)">
                        <g id="Group" transform="translate(0.000000, 0.000000)" stroke-width="3">
                            <path d="M60,1.5 C76.1542553,1.5 90.7793168,8.04782106 101.365784,18.6342883 C111.952152,29.2206558 118.5,43.8455943 118.5,60 C118.5,76.1544057 111.952152,90.7793442 101.365784,101.365712 C90.7793168,111.952179 76.1542553,118.5 60,118.5 C43.8457447,118.5 29.2206832,111.952179 18.6342159,101.365712 C8.04784839,90.7793442 1.5,76.1544057 1.5,60 C1.5,43.8455943 8.04784839,29.2206558 18.6342159,18.6342883 C29.2206832,8.04782106 43.8457447,1.5 60,1.5 Z" id="Stroke-134" stroke="#ECEDF1"></path>
                            <path d="M30.7851562,29.8359375 C63.0935143,29.8359375 89.2851562,56.0269737 89.2851562,88.3359375 C89.2851562,120.644901 63.0935143,146.835937 30.7851562,146.835937" id="Stroke-134" stroke="url(#linearGradient-1)" stroke-linecap="round" transform="translate(60.035156, 88.335937) rotate(-270.000000) translate(-60.035156, -88.335937) "></path>
                        </g>
                        <g id="save-money-2" transform="translate(31.000000, 21.000000)" fill="#0061ED" fill-rule="nonzero">
                            <path d="M30.2923798,36.5656974 C30.168421,36.5388665 30.0412424,36.5340369 29.9156738,36.5528185 C28.6573043,36.4063218 27.7080268,35.3416714 27.7058802,34.0752526 C27.7058802,33.4683374 27.2138014,32.9762586 26.6068862,32.9762586 C25.9999712,32.9762586 25.5078922,33.4683374 25.5078922,34.0752526 C25.511112,36.1900647 26.9256375,38.0424705 28.9647864,38.6021633 L28.9647864,39.7011573 C28.9647864,40.3080724 29.4568652,40.8001512 30.0637804,40.8001512 C30.6706956,40.8001512 31.1627744,40.3080724 31.1627744,39.7011573 L31.1627744,38.6687039 C33.5163817,38.1760885 35.1160403,35.9840033 34.8686594,33.5922962 C34.6207417,31.2005892 32.6057405,29.3830635 30.2011546,29.3825269 C28.8231192,29.3825269 27.7058802,28.2652878 27.7058802,26.8872524 C27.7058802,25.509217 28.8231192,24.3919781 30.2011546,24.3919781 C31.5791901,24.3919781 32.6964291,25.509217 32.6964291,26.8872524 C32.6964291,27.4941676 33.1885079,27.9862464 33.7954231,27.9862464 C34.4023381,27.9862464 34.8944171,27.4941676 34.8944171,26.8872524 C34.8911973,24.6667266 33.3355412,22.7515364 31.1627744,22.2932645 L31.1627744,21.2930082 C31.1627744,20.6860931 30.6706956,20.1940142 30.0637804,20.1940142 C29.4568652,20.1940142 28.9647864,20.6860931 28.9647864,21.2930082 L28.9647864,22.3603417 C26.6970381,22.9795991 25.2374367,25.1813434 25.5497485,27.5113394 C25.8620604,29.8413353 27.8502306,31.5805148 30.2011546,31.5799781 C31.560945,31.5799781 32.6701347,32.6687764 32.6948192,34.0280302 C32.7200402,35.3872839 31.6510968,36.5163285 30.2923798,36.5656974 L30.2923798,36.5656974 Z" id="Path"></path>
                            <path d="M14.2646687,30.5657699 C14.2646687,39.3673807 21.3995437,46.5022556 30.2011546,46.5022556 C39.0027656,46.5022556 46.1376406,39.3673807 46.1376406,30.5657699 C46.1376406,21.764159 39.0027656,14.6292841 30.2011546,14.6292841 C21.4038366,14.6389432 14.2748645,21.768452 14.2646687,30.5657699 Z M30.2011546,16.827272 C37.7889353,16.827272 43.9396526,22.9779892 43.9396526,30.5657699 C43.9396526,38.1535505 37.7889353,44.3042677 30.2011546,44.3042677 C22.613374,44.3042677 16.4626567,38.1535505 16.4626567,30.5657699 C16.4712426,22.9817456 22.6171304,16.8358579 30.2011546,16.827272 Z" id="Shape"></path>
                            <path d="M51.5553374,49.2116408 L42.9463724,53.2792064 C41.7577631,51.0683396 39.4776727,49.6613267 36.9684462,49.5904931 L29.0211313,49.3720896 C27.7627618,49.3361362 26.5280034,49.0173849 25.4091545,48.4394472 L24.600471,48.0203485 C20.4599254,45.8620702 15.5246483,45.8674365 11.3883955,48.0343005 L11.4388376,46.2022862 C11.4554728,45.595371 10.977346,45.0898767 10.3704309,45.0732416 L1.65575209,44.8333733 C1.04883706,44.8167381 0.54387928,45.2948649 0.527244083,45.90178 L0.000400473693,65.0257776 C-0.0158133482,65.6326928 0.462313321,66.138187 1.06922848,66.1548222 L9.78390725,66.3946906 L9.81395787,66.3946906 C10.4096039,66.3946906 10.8968534,65.9208567 10.9129518,65.3257472 L10.9381729,64.4108133 L13.2021649,63.1985928 C14.0908046,62.720466 15.1296973,62.606703 16.1004395,62.8814515 L29.6199972,66.6758785 C29.6436084,66.6828545 29.6672196,66.6882207 29.6913675,66.6935868 C30.6685491,66.8980383 31.6645124,67.0005324 32.6626221,66.9999979 C34.7768977,67.001069 36.8664887,66.5454802 38.7881184,65.66328 C38.8353408,65.6418153 38.8809533,65.6165943 38.9244193,65.5881534 L58.5265437,52.9089398 C59.0148663,52.5928717 59.172632,51.951613 58.8866145,51.4450455 C57.4313061,48.8628389 54.2035479,47.8792179 51.5553374,49.2116408 L51.5553374,49.2116408 Z M2.22832369,63.9879582 L2.69410824,47.0608752 L9.21133565,47.2401056 L8.7455511,64.1677252 L2.22832369,63.9879582 Z M37.7980578,63.7003309 C35.4106437,64.7778601 32.7441881,65.0751465 30.17808,64.5508706 L16.6950124,60.7661028 C15.1774563,60.3373449 13.5531131,60.5149655 12.164882,61.2614013 L11.0079332,61.8811953 L11.317562,50.6267028 C14.9837372,48.1883099 19.6855854,47.9377092 23.590019,49.9720287 L24.3987026,50.3911274 C25.8121548,51.1209281 27.3710305,51.5233918 28.9610301,51.5695409 L36.9088815,51.7879445 C39.141213,51.8523387 41.0370849,53.4418017 41.4899907,55.6290571 L29.6516577,55.3022567 C29.0447425,55.2856215 28.5397849,55.7642851 28.5226131,56.3706635 C28.5059779,56.9775787 28.9846413,57.4830729 29.5910198,57.4997081 L42.6555253,57.8592423 L42.6861126,57.8592423 C43.2812221,57.8587056 43.7679348,57.3848717 43.7840333,56.790299 C43.7974487,56.3127087 43.762032,55.8345819 43.677783,55.3645044 L52.5078345,51.1922984 C52.5164204,51.188542 52.5250063,51.1842491 52.5335922,51.1799562 C53.786059,50.54621 55.3003954,50.7581742 56.3307022,51.7117448 L37.7980578,63.7003309 Z" id="Shape"></path>
                            <path d="M31.3001486,11.5394367 L31.3001486,1.09899397 C31.3001486,0.49207881 30.8080698,0 30.2011546,0 C29.5942395,0 29.1021607,0.49207881 29.1021607,1.09899397 L29.1021607,11.5394367 C29.1021607,12.1463519 29.5942395,12.6384307 30.2011546,12.6384307 C30.8080698,12.6384307 31.3001486,12.1463519 31.3001486,11.5394367 Z" id="Path"></path>
                            <path d="M39.5426034,11.5394367 L39.5426034,6.59396384 C39.5426034,5.98704867 39.0505246,5.49496986 38.4436094,5.49496986 C37.8366943,5.49496986 37.3446155,5.98704867 37.3446155,6.59396384 L37.3446155,11.5394367 C37.3446155,12.1463519 37.8366943,12.6384307 38.4436094,12.6384307 C39.0505246,12.6384307 39.5426034,12.1463519 39.5426034,11.5394367 Z" id="Path"></path>
                            <path d="M23.0576938,11.5394367 L23.0576938,6.59396384 C23.0576938,5.98704867 22.565615,5.49496986 21.9586999,5.49496986 C21.3517847,5.49496986 20.8597059,5.98704867 20.8597059,6.59396384 L20.8597059,11.5394367 C20.8597059,12.1463519 21.3517847,12.6384307 21.9586999,12.6384307 C22.565615,12.6384307 23.0576938,12.1463519 23.0576938,11.5394367 Z" id="Path"></path>
                        </g>
                    </g>
                </g>
            </g>
        </g>
    </g>
</svg>