<?xml version="1.0" encoding="UTF-8"?>
<svg width="40px" height="40px" viewBox="0 0 40 40" version="1.1" xmlns="http://www.w3.org/2000/svg" xmlns:xlink="http://www.w3.org/1999/xlink">
    <title>icons / Cost@1x</title>
    <g id="Page-2" stroke="none" stroke-width="1" fill="none" fill-rule="evenodd">
        <g id="Atlm_Saleauto_Landing" transform="translate(-295.000000, -2352.000000)">
            <g id="Group-18" transform="translate(135.000000, 2319.000000)">
                <g id="Group" transform="translate(160.000000, 33.000000)">
                    <g id="r/blue" stroke="#0061ED">
                        <circle id="r-blue" cx="20" cy="20" r="19.5"></circle>
                        <circle id="r-blue" cx="20" cy="20" r="19.5"></circle>
                    </g>
                    <g id="price-tag" transform="translate(10.000000, 6.000000)" fill="#172B4D" fill-rule="nonzero">
                        <path d="M20.7589286,7.39285714 C21.1287054,7.39285714 21.4285714,7.09305804 21.4285714,6.72321429 L21.4285714,6.69642857 C21.4285714,3.00401786 18.4246205,0 14.7321429,0 C11.9910938,0 9.62986607,1.65569196 8.59479911,4.01926339 C3.84549107,4.07872768 0,7.96004464 0,12.7232143 L0,24.3303571 C0,24.7002009 0.299799107,25 0.669642857,25 L16.7410714,25 C17.1108482,25 17.4107143,24.7002009 17.4107143,24.3303571 L17.4107143,12.7232143 C17.4107143,8.37582589 14.2074107,4.76256696 10.0371429,4.11964286 C10.9495313,2.46388393 12.7117634,1.33928571 14.7321429,1.33928571 C17.6860714,1.33928571 20.0892857,3.7425 20.0892857,6.69642857 L20.0892857,6.72321429 C20.0892857,7.09305804 20.3891518,7.39285714 20.7589286,7.39285714 Z M16.0714286,12.7232143 L16.0714286,23.6607143 L1.33928571,23.6607143 L1.33928571,12.7232143 C1.33928571,8.84276786 4.35549107,5.65379464 8.1665625,5.37696429 C8.08091518,5.80366071 8.03571429,6.24488839 8.03571429,6.69642857 L8.03571429,8.15089286 C7.25631696,8.42732143 6.69642857,9.17162946 6.69642857,10.0446429 C6.69642857,11.1523661 7.59763393,12.0535714 8.70535714,12.0535714 C9.81308036,12.0535714 10.7142857,11.1523661 10.7142857,10.0446429 C10.7142857,9.17169643 10.1543973,8.42732143 9.375,8.15089286 L9.375,6.69642857 C9.375,6.25084821 9.43058036,5.818125 9.53357143,5.40395089 C13.2067634,5.81691964 16.0714286,8.94154018 16.0714286,12.7232143 Z" id="Shape"></path>
                    </g>
                    <path d="M18.5,19.75 C19.5355339,19.75 20.4730339,20.169733 21.1516504,20.8483496 C21.830267,21.5269661 22.25,22.4644661 22.25,23.5 L22.2496822,23.5506679 C22.2365837,22.5347117 21.8194743,21.6161734 21.1516504,20.9483496 C20.4730339,20.269733 19.5355339,19.85 18.5,19.85 C17.4644661,19.85 16.5269661,20.269733 15.8483496,20.9483496 C15.169733,21.6269661 14.75,22.5644661 14.75,23.6 L14.7503178,23.5493321 C14.7501062,23.5329133 14.75,23.5164691 14.75,23.5 C14.75,22.4644661 15.169733,21.5269661 15.8483496,20.8483496 C16.5269661,20.169733 17.4644661,19.75 18.5,19.75 Z" id="Combined-Shape" stroke="#172B4D" stroke-width="1.5"></path>
                </g>
            </g>
        </g>
    </g>
</svg>