<?xml version="1.0" encoding="UTF-8"?>
<svg width="40px" height="40px" viewBox="0 0 40 40" version="1.1" xmlns="http://www.w3.org/2000/svg" xmlns:xlink="http://www.w3.org/1999/xlink">
    <title>icons / Money@1x</title>
    <g id="Page-2" stroke="none" stroke-width="1" fill="none" fill-rule="evenodd">
        <g id="Atlm_Saleauto_Landing" transform="translate(-295.000000, -2715.000000)">
            <g id="Group-18" transform="translate(135.000000, 2319.000000)">
                <g id="Group" transform="translate(160.000000, 396.000000)">
                    <g id="r/blue" stroke="#0061ED">
                        <circle id="r-blue" cx="20" cy="20" r="19.5"></circle>
                        <circle id="r-blue" cx="20" cy="20" r="19.5"></circle>
                    </g>
                    <path d="M8.93649373,23.8721426 L28.3323328,27.2932635 C28.8762218,27.3891969 29.2393615,27.9078755 29.143428,28.4517645 C29.139665,28.4730985 29.1352098,28.4943047 29.1300693,28.5153494 L28.8639676,29.6047509 C28.7329172,30.1412621 28.1917516,30.469953 27.6552405,30.3389026 C27.6314361,30.333088 27.6078534,30.3264004 27.5845403,30.3188534 L8.74018474,24.2184823 C8.66171558,24.1930799 8.61869644,24.1088754 8.64409879,24.0304063 C8.64749298,24.0199215 8.6520373,24.0098446 8.65764876,24.0003597 C8.71482357,23.9037187 8.82591342,23.8526379 8.93649373,23.8721426 Z" id="Rectangle-Copy-2" stroke="#172B4D"></path>
                    <path d="M9.2962772,22.0476225 L30.4810465,23.4227345 C31.0321714,23.4585083 31.4499461,23.9342837 31.4141724,24.4854086 C31.4103821,24.5438014 31.4014737,24.6017488 31.38755,24.6585838 L30.8699652,26.7712958 C30.7446735,27.2827199 30.2442651,27.609371 29.7256593,27.5182633 L8.80296041,23.8426027 C8.39855829,23.7715581 8.12831864,23.3861324 8.19936324,22.9817303 C8.20767876,22.9343965 8.22056435,22.8879805 8.23783913,22.8431339 L8.29833954,22.6860704 C8.45556161,22.2779105 8.85980201,22.0192907 9.2962772,22.0476225 Z" id="Rectangle-Copy" stroke="#172B4D"></path>
                    <g id="Rectangle-2" transform="translate(8.000000, 11.000000)" fill="#F3F4F5" stroke="#172B4D" stroke-width="1.3">
                        <path d="M24,0 C24.5522847,-1.01453063e-16 25,0.44771525 25,1 L25,12 C25,12.5522847 24.5522847,13 24,13 L1,13 C0.44771525,13 6.76353751e-17,12.5522847 0,12 L0,1 C-6.76353751e-17,0.44771525 0.44771525,1.01453063e-16 1,0 L24,0 Z M22,2 L3,2 C2.44771525,2 2,2.44771525 2,3 L2,3 L2,10 C2,10.5522847 2.44771525,11 3,11 L3,11 L22,11 C22.5522847,11 23,10.5522847 23,10 L23,10 L23,3 C23,2.44771525 22.5522847,2 22,2 L22,2 Z" id="Combined-Shape"></path>
                    </g>
                    <circle id="Oval-Copy-4" stroke="#172B4D" stroke-width="1.4" cx="20.5" cy="17.5" r="2.5"></circle>
                </g>
            </g>
        </g>
    </g>
</svg>