<?xml version="1.0" encoding="UTF-8"?>
<svg width="120px" height="121px" viewBox="0 0 120 121" version="1.1" xmlns="http://www.w3.org/2000/svg" xmlns:xlink="http://www.w3.org/1999/xlink">
    <title>ic / Buy@1x</title>
    <defs>
        <linearGradient x1="50%" y1="0.440299855%" x2="50%" y2="95.6466763%" id="linearGradient-1">
            <stop stop-color="#ECEDF1" offset="0%"></stop>
            <stop stop-color="#0061ED" offset="100%"></stop>
        </linearGradient>
    </defs>
    <g id="Page-2" stroke="none" stroke-width="1" fill="none" fill-rule="evenodd">
        <g id="Atlm_Saleauto_Landing" transform="translate(-260.000000, -874.000000)">
            <g id="Group-8" transform="translate(120.000000, 793.000000)">
                <g id="Group" transform="translate(140.000000, 82.000000)">
                    <path d="M60,1.5 C76.1542553,1.5 90.7793168,8.04782106 101.365784,18.6342883 C111.952152,29.2206558 118.5,43.8455943 118.5,60 C118.5,76.1544057 111.952152,90.7793442 101.365784,101.365712 C90.7793168,111.952179 76.1542553,118.5 60,118.5 C43.8457447,118.5 29.2206832,111.952179 18.6342159,101.365712 C8.04784839,90.7793442 1.5,76.1544057 1.5,60 C1.5,43.8455943 8.04784839,29.2206558 18.6342159,18.6342883 C29.2206832,8.04782106 43.8457447,1.5 60,1.5 Z" id="Stroke-134-Copy" stroke="#ECEDF1" stroke-width="3"></path>
                    <path d="M60,1 C92.3083581,1 118.5,27.1910362 118.5,59.5 C118.5,91.8089638 92.3083581,118 60,118" id="Stroke-134-Copy-2" stroke="url(#linearGradient-1)" stroke-width="3" stroke-linecap="round"></path>
                    <g id="24-hours" transform="translate(32.000000, 31.000000)" fill="#0061ED" fill-rule="nonzero">
                        <path d="M27.0666667,25.2 C27.0666667,26.2308594 26.2308594,27.0666667 25.2,27.0666667 C24.1691406,27.0666667 23.3333333,26.2308594 23.3333333,25.2 C23.3333333,24.1691406 24.1691406,23.3333333 25.2,23.3333333 C26.2308594,23.3333333 27.0666667,24.1691406 27.0666667,25.2 Z" id="Path"></path>
                        <g id="Group" transform="translate(-0.000000, -0.000000)" stroke="#0061ED" stroke-width="0.5">
                            <path d="M50.5690756,32.1316406 C50.8024089,31.7985026 51.2253256,31.6549479 51.6136068,31.7770833 C52.0018881,31.8996744 52.266211,32.2597005 52.2666667,32.6666667 L52.2666667,32.6666667 L52.2666667,50.4 L55.0666667,50.4 C55.5820964,50.4 56,50.8179036 56,51.3333333 C56,51.848763 55.5820964,52.2666667 55.0666667,52.2666667 L55.0666667,52.2666667 L52.2666667,52.2666667 L52.2666667,55.0666667 C52.2666667,55.5820964 51.8487631,56 51.3333333,56 C50.8179036,56 50.4,55.5820964 50.4,55.0666667 L50.4,55.0666667 L50.4,52.2666667 L38.2666667,52.2666667 C37.9189453,52.2666667 37.5999349,52.0729818 37.4395182,51.7644531 C37.2786458,51.4559244 37.3027995,51.0835937 37.5024089,50.7983072 L37.5024089,50.7983072 Z M28.3253906,32.5554687 C30.8177735,31.2771485 33.8155599,31.5009114 36.0901042,33.1351562 C38.8445313,35.2164714 39.4880208,39.0892578 37.5552735,41.949414 C37.5352214,41.9794922 37.5133464,42.0086589 37.4901042,42.0364583 L37.4901042,42.0364583 L27.2170572,54.1333333 L38.2666666,54.1333333 C38.7820964,54.1333333 39.2,54.5512369 39.2,55.0666667 C39.2,55.5820964 38.7820964,56 38.2666666,56 L38.2666666,56 L25.2,56 C24.8363281,56 24.5059245,55.7885417 24.3532553,55.4585937 C24.200586,55.1286458 24.2534506,54.7399089 24.4886068,54.4628255 L24.4886068,54.4628255 L36.0267578,40.8716146 C37.3784506,38.8518229 36.9291015,36.1292969 35,34.6509114 C33.2942057,33.4259114 31.0456381,33.2582031 29.1771485,34.2170572 C27.3082031,35.1759114 26.1333333,37.0995443 26.1333333,39.2 C26.1333333,39.7154297 25.7154297,40.1333333 25.2,40.1333333 C24.6845703,40.1333333 24.2666666,39.7154297 24.2666666,39.2 C24.266211,36.3990886 25.8334636,33.833789 28.3253906,32.5554687 Z M50.4,35.6270833 L40.0585938,50.4 L50.4,50.4 L50.4,35.6270833 Z M25.2,-5.68434189e-14 C25.2232422,-5.68434189e-14 25.2428386,0.0123047167 25.2660807,0.0132161167 C38.6608724,0.0328125 49.6922526,10.5432943 50.3589844,23.9212239 L50.3589844,23.9212239 L54.0895833,20.1938151 C54.4555339,19.8397136 55.0379557,19.8447265 55.3979818,20.2047526 C55.7580078,20.5647786 55.7630208,21.1472005 55.409375,21.5131511 L55.409375,21.5131511 L50.1283854,26.7923178 C50.0326822,26.8861979 49.9178386,26.9582031 49.7916015,27.0033203 C49.7542318,27.0128906 49.7159505,27.0201822 49.6776693,27.0247396 C49.6097656,27.0466146 49.5395833,27.0602864 49.4684896,27.0657553 L49.4684896,27.0657553 L49.4151693,27.0657553 C49.3477214,27.0570964 49.2816406,27.0411458 49.2173828,27.0183594 C49.180013,27.0110678 49.1430989,27.0019531 49.1061849,26.9910156 C48.963086,26.9340494 48.8368489,26.8419922 48.7388672,26.7230469 L48.7388672,26.7230469 L43.5289714,21.5131511 C43.1748697,21.1472005 43.1803386,20.5647786 43.5403646,20.2047526 C43.9003906,19.8447265 44.4823568,19.8397136 44.8483072,20.1938151 L44.8483072,20.1938151 L48.4886719,23.8337239 C47.796875,11.8567057 38.121289,2.36386722 26.1333333,1.90039057 L26.1333333,1.90039057 L26.1333333,4.66666667 C26.1333333,5.18209638 25.7154297,5.6 25.2,5.6 C24.6845703,5.6 24.2666667,5.18209638 24.2666667,4.66666667 L24.2666667,4.66666667 L24.2666667,1.90039057 C12.1123697,2.36660153 2.36660153,12.1123697 1.89947917,24.2666667 L1.89947917,24.2666667 L5.6,24.2666667 C6.11542972,24.2666667 6.53333333,24.6845703 6.53333333,25.2 C6.53333333,25.7154297 6.11542972,26.1333333 5.6,26.1333333 L5.6,26.1333333 L1.89947917,26.1333333 C2.3729818,38.3090494 12.1460937,48.064388 24.3227214,48.5164714 C24.8376953,48.5356119 25.2401042,48.9690104 25.2205078,49.4844401 C25.2013672,49.9857422 24.7898437,50.3822265 24.288086,50.3822265 L24.288086,50.3822265 L24.2534505,50.3822265 C10.7392578,49.8795572 0.0364583333,38.7898437 0.0132161167,25.2660807 C0.0123047167,25.2428386 -2.13004922e-12,25.2232422 -2.13004922e-12,25.2 C-2.13004922e-12,25.1767578 0.0132161167,25.1571614 0.0132161167,25.1339193 C0.0319011,11.2679036 11.2679036,0.0319011 25.1339193,0.0132161167 C25.1571614,0.0123047167 25.1767578,-5.68434189e-14 25.2,-5.68434189e-14 Z M36.4195964,12.6606119 C36.7841797,12.2964844 37.3748047,12.2964844 37.739388,12.6606119 C38.1035156,13.0251953 38.1035156,13.6158203 37.739388,13.9804036 L37.739388,13.9804036 L27.7192708,24.0005208 C28.2388021,25.0669271 28.021875,26.3452474 27.1796875,27.1805989 C26.2171875,28.1435547 24.7005208,28.2729818 23.5885417,27.4873047 C22.4770182,26.7011719 22.0932943,25.2282553 22.6798178,23.9996094 L22.6798178,23.9996094 L17.9406901,19.2604818 C17.5870443,18.8940755 17.5920572,18.3121094 17.9520833,17.9520833 C18.3121094,17.5920572 18.8940755,17.5870443 19.2604818,17.9406901 L19.2604818,17.9406901 L24.0091797,22.689388 C24.7666015,22.3516928 25.6324869,22.3516928 26.3899089,22.689388 L26.3899089,22.689388 Z M25.8598958,24.5396485 C25.4953125,24.1755208 24.9046875,24.1755208 24.5401042,24.5396485 C24.1755208,24.9042318 24.1755208,25.4953125 24.5401042,25.8598958 C24.9092447,26.2126303 25.4907553,26.2126303 25.8598958,25.8598958 C26.2244792,25.4953125 26.2244792,24.9042318 25.8598958,24.5396485 Z" id="Combined-Shape"></path>
                        </g>
                    </g>
                </g>
            </g>
        </g>
    </g>
</svg>