<?xml version="1.0" standalone="no"?>
<!DOCTYPE svg PUBLIC "-//W3C//DTD SVG 20010904//EN"
 "http://www.w3.org/TR/2001/REC-SVG-20010904/DTD/svg10.dtd">
<svg xmlns:xlink="http://www.w3.org/1999/xlink" version="1.0" xmlns="http://www.w3.org/2000/svg"
 width="740.000000pt" height="169.000000pt" viewBox="0 0 740.000000 169.000000"
 preserveAspectRatio="xMidYMid meet">

<g transform="translate(0.000000,169.000000) scale(0.100000,-0.100000)"
fill="white" opacity="0.4" stroke="none">
<path d="M1918 1683 c-53 -8 -53 -4 -53 -435 0 -388 1 -400 20 -414 16 -13 57
-15 230 -12 196 3 214 5 262 27 109 49 168 148 161 269 -5 91 -38 156 -101
199 -61 41 -122 53 -267 53 l-120 0 0 80 0 80 195 0 196 0 -3 78 -3 77 -245 1
c-135 1 -257 -1 -272 -3z m367 -477 c19 -8 41 -28 49 -45 33 -63 10 -142 -49
-167 -22 -9 -71 -14 -135 -14 l-100 0 0 120 0 120 100 0 c64 0 113 -5 135 -14z"/>
<path d="M2839 1676 c-64 -17 -104 -49 -131 -104 -22 -44 -23 -60 -26 -282 -5
-326 9 -388 103 -442 39 -22 48 -23 275 -23 l235 0 0 75 0 75 -196 5 c-145 4
-200 9 -212 19 -14 11 -17 32 -17 107 l0 94 184 0 c206 0 196 -4 196 75 0 79
10 75 -196 75 l-184 0 0 68 c1 109 -4 106 221 110 l190 3 -3 77 -3 77 -195 2
c-130 1 -210 -2 -241 -11z"/>
<path d="M3602 1683 c-42 -9 -50 -38 -62 -223 -23 -372 -40 -435 -135 -502
-25 -18 -45 -38 -45 -45 0 -18 53 -123 62 -123 26 0 122 54 155 87 75 75 104
172 123 413 6 80 13 164 16 188 l5 42 119 0 120 0 2 -347 3 -348 88 -3 87 -3
0 414 c0 341 -2 417 -14 433 -13 18 -29 19 -258 21 -134 0 -253 -1 -266 -4z"/>
<path d="M4341 1676 c-8 -9 -10 -131 -9 -432 l3 -419 90 0 90 0 3 193 2 192
73 -1 c93 0 136 -16 159 -56 11 -17 38 -98 61 -180 l42 -148 88 -3 c75 -2 87
0 87 13 0 31 -82 330 -101 367 -11 21 -37 47 -60 61 l-41 25 26 17 c42 28 65
77 102 215 47 181 50 170 -45 170 -51 0 -82 -4 -88 -12 -5 -7 -22 -62 -38
-123 -15 -60 -34 -123 -42 -138 -24 -47 -68 -67 -150 -67 l-73 0 0 164 c0 140
-2 165 -16 170 -31 12 -151 6 -163 -8z"/>
<path d="M5376 1666 c-17 -17 -60 -133 -155 -423 -72 -219 -131 -405 -131
-411 0 -10 24 -12 93 -10 l92 3 23 75 c13 41 25 81 27 88 3 9 42 12 148 12
l143 0 27 -90 27 -90 95 0 c70 0 95 3 95 13 0 7 -61 194 -135 417 -96 290
-141 410 -156 423 -16 13 -40 17 -96 17 -64 0 -77 -3 -97 -24z m149 -346 c20
-74 39 -143 42 -152 5 -16 -4 -18 -91 -18 -55 0 -96 4 -96 10 0 9 76 289 87
320 7 21 15 0 58 -160z"/>
<path d="M5995 1666 l-25 -25 2 -408 3 -408 87 -3 87 -3 3 158 3 158 140 5
c155 6 196 18 253 73 53 50 75 102 80 187 5 92 -20 162 -76 212 -74 65 -106
72 -329 76 l-202 4 -26 -26z m388 -157 c52 -24 73 -109 42 -169 -23 -44 -43
-50 -164 -50 l-111 0 0 115 0 115 105 0 c57 0 115 -5 128 -11z"/>
<path d="M6703 1683 c-9 -3 -13 -29 -13 -79 l0 -74 120 0 120 0 2 -352 3 -353
87 -3 88 -3 2 353 3 353 123 3 122 3 0 73 c0 58 -3 75 -16 80 -19 7 -623 7
-641 -1z"/>
<path d="M105 1664 c-46 -24 -74 -54 -86 -93 -6 -24 -9 -258 -7 -683 3 -638 3
-647 24 -675 11 -15 36 -38 54 -50 l33 -23 655 0 654 0 40 22 c21 12 49 38 61
58 22 35 22 36 25 663 2 418 -1 641 -8 667 -13 49 -54 99 -97 116 -26 11 -155
14 -675 14 -563 0 -647 -2 -673 -16z m830 -344 c67 -68 68 -70 51 -89 -18 -20
-18 -20 85 -23 l104 -3 0 -105 c0 -103 0 -105 -24 -108 -22 -3 -17 -10 50 -78
l74 -74 -77 -77 c-76 -76 -77 -77 -98 -58 l-20 18 0 -107 0 -107 -107 3 c-105
3 -108 4 -111 27 -3 22 -10 18 -77 -49 l-73 -72 -71 68 c-69 67 -84 94 -58
111 7 4 -34 10 -93 13 l-105 5 -3 85 c-4 107 2 130 30 130 19 0 11 12 -45 68
-37 37 -67 72 -67 78 0 5 32 41 70 79 63 63 72 68 90 57 19 -12 20 -9 20 87 0
81 3 100 16 105 22 8 177 7 190 -2 7 -4 13 -15 15 -25 3 -15 17 -6 69 46 36
36 72 65 80 66 9 1 47 -30 85 -69z"/>
<path d="M698 1050 l4 -60 -61 0 -60 0 42 -39 42 -40 -50 -52 c-27 -29 -42
-47 -33 -40 9 7 37 11 65 9 l48 -3 3 -57 3 -56 39 41 39 42 52 -50 c29 -27 47
-42 40 -33 -7 9 -11 37 -9 65 l3 48 54 3 54 3 -37 38 -38 39 37 40 36 41 -53
3 -53 3 -3 54 -3 54 -40 -39 -39 -38 -43 42 -42 41 3 -59z"/>
<path d="M1867 614 c-11 -11 -8 -419 3 -448 8 -22 16 -26 48 -26 48 0 50 1
153 175 l84 140 5 -155 5 -155 48 -3 47 -3 0 231 0 230 -25 12 c-50 23 -74 2
-153 -127 -40 -66 -83 -136 -95 -155 l-22 -35 -5 160 -5 160 -40 3 c-23 2 -44
0 -48 -4z"/>
<path d="M5018 609 c-16 -9 -18 -31 -18 -239 l0 -230 50 0 50 0 0 195 0 195
90 0 90 0 2 -192 3 -193 48 -3 47 -3 0 230 c0 217 -1 231 -19 241 -25 13 -320
13 -343 -1z"/>
<path d="M5566 500 c-59 -11 -66 -17 -59 -53 l6 -28 68 7 c73 7 99 -2 99 -36
0 -14 -12 -18 -64 -22 -104 -9 -146 -45 -146 -129 0 -80 80 -119 208 -102 39
6 79 16 87 23 19 16 21 242 2 279 -28 55 -103 78 -201 61z m112 -242 c-3 -39
-6 -43 -32 -46 -52 -6 -76 5 -76 36 0 39 17 52 68 52 l43 0 -3 -42z"/>
<path d="M2367 493 c-4 -3 -7 -84 -7 -180 l0 -173 45 0 45 0 0 75 0 75 65 0
64 0 3 -72 3 -73 48 -3 47 -3 -2 178 -3 178 -45 0 -45 0 -3 -62 -3 -63 -64 0
-65 0 0 65 0 65 -38 0 c-21 0 -42 -3 -45 -7z"/>
<path d="M2737 494 c-4 -4 -7 -22 -7 -41 l0 -33 55 0 55 0 0 -140 0 -140 45 0
44 0 3 137 3 138 55 5 55 5 0 35 0 35 -151 3 c-82 1 -153 -1 -157 -4z"/>
<path d="M3140 478 c-50 -35 -70 -81 -70 -163 0 -125 51 -180 165 -180 59 0
125 19 125 36 0 13 -23 59 -29 59 -3 0 -23 -5 -44 -11 -54 -15 -102 3 -116 42
l-10 29 99 0 c95 0 100 1 116 25 29 45 -2 142 -56 170 -46 24 -140 20 -180 -7z
m128 -64 c12 -8 22 -26 22 -40 0 -23 -3 -24 -60 -24 -53 0 -60 2 -60 19 0 20
43 61 64 61 6 0 22 -7 34 -16z"/>
<path d="M3500 487 l-35 -12 -3 -237 -2 -238 50 0 50 0 0 71 0 72 38 -7 c124
-19 202 70 189 215 -10 109 -58 149 -177 148 -41 0 -91 -5 -110 -12z m170 -87
c28 -28 28 -117 -1 -154 -17 -21 -29 -26 -65 -26 l-44 0 0 100 0 100 45 0 c32
0 51 -6 65 -20z"/>
<path d="M3877 493 c-4 -3 -7 -84 -7 -180 l0 -173 45 0 45 0 0 75 0 75 65 0
64 0 3 -72 3 -73 48 -3 47 -3 -2 178 -3 178 -45 0 -45 0 -3 -62 -3 -63 -64 0
-65 0 0 65 0 65 -38 0 c-21 0 -42 -3 -45 -7z"/>
<path d="M4354 490 c-79 -32 -116 -187 -67 -283 32 -63 125 -90 217 -63 60 18
62 21 44 61 -10 23 -15 25 -47 18 -81 -17 -121 -3 -136 45 -6 22 -5 22 93 22
115 0 125 6 124 75 -1 56 -24 100 -62 120 -31 16 -131 19 -166 5z m114 -76
c12 -8 22 -26 22 -40 0 -23 -3 -24 -60 -24 -53 0 -60 2 -60 20 0 23 37 60 60
60 8 0 26 -7 38 -16z"/>
<path d="M4624 486 c-3 -8 -4 -25 -2 -38 3 -20 9 -23 55 -26 l52 -3 3 -137 3
-137 45 0 45 0 3 138 3 137 55 0 55 0 -3 38 -3 37 -153 3 c-126 2 -153 0 -158
-12z"/>
<path d="M5910 487 l-35 -12 -3 -237 -2 -238 45 0 45 0 0 69 0 70 63 -2 c118
-3 172 55 172 183 -1 132 -48 180 -176 179 -41 0 -90 -5 -109 -12z m169 -93
c29 -37 29 -112 0 -148 -18 -23 -27 -27 -68 -24 l-46 3 -3 84 c-2 46 -1 90 2
98 3 8 22 13 50 13 36 0 48 -5 65 -26z"/>
<path d="M6354 490 c-60 -24 -100 -118 -89 -206 12 -99 66 -148 165 -148 112
-1 175 73 167 194 -8 120 -56 170 -162 169 -33 0 -69 -4 -81 -9z m134 -101
c18 -33 11 -135 -11 -156 -21 -21 -73 -21 -94 0 -21 21 -29 109 -13 146 22 53
91 59 118 10z"/>
<path d="M6738 488 c-11 -9 -18 -39 -22 -103 -9 -122 -21 -163 -52 -177 -27
-13 -28 -17 -12 -53 14 -30 32 -32 76 -5 41 25 61 72 68 158 9 112 9 112 54
112 l39 0 3 -137 3 -138 48 -3 47 -3 0 170 c0 158 -1 171 -19 181 -28 15 -213
13 -233 -2z"/>
<path d="M7087 493 c-4 -3 -7 -82 -7 -174 0 -143 2 -168 16 -173 31 -12 194
-6 228 8 91 38 105 162 23 208 -12 7 -56 15 -97 18 l-75 5 -3 58 -3 57 -38 0
c-21 0 -41 -3 -44 -7z m206 -204 c5 -9 7 -28 3 -42 -6 -25 -10 -27 -66 -27
l-60 0 0 45 0 46 56 -3 c39 -2 60 -8 67 -19z"/>
</g>
</svg>
