<?xml version="1.0" standalone="no"?>
<!DOCTYPE svg PUBLIC "-//W3C//DTD SVG 20010904//EN"
 "http://www.w3.org/TR/2001/REC-SVG-20010904/DTD/svg10.dtd">
<svg xmlns:xlink="http://www.w3.org/1999/xlink" version="1.0" xmlns="http://www.w3.org/2000/svg"
 width="1001.000000pt" height="428.000000pt" viewBox="0 0 1001.000000 428.000000"
 preserveAspectRatio="xMidYMid meet">

<g transform="translate(0.000000,428.000000) scale(0.100000,-0.100000)"
fill="#8b8d8e" stroke="none">
<path d="M9080 3240 c0 -126 -3 -230 -6 -230 -4 0 -22 14 -42 31 -56 49 -97
63 -192 63 -151 0 -267 -69 -331 -199 -105 -213 -24 -468 176 -556 67 -30 146
-40 213 -28 66 13 99 28 147 70 l35 31 0 -46 0 -46 80 0 80 0 0 570 0 570 -80
0 -80 0 0 -230z m-122 -309 c145 -75 175 -279 58 -396 -110 -109 -284 -80
-359 60 -29 54 -30 173 -3 228 23 47 63 88 108 110 47 23 149 22 196 -2z"/>
<path d="M850 2885 l0 -555 90 0 90 0 2 446 3 446 159 -391 159 -391 92 0 93
0 110 273 c61 149 133 328 161 397 l50 125 1 -452 0 -453 90 0 90 0 0 555 0
556 -137 -3 -137 -3 -142 -350 c-79 -192 -151 -368 -159 -389 -13 -31 -19 -36
-25 -25 -5 7 -78 184 -162 391 l-153 378 -137 0 -138 0 0 -555z"/>
<path d="M4060 3205 l0 -115 -75 0 -75 0 0 -75 0 -75 74 0 74 0 4 -218 3 -218
30 -59 c22 -44 42 -66 75 -87 55 -33 146 -49 217 -38 57 9 173 57 173 72 0 5
-14 35 -30 68 l-30 60 -41 -20 c-50 -26 -125 -35 -161 -21 -16 6 -37 25 -48
43 -18 30 -20 51 -20 226 l0 192 145 0 145 0 0 75 0 75 -145 0 -145 0 0 115 0
115 -85 0 -85 0 0 -115z"/>
<path d="M2487 3099 c-107 -25 -217 -121 -258 -227 -31 -77 -33 -232 -5 -308
56 -151 192 -246 351 -246 77 0 126 15 187 58 l47 33 3 -37 3 -37 83 -3 82 -3
0 381 0 380 -85 0 -85 0 0 -40 0 -40 -45 35 c-76 57 -179 77 -278 54z m201
-164 c51 -22 81 -52 108 -110 54 -115 18 -259 -80 -319 -128 -79 -296 -17
-336 125 -37 127 22 265 130 308 38 15 137 13 178 -4z"/>
<path d="M3395 3096 c-118 -29 -194 -101 -203 -195 -7 -74 5 -118 44 -161 43
-48 102 -76 190 -91 147 -24 174 -31 198 -50 27 -21 33 -56 16 -89 -32 -59
-226 -67 -336 -14 -33 15 -62 30 -66 32 -11 5 -80 -107 -73 -118 11 -18 100
-58 166 -75 47 -12 94 -16 175 -13 104 3 116 5 180 38 84 43 125 95 132 169 7
74 -5 118 -44 160 -46 51 -107 76 -249 101 -141 25 -165 38 -165 91 0 15 11
36 26 50 24 22 33 24 127 24 86 0 111 -4 163 -26 l60 -25 32 57 c18 32 32 62
32 67 0 14 -94 50 -175 67 -83 17 -161 18 -230 1z"/>
<path d="M4918 3095 c-107 -29 -199 -111 -240 -214 -19 -46 -23 -75 -23 -171
0 -109 2 -119 32 -182 56 -120 150 -188 283 -206 124 -18 270 17 354 83 19 14
18 16 -18 70 -20 30 -40 55 -44 55 -5 0 -35 -14 -66 -31 -68 -37 -169 -50
-230 -29 -67 22 -145 112 -146 168 0 9 63 12 281 12 l282 0 -5 83 c-7 97 -35
183 -80 242 -85 111 -239 159 -380 120z m192 -155 c40 -20 82 -79 95 -132 l7
-28 -196 0 c-128 0 -196 4 -196 10 0 47 64 133 115 156 45 20 129 17 175 -6z"/>
<path d="M5852 3091 c-29 -10 -69 -33 -88 -52 l-34 -33 0 42 0 42 -80 0 -80 0
0 -380 0 -380 80 0 80 0 0 223 c0 237 6 281 47 336 36 47 84 64 163 58 36 -3
72 -8 81 -11 13 -6 20 7 36 73 l20 79 -43 11 c-62 16 -121 13 -182 -8z"/>
<path d="M6402 3095 c-74 -21 -108 -41 -168 -97 -32 -30 -62 -72 -80 -111 -26
-57 -29 -72 -29 -172 1 -91 5 -120 23 -167 91 -226 406 -306 607 -152 19 14
35 31 35 36 0 5 -21 33 -47 63 l-47 53 -31 -24 c-113 -86 -271 -63 -340 50
-25 41 -31 62 -33 126 -4 85 8 124 53 178 76 91 233 98 328 14 15 -14 19 -13
38 4 12 10 35 37 52 58 l31 39 -38 33 c-80 69 -241 101 -354 69z"/>
<path d="M7170 3095 c-229 -64 -339 -331 -233 -568 34 -76 121 -157 200 -187
121 -45 262 -23 341 52 l32 32 0 -47 0 -47 80 0 80 0 0 380 0 380 -80 0 -80 0
0 -40 c0 -22 -2 -40 -5 -40 -3 0 -18 12 -33 26 -66 64 -194 89 -302 59z m214
-159 c151 -63 182 -300 52 -413 -47 -42 -97 -57 -167 -50 -103 9 -177 77 -199
183 -24 115 25 225 125 277 38 20 144 22 189 3z"/>
<path d="M8202 3091 c-50 -17 -82 -38 -109 -71 -10 -12 -12 -8 -13 28 l0 42
-80 0 -80 0 0 -380 0 -380 80 0 80 0 0 228 c0 127 5 244 11 265 12 46 58 100
99 117 30 12 132 9 176 -5 20 -6 23 -1 38 64 9 38 16 74 16 80 0 14 -66 31
-120 31 -25 -1 -69 -9 -98 -19z"/>
<path d="M9402 2388 c-28 -28 -7 -78 33 -78 27 0 45 18 45 45 0 27 -18 45 -45
45 -12 0 -26 -5 -33 -12z m65 -14 c9 -24 -10 -49 -38 -49 -24 0 -36 23 -25 51
7 19 55 18 63 -2z"/>
<path d="M9420 2360 c0 -11 7 -20 15 -20 8 0 15 9 15 20 0 11 -7 20 -15 20 -8
0 -15 -9 -15 -20z"/>
</g>
</svg>
