<?xml version="1.0" standalone="no"?>
<!DOCTYPE svg PUBLIC "-//W3C//DTD SVG 20010904//EN"
 "http://www.w3.org/TR/2001/REC-SVG-20010904/DTD/svg10.dtd">
<svg xmlns:xlink="http://www.w3.org/1999/xlink" version="1.0" xmlns="http://www.w3.org/2000/svg"
 width="600.000000pt" height="300.000000pt" viewBox="0 0 600.000000 300.000000"
 preserveAspectRatio="xMidYMid meet">

<g transform="translate(0.000000,300.000000) scale(0.100000,-0.100000)"
fill="#8b8d8e" stroke="none">
<path d="M3297 2499 c-92 -22 -158 -77 -177 -150 -20 -75 11 -142 87 -185 111
-62 123 -73 123 -105 0 -25 -6 -32 -35 -45 -46 -19 -98 -17 -163 5 -29 10 -54
15 -56 12 -2 -3 -9 -32 -16 -65 -14 -70 -14 -70 84 -87 198 -33 356 56 356
201 0 73 -43 126 -140 175 -86 44 -104 82 -50 110 36 19 83 19 144 1 35 -11
48 -11 51 -3 14 47 25 109 20 117 -15 24 -155 36 -228 19z"/>
<path d="M2102 2489 c2 -6 38 -22 80 -35 41 -13 82 -31 89 -40 7 -9 43 -131
79 -272 l66 -257 85 -3 84 -3 122 293 c67 161 125 301 129 311 6 16 0 18 -77
15 l-83 -3 -82 -205 c-65 -162 -83 -200 -88 -180 -4 14 -20 97 -36 185 -39
213 -31 205 -226 205 -102 0 -145 -3 -142 -11z"/>
<path d="M2910 2497 c0 -5 -120 -568 -127 -594 -5 -22 -3 -23 76 -23 45 0 81
1 81 3 0 5 120 568 127 595 5 21 3 22 -76 22 -45 0 -81 -1 -81 -3z"/>
<path d="M3757 2478 c-17 -15 -65 -116 -141 -300 -64 -153 -116 -282 -116
-288 0 -7 29 -10 82 -8 l81 3 15 43 14 42 102 0 103 0 9 -42 9 -43 73 -3 74
-3 -7 38 c-3 21 -32 160 -63 308 l-57 270 -77 3 c-67 2 -79 0 -101 -20z m112
-370 c1 -5 -29 -8 -65 -8 -59 0 -65 2 -59 18 4 9 18 49 32 87 48 133 43 132
69 15 12 -58 23 -108 23 -112z"/>
<path d="M1760 825 l0 -685 1370 0 1370 0 0 685 0 685 -1370 0 -1370 0 0 -685z
m786 175 c19 0 24 -5 24 -26 0 -25 -2 -26 -40 -20 -47 7 -80 -6 -80 -34 0 -13
19 -29 63 -52 54 -29 63 -38 71 -71 8 -31 6 -42 -11 -65 -25 -34 -83 -54 -135
-46 -40 7 -55 22 -45 48 5 12 13 13 43 5 46 -13 81 -5 89 22 9 26 -9 47 -57
66 -47 19 -78 56 -78 93 0 48 68 96 118 83 8 -1 25 -3 38 -3z m522 0 c19 0 23
-5 20 -22 -3 -21 -8 -23 -60 -23 -50 0 -61 -4 -85 -28 -24 -23 -28 -36 -28
-82 0 -46 4 -59 28 -82 24 -24 35 -28 82 -27 40 1 55 -2 60 -14 9 -25 -11 -35
-73 -35 -71 0 -122 27 -146 77 -33 70 -12 167 45 209 31 22 85 37 114 31 11
-2 30 -4 43 -4z m-250 -22 c-3 -21 -9 -23 -65 -26 l-63 -3 0 -39 0 -40 60 0
c53 0 60 -2 60 -20 0 -18 -7 -20 -60 -20 l-60 0 0 -45 0 -45 65 0 c63 0 65 -1
65 -25 0 -25 0 -25 -95 -25 l-95 0 0 155 0 155 96 0 c93 0 95 -1 92 -22z m374
-99 c3 -106 5 -122 22 -135 28 -20 60 -17 82 7 16 18 20 40 22 136 l4 114 26
-3 27 -3 -1 -111 c-2 -130 -16 -167 -71 -190 -71 -30 -153 8 -167 77 -3 18 -6
76 -6 130 l0 99 29 0 29 0 4 -121z m423 96 c35 -34 34 -88 -1 -120 -15 -14
-22 -25 -17 -25 12 0 37 -56 48 -107 6 -31 5 -33 -23 -33 -28 0 -31 4 -42 50
-12 51 -38 80 -72 80 -15 0 -18 -9 -18 -65 l0 -65 -30 0 -30 0 0 148 c0 82 3
152 7 155 3 4 40 7 80 7 65 0 77 -3 98 -25z m255 0 c0 -24 -3 -25 -60 -25
l-60 0 0 -40 0 -40 60 0 c53 0 60 -2 60 -20 0 -18 -7 -20 -60 -20 l-60 0 0
-45 0 -45 65 0 c63 0 65 -1 65 -25 0 -25 0 -25 -95 -25 l-95 0 0 155 0 155 90
0 c89 0 90 0 90 -25z"/>
<path d="M3490 910 c0 -47 2 -50 26 -50 41 0 64 18 64 50 0 32 -23 50 -64 50
-24 0 -26 -3 -26 -50z"/>
</g>
</svg>
