<?xml version="1.0" standalone="no"?>
<!DOCTYPE svg PUBLIC "-//W3C//DTD SVG 20010904//EN"
 "http://www.w3.org/TR/2001/REC-SVG-20010904/DTD/svg10.dtd">
<svg xmlns:xlink="http://www.w3.org/1999/xlink" version="1.0" xmlns="http://www.w3.org/2000/svg"
 width="2356.000000pt" height="783.000000pt" viewBox="0 0 2356.000000 783.000000"
 preserveAspectRatio="xMidYMid meet">

<g transform="translate(0.000000,783.000000) scale(0.100000,-0.100000)"
fill="#8b8d8e" stroke="none">
<path d="M3869 7499 l-82 -164 -208 -775 c-115 -426 -209 -776 -209 -777 0 -2
245 -3 545 -3 300 0 545 3 545 6 0 12 -501 1868 -505 1873 -2 2 -41 -70 -86
-160z"/>
<path d="M5362 5753 l-911 -526 382 -386 c210 -212 385 -386 389 -386 9 0
1060 1816 1055 1822 -2 1 -414 -234 -915 -524z"/>
<path d="M2692 5085 c-111 -228 -202 -418 -202 -423 0 -4 26 -53 58 -109 l58
-102 387 387 387 387 -236 135 c-130 74 -239 136 -243 138 -4 1 -98 -185 -209
-413z"/>
<path d="M14775 4556 c-59 -27 -106 -77 -129 -137 -15 -40 -346 -2094 -346
-2146 l0 -23 229 0 c210 0 230 1 235 18 3 9 10 55 17 102 6 47 13 87 15 89 2
2 28 -20 58 -50 175 -174 465 -241 739 -170 282 73 525 342 613 676 24 88 27
119 27 260 0 132 -4 174 -21 240 -48 179 -165 352 -297 439 -250 166 -639 128
-870 -85 -38 -35 -45 -38 -45 -22 0 12 29 200 65 419 36 219 65 402 65 406 0
5 -69 8 -152 8 -139 0 -158 -2 -203 -24z m678 -1017 c171 -35 288 -174 304
-363 29 -349 -271 -624 -590 -541 -110 29 -224 102 -277 180 l-31 45 31 198
c16 108 35 213 40 233 17 61 143 176 236 215 101 42 189 52 287 33z"/>
<path d="M5770 3915 c0 -529 1 -545 19 -545 10 0 574 117 1253 259 1459 308
1340 282 1336 287 -6 5 -2569 544 -2590 544 -17 0 -18 -28 -18 -545z"/>
<path d="M22985 3987 c-215 -72 -349 -280 -316 -492 38 -247 271 -418 511
-377 193 33 337 179 370 373 32 191 -74 386 -257 472 -60 28 -79 32 -168 34
-63 2 -115 -2 -140 -10z m287 -90 c112 -55 188 -158 210 -284 10 -60 9 -80 -5
-138 -30 -122 -116 -223 -226 -267 -83 -33 -215 -31 -292 4 -109 50 -187 144
-216 263 -44 177 57 365 234 436 76 30 219 23 295 -14z"/>
<path d="M22920 3565 l0 -225 55 0 55 0 0 90 0 90 34 0 c31 0 39 -7 100 -90
l66 -90 56 0 55 0 -22 33 c-13 17 -42 58 -66 89 -45 59 -52 78 -29 78 22 0 63
55 70 95 9 47 -17 102 -63 132 -31 21 -45 23 -172 23 l-139 0 0 -225z m254
129 c23 -22 20 -71 -3 -84 -11 -5 -47 -10 -80 -10 l-61 0 0 55 0 55 64 0 c45
0 69 -5 80 -16z"/>
<path d="M13205 3950 c-209 -29 -379 -114 -525 -261 -173 -175 -257 -374 -267
-629 -8 -200 22 -332 108 -477 68 -112 208 -232 345 -294 197 -89 519 -103
761 -33 91 26 221 87 228 107 9 25 56 369 52 373 -3 3 -27 -6 -54 -19 -239
-121 -577 -141 -780 -47 -114 52 -198 155 -205 251 l-3 34 597 3 c557 2 597 3
602 20 14 47 28 237 23 312 -12 191 -74 328 -207 461 -98 98 -181 145 -315
179 -91 24 -269 33 -360 20z m210 -375 c134 -35 200 -115 221 -269 l7 -46
-373 0 -372 0 6 26 c53 210 293 345 511 289z"/>
<path d="M17585 3951 c-139 -22 -260 -77 -369 -167 -36 -30 -66 -53 -66 -52 0
2 7 41 15 88 8 47 15 88 15 93 0 10 -458 9 -464 -2 -3 -5 -87 -521 -186 -1147
-99 -627 -182 -1147 -184 -1157 -4 -17 5 -18 157 -15 178 3 205 10 266 70 60
59 69 90 126 451 30 188 55 346 55 351 0 5 18 -12 40 -37 49 -55 158 -129 237
-162 224 -90 515 -66 724 61 180 109 346 346 411 584 20 74 23 109 23 265 0
157 -3 190 -23 258 -74 257 -249 442 -474 503 -65 17 -235 26 -303 15z m88
-431 c79 -30 158 -104 199 -188 30 -61 33 -76 37 -178 3 -122 -9 -186 -56
-278 -33 -65 -130 -166 -191 -199 -180 -98 -404 -66 -561 79 -90 83 -89 79
-51 327 22 145 39 222 52 244 49 82 191 179 304 208 76 19 193 12 267 -15z"/>
<path d="M19360 3954 c-191 -17 -424 -79 -440 -117 -12 -29 -62 -359 -55 -365
3 -3 17 1 32 8 130 60 286 91 463 91 210 0 326 -41 385 -136 28 -45 30 -56 30
-141 0 -51 -3 -95 -6 -98 -3 -4 -30 4 -60 17 -255 112 -566 129 -782 42 -246
-98 -376 -281 -377 -525 0 -234 132 -410 364 -487 72 -24 97 -27 226 -27 122
-1 157 3 224 22 102 29 217 89 283 147 l51 45 11 -33 c17 -52 67 -104 126
-132 115 -54 318 -55 425 -2 l45 22 25 166 26 166 -68 -5 c-64 -4 -68 -3 -97
26 -42 41 -41 67 14 397 25 149 45 302 45 340 0 299 -174 488 -515 561 -70 15
-290 25 -375 18z m194 -970 c72 -19 155 -59 162 -79 3 -8 -1 -49 -10 -92 -14
-71 -20 -82 -61 -120 -87 -80 -206 -123 -346 -123 -187 0 -283 69 -282 203 1
110 79 192 214 222 78 18 237 13 323 -11z"/>
<path d="M8960 3917 c0 -3 33 -15 73 -27 312 -94 635 -273 751 -415 79 -98 81
-105 185 -691 l96 -544 200 0 201 0 249 501 c137 276 250 497 252 492 1 -4 43
-222 93 -483 50 -261 93 -483 96 -492 5 -16 24 -18 205 -18 l200 0 415 833
c228 459 414 837 414 842 0 4 -82 5 -182 3 -303 -8 -277 18 -556 -551 -123
-249 -219 -432 -222 -425 -4 7 -45 231 -91 496 l-84 484 -145 -4 c-136 -3
-148 -5 -190 -30 -80 -47 -62 -13 -437 -788 -47 -96 -87 -170 -89 -165 -2 6
-26 139 -54 297 -27 158 -58 310 -69 338 -59 155 -195 278 -362 327 -45 13
-131 17 -501 20 -247 3 -448 3 -448 0z"/>
<path d="M20595 3868 c65 -197 475 -1541 475 -1556 0 -28 -89 -149 -158 -215
-136 -129 -295 -157 -460 -82 -30 14 -56 24 -57 23 -2 -2 -17 -93 -34 -203
-23 -149 -27 -201 -18 -207 6 -4 43 -17 82 -30 61 -20 89 -23 230 -23 149 1
166 3 240 28 44 16 112 47 150 69 86 50 234 196 297 293 25 39 280 491 567
1005 l521 935 -200 3 c-186 2 -202 1 -245 -19 -25 -12 -62 -41 -83 -65 -21
-25 -139 -241 -282 -518 -134 -262 -247 -472 -251 -468 -4 4 -72 246 -152 537
l-144 530 -246 3 -246 2 14 -42z"/>
<path d="M1965 3595 c-44 -92 -81 -171 -83 -174 -2 -7 160 -53 165 -47 2 2 2
90 1 196 l-3 193 -80 -168z"/>
<path d="M2105 2513 c-275 -477 -513 -889 -529 -916 l-28 -50 33 19 c19 11
428 247 909 524 481 277 878 506 882 509 4 4 -167 181 -380 393 l-387 387
-500 -866z"/>
<path d="M4830 2995 c-234 -234 -381 -388 -375 -393 20 -18 1818 -1053 1822
-1049 5 6 -1043 1821 -1054 1824 -4 2 -181 -170 -393 -382z"/>
<path d="M3442 2053 l-74 -4 7 -27 c26 -105 536 -2006 539 -2010 3 -2 9 13 15
34 5 22 127 477 271 1012 143 535 260 979 260 987 0 13 -60 15 -472 13 -260
-1 -506 -4 -546 -5z"/>
</g>
</svg>
